<svg width="1560" height="902" viewBox="0 0 1560 902" fill="none" xmlns="http://www.w3.org/2000/svg">
<rect width="1560" height="902" rx="4" fill="#DFF3FF"/>
<path d="M41 40H1516C1516.55 40 1517 40.4477 1517 41V837C1517 837.552 1516.55 838 1516 838H41C40.4477 838 40 837.552 40 837V41C40 40.4477 40.4477 40 41 40Z" stroke="black" stroke-width="2"/>
<path d="M718.917 77.1635C718.705 77.1745 718.497 77.2287 718.305 77.3228L709.962 81.4281C709.746 81.5343 709.556 81.6888 709.407 81.8801C709.257 82.0715 709.152 82.2948 709.099 82.5335L707.04 91.7549C706.993 91.9673 706.987 92.1874 707.024 92.402C707.062 92.6166 707.141 92.8214 707.257 93.0042C707.285 93.0489 707.315 93.0922 707.347 93.1339L713.123 100.528C713.272 100.719 713.462 100.874 713.678 100.98C713.894 101.086 714.13 101.141 714.37 101.141L723.631 101.139C723.871 101.139 724.107 101.084 724.323 100.978C724.539 100.872 724.729 100.718 724.879 100.527L730.652 93.1317C730.801 92.9403 730.907 92.7169 730.96 92.4781C731.013 92.2394 731.013 91.9914 730.96 91.7527L728.898 82.5313C728.845 82.2926 728.74 82.0693 728.59 81.878C728.441 81.6866 728.251 81.5321 728.035 81.4259L719.69 77.3228C719.45 77.2044 719.184 77.1496 718.917 77.1635V77.1635Z" fill="#326CE5"/>
<path d="M718.999 80.3017C718.724 80.3017 718.5 80.5575 718.5 80.873C718.5 80.8779 718.501 80.8825 718.501 80.8873C718.501 80.9302 718.499 80.9819 718.5 81.0192C718.507 81.2012 718.545 81.3405 718.568 81.5082C718.61 81.8671 718.646 82.1646 718.624 82.4411C718.603 82.5453 718.528 82.6407 718.462 82.707L718.45 82.9246C718.15 82.9501 717.849 82.9969 717.547 83.0674C716.25 83.3706 715.134 84.0584 714.284 84.9871C714.229 84.9483 714.132 84.877 714.104 84.8552C714.015 84.8676 713.924 84.8959 713.807 84.8255C713.584 84.6706 713.38 84.4568 713.134 84.1992C713.021 84.076 712.939 83.9587 712.805 83.8399C712.775 83.8129 712.728 83.7764 712.694 83.7487C712.589 83.6626 712.466 83.6177 712.346 83.6135C712.193 83.6081 712.045 83.6699 711.948 83.7948C711.776 84.0169 711.831 84.3563 712.071 84.553C712.073 84.555 712.076 84.5566 712.078 84.5585C712.111 84.586 712.152 84.6212 712.182 84.6442C712.324 84.7524 712.454 84.8078 712.596 84.8937C712.895 85.0836 713.142 85.2411 713.339 85.431C713.415 85.5152 713.429 85.6635 713.439 85.7277L713.599 85.8749C712.742 87.2028 712.346 88.843 712.58 90.5142L712.371 90.5768C712.316 90.6501 712.238 90.7654 712.156 90.7999C711.899 90.8832 711.61 90.9138 711.261 90.9515C711.097 90.9655 710.956 90.9572 710.782 90.9911C710.744 90.9985 710.69 91.0128 710.648 91.0229C710.647 91.0233 710.646 91.0237 710.644 91.024C710.642 91.0246 710.639 91.0257 710.637 91.0262C710.342 91.0995 710.153 91.3781 710.214 91.6526C710.275 91.9271 710.563 92.0941 710.859 92.0284C710.861 92.0279 710.864 92.0278 710.866 92.0273C710.869 92.0265 710.872 92.0248 710.876 92.024C710.917 92.0146 710.969 92.0043 711.005 91.9943C711.176 91.9472 711.299 91.878 711.453 91.8174C711.783 91.6953 712.057 91.5934 712.324 91.5537C712.435 91.5447 712.552 91.6244 712.611 91.6581L712.829 91.6196C713.329 93.2189 714.379 94.5115 715.709 95.3227L715.618 95.5468C715.651 95.6339 715.687 95.7516 715.662 95.8376C715.565 96.0964 715.399 96.3696 715.21 96.6742C715.119 96.8149 715.025 96.9241 714.942 97.0852C714.923 97.1237 714.897 97.1829 714.878 97.2236C714.75 97.5064 714.844 97.8321 715.091 97.9544C715.339 98.0773 715.647 97.9476 715.78 97.6643C715.78 97.6639 715.781 97.6636 715.781 97.6632C715.781 97.6628 715.781 97.6624 715.781 97.6621C715.8 97.6219 715.827 97.5691 715.843 97.5313C715.914 97.3644 715.937 97.2213 715.987 97.0599C716.119 96.7181 716.192 96.3595 716.374 96.136C716.424 96.0749 716.505 96.0513 716.589 96.0281L716.702 95.8171C717.861 96.2752 719.158 96.3981 720.454 96.0951C720.75 96.026 721.035 95.9366 721.311 95.8292C721.343 95.8873 721.402 95.9989 721.418 96.027C721.503 96.0557 721.596 96.0705 721.673 96.1863C721.809 96.4258 721.902 96.709 722.015 97.0511C722.065 97.2126 722.089 97.3556 722.16 97.5225C722.176 97.5606 722.203 97.6141 722.222 97.6544C722.355 97.9387 722.664 98.0688 722.913 97.9456C723.159 97.8233 723.253 97.4976 723.125 97.2148C723.106 97.1741 723.08 97.1149 723.06 97.0764C722.977 96.9154 722.883 96.8072 722.792 96.6665C722.603 96.362 722.446 96.1089 722.349 95.8501C722.309 95.7166 722.356 95.6336 722.387 95.5468C722.369 95.5245 722.328 95.3984 722.304 95.3391C723.686 94.4992 724.705 93.1583 725.183 91.6097C725.248 91.6202 725.36 91.6406 725.397 91.6482C725.472 91.5972 725.541 91.5306 725.676 91.5416C725.943 91.5813 726.217 91.6833 726.547 91.8053C726.701 91.8659 726.824 91.9362 726.995 91.9833C727.031 91.9933 727.083 92.0026 727.124 92.0119C727.128 92.0127 727.131 92.0144 727.134 92.0152C727.136 92.0157 727.139 92.0158 727.141 92.0163C727.438 92.0819 727.725 91.9151 727.786 91.6405C727.847 91.366 727.658 91.0873 727.363 91.0141C727.321 91.0041 727.26 90.9871 727.218 90.979C727.044 90.9451 726.903 90.9535 726.739 90.9394C726.39 90.9018 726.101 90.8711 725.844 90.7878C725.739 90.7459 725.664 90.6176 725.628 90.5647L725.427 90.5043C725.531 89.7253 725.503 88.9145 725.322 88.1033C725.139 87.2846 724.817 86.5358 724.386 85.876C724.438 85.8276 724.536 85.7385 724.563 85.7123C724.571 85.62 724.564 85.5233 724.657 85.4211C724.854 85.2312 725.101 85.0737 725.4 84.8838C725.542 84.7979 725.673 84.7425 725.815 84.6343C725.847 84.6099 725.891 84.5711 725.925 84.5431C726.164 84.3464 726.22 84.007 726.048 83.7849C725.876 83.5629 725.542 83.542 725.303 83.7388C725.269 83.7666 725.222 83.8029 725.192 83.83C725.058 83.9488 724.975 84.0661 724.862 84.1893C724.616 84.4469 724.412 84.6618 724.189 84.8167C724.092 84.8748 723.95 84.8547 723.886 84.8508L723.696 84.9904C722.613 83.8208 721.138 83.0731 719.55 82.9279C719.546 82.8593 719.54 82.7355 719.538 82.6982C719.473 82.6341 719.395 82.5795 719.375 82.4411C719.353 82.1646 719.39 81.8671 719.432 81.5082C719.455 81.3405 719.493 81.2012 719.5 81.0192C719.501 80.9778 719.499 80.9178 719.499 80.873C719.499 80.5575 719.275 80.3016 718.999 80.3017H718.999ZM718.374 84.2904L718.226 86.988L718.215 86.9935C718.205 87.2349 718.012 87.4276 717.776 87.4276C717.679 87.4276 717.589 87.3955 717.516 87.3408L717.512 87.343L715.364 85.7749C716.024 85.1064 716.869 84.6124 717.842 84.3849C718.019 84.3433 718.197 84.3125 718.374 84.2904ZM719.626 84.2904C720.762 84.4343 721.813 84.9641 722.618 85.776L720.484 87.3342L720.476 87.3309C720.287 87.4733 720.02 87.438 719.872 87.2474C719.812 87.1693 719.78 87.0774 719.776 86.9847L719.774 86.9836L719.626 84.2904ZM714.585 86.7825L716.546 88.589L716.544 88.6C716.721 88.7585 716.747 89.0335 716.6 89.2241C716.539 89.3022 716.458 89.3546 716.371 89.3791L716.369 89.3879L713.855 90.1351C713.727 88.9302 714.003 87.759 714.585 86.7825ZM723.4 86.7836C723.692 87.27 723.912 87.8133 724.044 88.4022C724.173 88.9841 724.206 89.5649 724.152 90.1263L721.626 89.3769L721.623 89.3659C721.397 89.3022 721.258 89.0652 721.311 88.8275C721.332 88.7301 721.383 88.6477 721.451 88.5868L721.45 88.5813L723.4 86.7836H723.4ZM718.597 88.7286H719.401L719.9 89.3714L719.721 90.1735L718.999 90.5307L718.276 90.1724L718.097 89.3703L718.597 88.7286ZM721.173 90.9284C721.207 90.9267 721.241 90.9298 721.275 90.9361L721.279 90.9306L723.879 91.3833C723.499 92.4844 722.77 93.4383 721.797 94.0766L720.788 91.5658L720.791 91.5614C720.698 91.3395 720.791 91.0793 721.005 90.9735C721.059 90.9464 721.116 90.9314 721.173 90.9284H721.173ZM716.806 90.9394C717.004 90.9423 717.182 91.0841 717.228 91.2921C717.25 91.3895 717.239 91.486 717.204 91.5712L717.211 91.5811L716.212 94.0667C715.278 93.4496 714.535 92.5257 714.137 91.3921L716.715 90.9416L716.719 90.9471C716.748 90.9417 716.777 90.939 716.806 90.9394V90.9394ZM718.983 92.0284C719.053 92.0257 719.123 92.0404 719.189 92.0734C719.277 92.1168 719.344 92.185 719.387 92.2668H719.396L720.667 94.6315C720.502 94.6884 720.333 94.7371 720.159 94.7776C719.187 95.0049 718.219 94.936 717.341 94.6282L718.609 92.2679H718.611C718.687 92.1215 718.831 92.0341 718.983 92.0284Z" fill="white" stroke="white" stroke-width="0.25"/>
<path d="M744.06 98L740.66 93.32V98H737.24V83.2H740.66V91.38L744.04 86.84H748.26L743.62 92.44L748.3 98H744.06ZM751.663 90.16C750.41 89.4933 749.783 88.4467 749.783 87.02C749.783 86.3 749.97 85.6467 750.343 85.06C750.717 84.46 751.283 83.9867 752.043 83.64C752.803 83.28 753.737 83.1 754.843 83.1C755.95 83.1 756.877 83.28 757.623 83.64C758.383 83.9867 758.95 84.46 759.323 85.06C759.697 85.6467 759.883 86.3 759.883 87.02C759.883 87.74 759.71 88.3667 759.363 88.9C759.03 89.4333 758.577 89.8533 758.003 90.16C758.723 90.5067 759.277 90.9867 759.663 91.6C760.05 92.2 760.243 92.9067 760.243 93.72C760.243 94.6667 760.003 95.4867 759.523 96.18C759.043 96.86 758.39 97.38 757.563 97.74C756.75 98.1 755.843 98.28 754.843 98.28C753.843 98.28 752.93 98.1 752.103 97.74C751.29 97.38 750.643 96.86 750.163 96.18C749.683 95.4867 749.443 94.6667 749.443 93.72C749.443 92.8933 749.637 92.18 750.023 91.58C750.41 90.9667 750.957 90.4933 751.663 90.16ZM756.563 87.54C756.563 86.9933 756.403 86.5733 756.083 86.28C755.777 85.9733 755.363 85.82 754.843 85.82C754.323 85.82 753.903 85.9733 753.583 86.28C753.277 86.5867 753.123 87.0133 753.123 87.56C753.123 88.08 753.283 88.4933 753.603 88.8C753.923 89.0933 754.337 89.24 754.843 89.24C755.35 89.24 755.763 89.0867 756.083 88.78C756.403 88.4733 756.563 88.06 756.563 87.54ZM754.843 91.64C754.217 91.64 753.71 91.8133 753.323 92.16C752.937 92.4933 752.743 92.96 752.743 93.56C752.743 94.12 752.93 94.58 753.303 94.94C753.69 95.3 754.203 95.48 754.843 95.48C755.483 95.48 755.983 95.3 756.343 94.94C756.717 94.58 756.903 94.12 756.903 93.56C756.903 92.9733 756.71 92.5067 756.323 92.16C755.95 91.8133 755.457 91.64 754.843 91.64ZM767.112 98.16C766.139 98.16 765.272 97.9933 764.512 97.66C763.752 97.3267 763.152 96.8733 762.712 96.3C762.272 95.7133 762.025 95.06 761.972 94.34H765.352C765.392 94.7267 765.572 95.04 765.892 95.28C766.212 95.52 766.605 95.64 767.072 95.64C767.499 95.64 767.825 95.56 768.052 95.4C768.292 95.2267 768.412 95.0067 768.412 94.74C768.412 94.42 768.245 94.1867 767.912 94.04C767.579 93.88 767.039 93.7067 766.292 93.52C765.492 93.3333 764.825 93.14 764.292 92.94C763.759 92.7267 763.299 92.4 762.912 91.96C762.525 91.5067 762.332 90.9 762.332 90.14C762.332 89.5 762.505 88.92 762.852 88.4C763.212 87.8667 763.732 87.4467 764.412 87.14C765.105 86.8333 765.925 86.68 766.872 86.68C768.272 86.68 769.372 87.0267 770.172 87.72C770.985 88.4133 771.452 89.3333 771.572 90.48H768.412C768.359 90.0933 768.185 89.7867 767.892 89.56C767.612 89.3333 767.239 89.22 766.772 89.22C766.372 89.22 766.065 89.3 765.852 89.46C765.639 89.6067 765.532 89.8133 765.532 90.08C765.532 90.4 765.699 90.64 766.032 90.8C766.379 90.96 766.912 91.12 767.632 91.28C768.459 91.4933 769.132 91.7067 769.652 91.92C770.172 92.12 770.625 92.4533 771.012 92.92C771.412 93.3733 771.619 93.9867 771.632 94.76C771.632 95.4133 771.445 96 771.072 96.52C770.712 97.0267 770.185 97.4267 769.492 97.72C768.812 98.0133 768.019 98.16 767.112 98.16ZM777.283 92.42C777.283 91.26 777.516 90.2467 777.983 89.38C778.463 88.5133 779.123 87.8467 779.963 87.38C780.816 86.9133 781.789 86.68 782.883 86.68C784.283 86.68 785.449 87.0467 786.383 87.78C787.329 88.5133 787.949 89.5467 788.243 90.88H784.603C784.296 90.0267 783.703 89.6 782.823 89.6C782.196 89.6 781.696 89.8467 781.323 90.34C780.949 90.82 780.763 91.5133 780.763 92.42C780.763 93.3267 780.949 94.0267 781.323 94.52C781.696 95 782.196 95.24 782.823 95.24C783.703 95.24 784.296 94.8133 784.603 93.96H788.243C787.949 95.2667 787.329 96.2933 786.383 97.04C785.436 97.7867 784.269 98.16 782.883 98.16C781.789 98.16 780.816 97.9267 779.963 97.46C779.123 96.9933 778.463 96.3267 777.983 95.46C777.516 94.5933 777.283 93.58 777.283 92.42ZM793.492 83.2V98H790.072V83.2H793.492ZM806.99 86.84V98H803.57V96.48C803.224 96.9733 802.75 97.3733 802.15 97.68C801.564 97.9733 800.91 98.12 800.19 98.12C799.337 98.12 798.584 97.9333 797.93 97.56C797.277 97.1733 796.77 96.62 796.41 95.9C796.05 95.18 795.87 94.3333 795.87 93.36V86.84H799.27V92.9C799.27 93.6467 799.464 94.2267 799.85 94.64C800.237 95.0533 800.757 95.26 801.41 95.26C802.077 95.26 802.604 95.0533 802.99 94.64C803.377 94.2267 803.57 93.6467 803.57 92.9V86.84H806.99ZM813.987 98.16C813.014 98.16 812.147 97.9933 811.387 97.66C810.627 97.3267 810.027 96.8733 809.587 96.3C809.147 95.7133 808.9 95.06 808.847 94.34H812.227C812.267 94.7267 812.447 95.04 812.767 95.28C813.087 95.52 813.48 95.64 813.947 95.64C814.374 95.64 814.7 95.56 814.927 95.4C815.167 95.2267 815.287 95.0067 815.287 94.74C815.287 94.42 815.12 94.1867 814.787 94.04C814.454 93.88 813.914 93.7067 813.167 93.52C812.367 93.3333 811.7 93.14 811.167 92.94C810.634 92.7267 810.174 92.4 809.787 91.96C809.4 91.5067 809.207 90.9 809.207 90.14C809.207 89.5 809.38 88.92 809.727 88.4C810.087 87.8667 810.607 87.4467 811.287 87.14C811.98 86.8333 812.8 86.68 813.747 86.68C815.147 86.68 816.247 87.0267 817.047 87.72C817.86 88.4133 818.327 89.3333 818.447 90.48H815.287C815.234 90.0933 815.06 89.7867 814.767 89.56C814.487 89.3333 814.114 89.22 813.647 89.22C813.247 89.22 812.94 89.3 812.727 89.46C812.514 89.6067 812.407 89.8133 812.407 90.08C812.407 90.4 812.574 90.64 812.907 90.8C813.254 90.96 813.787 91.12 814.507 91.28C815.334 91.4933 816.007 91.7067 816.527 91.92C817.047 92.12 817.5 92.4533 817.887 92.92C818.287 93.3733 818.494 93.9867 818.507 94.76C818.507 95.4133 818.32 96 817.947 96.52C817.587 97.0267 817.06 97.4267 816.367 97.72C815.687 98.0133 814.894 98.16 813.987 98.16ZM826.819 95.1V98H825.079C823.839 98 822.873 97.7 822.179 97.1C821.486 96.4867 821.139 95.4933 821.139 94.12V89.68H819.779V86.84H821.139V84.12H824.559V86.84H826.799V89.68H824.559V94.16C824.559 94.4933 824.639 94.7333 824.799 94.88C824.959 95.0267 825.226 95.1 825.599 95.1H826.819ZM839.244 92.24C839.244 92.56 839.224 92.8933 839.184 93.24H831.444C831.498 93.9333 831.718 94.4667 832.104 94.84C832.504 95.2 832.991 95.38 833.564 95.38C834.418 95.38 835.011 95.02 835.344 94.3H838.984C838.798 95.0333 838.458 95.6933 837.964 96.28C837.484 96.8667 836.878 97.3267 836.144 97.66C835.411 97.9933 834.591 98.16 833.684 98.16C832.591 98.16 831.618 97.9267 830.764 97.46C829.911 96.9933 829.244 96.3267 828.764 95.46C828.284 94.5933 828.044 93.58 828.044 92.42C828.044 91.26 828.278 90.2467 828.744 89.38C829.224 88.5133 829.891 87.8467 830.744 87.38C831.598 86.9133 832.578 86.68 833.684 86.68C834.764 86.68 835.724 86.9067 836.564 87.36C837.404 87.8133 838.058 88.46 838.524 89.3C839.004 90.14 839.244 91.12 839.244 92.24ZM835.744 91.34C835.744 90.7533 835.544 90.2867 835.144 89.94C834.744 89.5933 834.244 89.42 833.644 89.42C833.071 89.42 832.584 89.5867 832.184 89.92C831.798 90.2533 831.558 90.7267 831.464 91.34H835.744ZM844.469 88.7C844.869 88.0867 845.369 87.6067 845.969 87.26C846.569 86.9 847.235 86.72 847.969 86.72V90.34H847.029C846.175 90.34 845.535 90.5267 845.109 90.9C844.682 91.26 844.469 91.9 844.469 92.82V98H841.049V86.84H844.469V88.7Z" fill="#33313B"/>
<rect x="375.5" y="190.5" width="773" height="168" stroke="black" stroke-width="3" stroke-dasharray="10 8"/>
<rect x="689.5" y="158.5" width="179" height="60" rx="2.5" fill="#DFF3FF" stroke="#33313B" stroke-width="3" stroke-dasharray="10 8"/>
<path d="M757.2 196.16C756.227 196.16 755.36 195.993 754.6 195.66C753.84 195.327 753.24 194.873 752.8 194.3C752.36 193.713 752.113 193.06 752.06 192.34H755.44C755.48 192.727 755.66 193.04 755.98 193.28C756.3 193.52 756.693 193.64 757.16 193.64C757.587 193.64 757.913 193.56 758.14 193.4C758.38 193.227 758.5 193.007 758.5 192.74C758.5 192.42 758.333 192.187 758 192.04C757.667 191.88 757.127 191.707 756.38 191.52C755.58 191.333 754.913 191.14 754.38 190.94C753.847 190.727 753.387 190.4 753 189.96C752.613 189.507 752.42 188.9 752.42 188.14C752.42 187.5 752.593 186.92 752.94 186.4C753.3 185.867 753.82 185.447 754.5 185.14C755.193 184.833 756.013 184.68 756.96 184.68C758.36 184.68 759.46 185.027 760.26 185.72C761.073 186.413 761.54 187.333 761.66 188.48H758.5C758.447 188.093 758.273 187.787 757.98 187.56C757.7 187.333 757.327 187.22 756.86 187.22C756.46 187.22 756.153 187.3 755.94 187.46C755.727 187.607 755.62 187.813 755.62 188.08C755.62 188.4 755.787 188.64 756.12 188.8C756.467 188.96 757 189.12 757.72 189.28C758.547 189.493 759.22 189.707 759.74 189.92C760.26 190.12 760.713 190.453 761.1 190.92C761.5 191.373 761.707 191.987 761.72 192.76C761.72 193.413 761.533 194 761.16 194.52C760.8 195.027 760.273 195.427 759.58 195.72C758.9 196.013 758.107 196.16 757.2 196.16ZM763.592 185.52C763.646 184.093 764.112 182.993 764.992 182.22C765.872 181.447 767.066 181.06 768.572 181.06C769.572 181.06 770.426 181.233 771.132 181.58C771.852 181.927 772.392 182.4 772.752 183C773.126 183.6 773.312 184.273 773.312 185.02C773.312 185.9 773.092 186.62 772.652 187.18C772.212 187.727 771.699 188.1 771.112 188.3V188.38C771.872 188.633 772.472 189.053 772.912 189.64C773.352 190.227 773.572 190.98 773.572 191.9C773.572 192.727 773.379 193.46 772.992 194.1C772.619 194.727 772.066 195.22 771.332 195.58C770.612 195.94 769.752 196.12 768.752 196.12C767.152 196.12 765.872 195.727 764.912 194.94C763.966 194.153 763.466 192.967 763.412 191.38H766.732C766.746 191.967 766.912 192.433 767.232 192.78C767.552 193.113 768.019 193.28 768.632 193.28C769.152 193.28 769.552 193.133 769.832 192.84C770.126 192.533 770.272 192.133 770.272 191.64C770.272 191 770.066 190.54 769.652 190.26C769.252 189.967 768.606 189.82 767.712 189.82H767.072V187.04H767.712C768.392 187.04 768.939 186.927 769.352 186.7C769.779 186.46 769.992 186.04 769.992 185.44C769.992 184.96 769.859 184.587 769.592 184.32C769.326 184.053 768.959 183.92 768.492 183.92C767.986 183.92 767.606 184.073 767.352 184.38C767.112 184.687 766.972 185.067 766.932 185.52H763.592ZM780.162 184.68C780.948 184.68 781.635 184.84 782.222 185.16C782.822 185.48 783.282 185.9 783.602 186.42V184.84H787.022V195.98C787.022 197.007 786.815 197.933 786.402 198.76C786.002 199.6 785.382 200.267 784.542 200.76C783.715 201.253 782.682 201.5 781.442 201.5C779.788 201.5 778.448 201.107 777.422 200.32C776.395 199.547 775.808 198.493 775.662 197.16H779.042C779.148 197.587 779.402 197.92 779.802 198.16C780.202 198.413 780.695 198.54 781.282 198.54C781.988 198.54 782.548 198.333 782.962 197.92C783.388 197.52 783.602 196.873 783.602 195.98V194.4C783.268 194.92 782.808 195.347 782.222 195.68C781.635 196 780.948 196.16 780.162 196.16C779.242 196.16 778.408 195.927 777.662 195.46C776.915 194.98 776.322 194.307 775.882 193.44C775.455 192.56 775.242 191.547 775.242 190.4C775.242 189.253 775.455 188.247 775.882 187.38C776.322 186.513 776.915 185.847 777.662 185.38C778.408 184.913 779.242 184.68 780.162 184.68ZM783.602 190.42C783.602 189.567 783.362 188.893 782.882 188.4C782.415 187.907 781.842 187.66 781.162 187.66C780.482 187.66 779.902 187.907 779.422 188.4C778.955 188.88 778.722 189.547 778.722 190.4C778.722 191.253 778.955 191.933 779.422 192.44C779.902 192.933 780.482 193.18 781.162 193.18C781.842 193.18 782.415 192.933 782.882 192.44C783.362 191.947 783.602 191.273 783.602 190.42ZM805.516 184.84L802.496 196H798.716L796.956 188.76L795.136 196H791.376L788.336 184.84H791.756L793.336 192.82L795.216 184.84H798.836L800.736 192.78L802.296 184.84H805.516Z" fill="#33313B"/>
<rect x="576" y="238" width="161" height="90" rx="4" fill="#3C86AD"/>
<path d="M610.476 290.14C609.45 290.14 608.53 289.973 607.716 289.64C606.903 289.307 606.25 288.813 605.756 288.16C605.276 287.507 605.023 286.72 604.996 285.8H608.636C608.69 286.32 608.87 286.72 609.176 287C609.483 287.267 609.883 287.4 610.376 287.4C610.883 287.4 611.283 287.287 611.576 287.06C611.87 286.82 612.016 286.493 612.016 286.08C612.016 285.733 611.896 285.447 611.656 285.22C611.43 284.993 611.143 284.807 610.796 284.66C610.463 284.513 609.983 284.347 609.356 284.16C608.45 283.88 607.71 283.6 607.136 283.32C606.563 283.04 606.07 282.627 605.656 282.08C605.243 281.533 605.036 280.82 605.036 279.94C605.036 278.633 605.51 277.613 606.456 276.88C607.403 276.133 608.636 275.76 610.156 275.76C611.703 275.76 612.95 276.133 613.896 276.88C614.843 277.613 615.35 278.64 615.416 279.96H611.716C611.69 279.507 611.523 279.153 611.216 278.9C610.91 278.633 610.516 278.5 610.036 278.5C609.623 278.5 609.29 278.613 609.036 278.84C608.783 279.053 608.656 279.367 608.656 279.78C608.656 280.233 608.87 280.587 609.296 280.84C609.723 281.093 610.39 281.367 611.296 281.66C612.203 281.967 612.936 282.26 613.496 282.54C614.07 282.82 614.563 283.227 614.976 283.76C615.39 284.293 615.596 284.98 615.596 285.82C615.596 286.62 615.39 287.347 614.976 288C614.576 288.653 613.99 289.173 613.216 289.56C612.443 289.947 611.53 290.14 610.476 290.14ZM617.481 279.52C617.534 278.093 618.001 276.993 618.881 276.22C619.761 275.447 620.954 275.06 622.461 275.06C623.461 275.06 624.314 275.233 625.021 275.58C625.741 275.927 626.281 276.4 626.641 277C627.014 277.6 627.201 278.273 627.201 279.02C627.201 279.9 626.981 280.62 626.541 281.18C626.101 281.727 625.588 282.1 625.001 282.3V282.38C625.761 282.633 626.361 283.053 626.801 283.64C627.241 284.227 627.461 284.98 627.461 285.9C627.461 286.727 627.268 287.46 626.881 288.1C626.508 288.727 625.954 289.22 625.221 289.58C624.501 289.94 623.641 290.12 622.641 290.12C621.041 290.12 619.761 289.727 618.801 288.94C617.854 288.153 617.354 286.967 617.301 285.38H620.621C620.634 285.967 620.801 286.433 621.121 286.78C621.441 287.113 621.908 287.28 622.521 287.28C623.041 287.28 623.441 287.133 623.721 286.84C624.014 286.533 624.161 286.133 624.161 285.64C624.161 285 623.954 284.54 623.541 284.26C623.141 283.967 622.494 283.82 621.601 283.82H620.961V281.04H621.601C622.281 281.04 622.828 280.927 623.241 280.7C623.668 280.46 623.881 280.04 623.881 279.44C623.881 278.96 623.748 278.587 623.481 278.32C623.214 278.053 622.848 277.92 622.381 277.92C621.874 277.92 621.494 278.073 621.241 278.38C621.001 278.687 620.861 279.067 620.821 279.52H617.481ZM639.129 290.14C638.102 290.14 637.182 289.973 636.369 289.64C635.555 289.307 634.902 288.813 634.409 288.16C633.929 287.507 633.675 286.72 633.649 285.8H637.289C637.342 286.32 637.522 286.72 637.829 287C638.135 287.267 638.535 287.4 639.029 287.4C639.535 287.4 639.935 287.287 640.229 287.06C640.522 286.82 640.669 286.493 640.669 286.08C640.669 285.733 640.549 285.447 640.309 285.22C640.082 284.993 639.795 284.807 639.449 284.66C639.115 284.513 638.635 284.347 638.009 284.16C637.102 283.88 636.362 283.6 635.789 283.32C635.215 283.04 634.722 282.627 634.309 282.08C633.895 281.533 633.689 280.82 633.689 279.94C633.689 278.633 634.162 277.613 635.109 276.88C636.055 276.133 637.289 275.76 638.809 275.76C640.355 275.76 641.602 276.133 642.549 276.88C643.495 277.613 644.002 278.64 644.069 279.96H640.369C640.342 279.507 640.175 279.153 639.869 278.9C639.562 278.633 639.169 278.5 638.689 278.5C638.275 278.5 637.942 278.613 637.689 278.84C637.435 279.053 637.309 279.367 637.309 279.78C637.309 280.233 637.522 280.587 637.949 280.84C638.375 281.093 639.042 281.367 639.949 281.66C640.855 281.967 641.589 282.26 642.149 282.54C642.722 282.82 643.215 283.227 643.629 283.76C644.042 284.293 644.249 284.98 644.249 285.82C644.249 286.62 644.042 287.347 643.629 288C643.229 288.653 642.642 289.173 641.869 289.56C641.095 289.947 640.182 290.14 639.129 290.14ZM656.873 284.24C656.873 284.56 656.853 284.893 656.813 285.24H649.073C649.127 285.933 649.347 286.467 649.733 286.84C650.133 287.2 650.62 287.38 651.193 287.38C652.047 287.38 652.64 287.02 652.973 286.3H656.613C656.427 287.033 656.087 287.693 655.593 288.28C655.113 288.867 654.507 289.327 653.773 289.66C653.04 289.993 652.22 290.16 651.313 290.16C650.22 290.16 649.247 289.927 648.393 289.46C647.54 288.993 646.873 288.327 646.393 287.46C645.913 286.593 645.673 285.58 645.673 284.42C645.673 283.26 645.907 282.247 646.373 281.38C646.853 280.513 647.52 279.847 648.373 279.38C649.227 278.913 650.207 278.68 651.313 278.68C652.393 278.68 653.353 278.907 654.193 279.36C655.033 279.813 655.687 280.46 656.153 281.3C656.633 282.14 656.873 283.12 656.873 284.24ZM653.373 283.34C653.373 282.753 653.173 282.287 652.773 281.94C652.373 281.593 651.873 281.42 651.273 281.42C650.7 281.42 650.213 281.587 649.813 281.92C649.427 282.253 649.187 282.727 649.093 283.34H653.373ZM662.098 280.7C662.498 280.087 662.998 279.607 663.598 279.26C664.198 278.9 664.864 278.72 665.598 278.72V282.34H664.658C663.804 282.34 663.164 282.527 662.738 282.9C662.311 283.26 662.098 283.9 662.098 284.82V290H658.678V278.84H662.098V280.7ZM672.252 286.8L674.672 278.84H678.312L674.352 290H670.132L666.172 278.84H669.832L672.252 286.8ZM681.472 277.68C680.872 277.68 680.378 277.507 679.992 277.16C679.618 276.8 679.432 276.36 679.432 275.84C679.432 275.307 679.618 274.867 679.992 274.52C680.378 274.16 680.872 273.98 681.472 273.98C682.058 273.98 682.538 274.16 682.912 274.52C683.298 274.867 683.492 275.307 683.492 275.84C683.492 276.36 683.298 276.8 682.912 277.16C682.538 277.507 682.058 277.68 681.472 277.68ZM683.172 278.84V290H679.752V278.84H683.172ZM684.97 284.42C684.97 283.26 685.203 282.247 685.67 281.38C686.15 280.513 686.81 279.847 687.65 279.38C688.503 278.913 689.477 278.68 690.57 278.68C691.97 278.68 693.137 279.047 694.07 279.78C695.017 280.513 695.637 281.547 695.93 282.88H692.29C691.983 282.027 691.39 281.6 690.51 281.6C689.883 281.6 689.383 281.847 689.01 282.34C688.637 282.82 688.45 283.513 688.45 284.42C688.45 285.327 688.637 286.027 689.01 286.52C689.383 287 689.883 287.24 690.51 287.24C691.39 287.24 691.983 286.813 692.29 285.96H695.93C695.637 287.267 695.017 288.293 694.07 289.04C693.123 289.787 691.957 290.16 690.57 290.16C689.477 290.16 688.503 289.927 687.65 289.46C686.81 288.993 686.15 288.327 685.67 287.46C685.203 286.593 684.97 285.58 684.97 284.42ZM708.28 284.24C708.28 284.56 708.26 284.893 708.22 285.24H700.48C700.533 285.933 700.753 286.467 701.14 286.84C701.54 287.2 702.026 287.38 702.6 287.38C703.453 287.38 704.046 287.02 704.38 286.3H708.02C707.833 287.033 707.493 287.693 707 288.28C706.52 288.867 705.913 289.327 705.18 289.66C704.446 289.993 703.626 290.16 702.72 290.16C701.626 290.16 700.653 289.927 699.8 289.46C698.946 288.993 698.28 288.327 697.8 287.46C697.32 286.593 697.08 285.58 697.08 284.42C697.08 283.26 697.313 282.247 697.78 281.38C698.26 280.513 698.926 279.847 699.78 279.38C700.633 278.913 701.613 278.68 702.72 278.68C703.8 278.68 704.76 278.907 705.6 279.36C706.44 279.813 707.093 280.46 707.56 281.3C708.04 282.14 708.28 283.12 708.28 284.24ZM704.78 283.34C704.78 282.753 704.58 282.287 704.18 281.94C703.78 281.593 703.28 281.42 702.68 281.42C702.106 281.42 701.62 281.587 701.22 281.92C700.833 282.253 700.593 282.727 700.5 283.34H704.78Z" fill="white"/>
<circle cx="657" cy="328" r="16" fill="white"/>
<circle cx="657" cy="328" r="8" fill="#33313B"/>
<path d="M719 283L729 288.774V277.226L719 283ZM824 282H728V284H824V282Z" fill="#33313B"/>
<rect x="824" y="238" width="161" height="90" rx="4" fill="#3C86AD"/>
<path d="M886.494 290.14C885.467 290.14 884.547 289.973 883.734 289.64C882.92 289.307 882.267 288.813 881.774 288.16C881.294 287.507 881.04 286.72 881.014 285.8H884.654C884.707 286.32 884.887 286.72 885.194 287C885.5 287.267 885.9 287.4 886.394 287.4C886.9 287.4 887.3 287.287 887.594 287.06C887.887 286.82 888.034 286.493 888.034 286.08C888.034 285.733 887.914 285.447 887.674 285.22C887.447 284.993 887.16 284.807 886.814 284.66C886.48 284.513 886 284.347 885.374 284.16C884.467 283.88 883.727 283.6 883.154 283.32C882.58 283.04 882.087 282.627 881.674 282.08C881.26 281.533 881.054 280.82 881.054 279.94C881.054 278.633 881.527 277.613 882.474 276.88C883.42 276.133 884.654 275.76 886.174 275.76C887.72 275.76 888.967 276.133 889.914 276.88C890.86 277.613 891.367 278.64 891.434 279.96H887.734C887.707 279.507 887.54 279.153 887.234 278.9C886.927 278.633 886.534 278.5 886.054 278.5C885.64 278.5 885.307 278.613 885.054 278.84C884.8 279.053 884.674 279.367 884.674 279.78C884.674 280.233 884.887 280.587 885.314 280.84C885.74 281.093 886.407 281.367 887.314 281.66C888.22 281.967 888.954 282.26 889.514 282.54C890.087 282.82 890.58 283.227 890.994 283.76C891.407 284.293 891.614 284.98 891.614 285.82C891.614 286.62 891.407 287.347 890.994 288C890.594 288.653 890.007 289.173 889.234 289.56C888.46 289.947 887.547 290.14 886.494 290.14ZM893.499 279.52C893.552 278.093 894.019 276.993 894.899 276.22C895.779 275.447 896.972 275.06 898.479 275.06C899.479 275.06 900.332 275.233 901.039 275.58C901.759 275.927 902.299 276.4 902.659 277C903.032 277.6 903.219 278.273 903.219 279.02C903.219 279.9 902.999 280.62 902.559 281.18C902.119 281.727 901.605 282.1 901.019 282.3V282.38C901.779 282.633 902.379 283.053 902.819 283.64C903.259 284.227 903.479 284.98 903.479 285.9C903.479 286.727 903.285 287.46 902.899 288.1C902.525 288.727 901.972 289.22 901.239 289.58C900.519 289.94 899.659 290.12 898.659 290.12C897.059 290.12 895.779 289.727 894.819 288.94C893.872 288.153 893.372 286.967 893.319 285.38H896.639C896.652 285.967 896.819 286.433 897.139 286.78C897.459 287.113 897.925 287.28 898.539 287.28C899.059 287.28 899.459 287.133 899.739 286.84C900.032 286.533 900.179 286.133 900.179 285.64C900.179 285 899.972 284.54 899.559 284.26C899.159 283.967 898.512 283.82 897.619 283.82H896.979V281.04H897.619C898.299 281.04 898.845 280.927 899.259 280.7C899.685 280.46 899.899 280.04 899.899 279.44C899.899 278.96 899.765 278.587 899.499 278.32C899.232 278.053 898.865 277.92 898.399 277.92C897.892 277.92 897.512 278.073 897.259 278.38C897.019 278.687 896.879 279.067 896.839 279.52H893.499ZM913.426 275.96V284.36C913.426 285.2 913.633 285.847 914.046 286.3C914.46 286.753 915.066 286.98 915.866 286.98C916.666 286.98 917.28 286.753 917.706 286.3C918.133 285.847 918.346 285.2 918.346 284.36V275.96H921.766V284.34C921.766 285.593 921.5 286.653 920.966 287.52C920.433 288.387 919.713 289.04 918.806 289.48C917.913 289.92 916.913 290.14 915.806 290.14C914.7 290.14 913.706 289.927 912.826 289.5C911.96 289.06 911.273 288.407 910.766 287.54C910.26 286.66 910.006 285.593 910.006 284.34V275.96H913.426ZM927.588 275.96V290H924.168V275.96H927.588Z" fill="white"/>
<circle cx="824" cy="283" r="16" fill="white"/>
<circle cx="824" cy="283" r="8" fill="#33313B"/>
<rect x="375.5" y="602.5" width="773" height="168" stroke="black" stroke-width="3" stroke-dasharray="10 8"/>
<rect x="686.5" y="570.5" width="179" height="60" rx="2.5" fill="#DFF3FF" stroke="#33313B" stroke-width="3" stroke-dasharray="10 8"/>
<path d="M727.181 583.7C727.581 583.087 728.081 582.607 728.681 582.26C729.281 581.9 729.948 581.72 730.681 581.72V585.34H729.741C728.888 585.34 728.248 585.527 727.821 585.9C727.395 586.26 727.181 586.9 727.181 587.82V593H723.761V581.84H727.181V583.7ZM742.836 587.24C742.836 587.56 742.816 587.893 742.776 588.24H735.036C735.09 588.933 735.31 589.467 735.696 589.84C736.096 590.2 736.583 590.38 737.156 590.38C738.01 590.38 738.603 590.02 738.936 589.3H742.576C742.39 590.033 742.05 590.693 741.556 591.28C741.076 591.867 740.47 592.327 739.736 592.66C739.003 592.993 738.183 593.16 737.276 593.16C736.183 593.16 735.21 592.927 734.356 592.46C733.503 591.993 732.836 591.327 732.356 590.46C731.876 589.593 731.636 588.58 731.636 587.42C731.636 586.26 731.87 585.247 732.336 584.38C732.816 583.513 733.483 582.847 734.336 582.38C735.19 581.913 736.17 581.68 737.276 581.68C738.356 581.68 739.316 581.907 740.156 582.36C740.996 582.813 741.65 583.46 742.116 584.3C742.596 585.14 742.836 586.12 742.836 587.24ZM739.336 586.34C739.336 585.753 739.136 585.287 738.736 584.94C738.336 584.593 737.836 584.42 737.236 584.42C736.663 584.42 736.176 584.587 735.776 584.92C735.39 585.253 735.15 585.727 735.056 586.34H739.336ZM748.06 583.42C748.394 582.9 748.854 582.48 749.44 582.16C750.027 581.84 750.714 581.68 751.5 581.68C752.42 581.68 753.254 581.913 754 582.38C754.747 582.847 755.334 583.513 755.76 584.38C756.2 585.247 756.42 586.253 756.42 587.4C756.42 588.547 756.2 589.56 755.76 590.44C755.334 591.307 754.747 591.98 754 592.46C753.254 592.927 752.42 593.16 751.5 593.16C750.727 593.16 750.04 593 749.44 592.68C748.854 592.36 748.394 591.947 748.06 591.44V598.32H744.64V581.84H748.06V583.42ZM752.94 587.4C752.94 586.547 752.7 585.88 752.22 585.4C751.754 584.907 751.174 584.66 750.48 584.66C749.8 584.66 749.22 584.907 748.74 585.4C748.274 585.893 748.04 586.567 748.04 587.42C748.04 588.273 748.274 588.947 748.74 589.44C749.22 589.933 749.8 590.18 750.48 590.18C751.16 590.18 751.74 589.933 752.22 589.44C752.7 588.933 752.94 588.253 752.94 587.4ZM761.635 578.2V593H758.215V578.2H761.635ZM765.833 580.68C765.233 580.68 764.74 580.507 764.353 580.16C763.98 579.8 763.793 579.36 763.793 578.84C763.793 578.307 763.98 577.867 764.353 577.52C764.74 577.16 765.233 576.98 765.833 576.98C766.42 576.98 766.9 577.16 767.273 577.52C767.66 577.867 767.853 578.307 767.853 578.84C767.853 579.36 767.66 579.8 767.273 580.16C766.9 580.507 766.42 580.68 765.833 580.68ZM767.533 581.84V593H764.113V581.84H767.533ZM769.331 587.42C769.331 586.26 769.565 585.247 770.031 584.38C770.511 583.513 771.171 582.847 772.011 582.38C772.865 581.913 773.838 581.68 774.931 581.68C776.331 581.68 777.498 582.047 778.431 582.78C779.378 583.513 779.998 584.547 780.291 585.88H776.651C776.345 585.027 775.751 584.6 774.871 584.6C774.245 584.6 773.745 584.847 773.371 585.34C772.998 585.82 772.811 586.513 772.811 587.42C772.811 588.327 772.998 589.027 773.371 589.52C773.745 590 774.245 590.24 774.871 590.24C775.751 590.24 776.345 589.813 776.651 588.96H780.291C779.998 590.267 779.378 591.293 778.431 592.04C777.485 592.787 776.318 593.16 774.931 593.16C773.838 593.16 772.865 592.927 772.011 592.46C771.171 591.993 770.511 591.327 770.031 590.46C769.565 589.593 769.331 588.58 769.331 587.42ZM781.441 587.4C781.441 586.253 781.654 585.247 782.081 584.38C782.521 583.513 783.114 582.847 783.861 582.38C784.608 581.913 785.441 581.68 786.361 581.68C787.148 581.68 787.834 581.84 788.421 582.16C789.021 582.48 789.481 582.9 789.801 583.42V581.84H793.221V593H789.801V591.42C789.468 591.94 789.001 592.36 788.401 592.68C787.814 593 787.128 593.16 786.341 593.16C785.434 593.16 784.608 592.927 783.861 592.46C783.114 591.98 782.521 591.307 782.081 590.44C781.654 589.56 781.441 588.547 781.441 587.4ZM789.801 587.42C789.801 586.567 789.561 585.893 789.081 585.4C788.614 584.907 788.041 584.66 787.361 584.66C786.681 584.66 786.101 584.907 785.621 585.4C785.154 585.88 784.921 586.547 784.921 587.4C784.921 588.253 785.154 588.933 785.621 589.44C786.101 589.933 786.681 590.18 787.361 590.18C788.041 590.18 788.614 589.933 789.081 589.44C789.561 588.947 789.801 588.273 789.801 587.42ZM801.915 590.1V593H800.175C798.935 593 797.968 592.7 797.275 592.1C796.582 591.487 796.235 590.493 796.235 589.12V584.68H794.875V581.84H796.235V579.12H799.655V581.84H801.895V584.68H799.655V589.16C799.655 589.493 799.735 589.733 799.895 589.88C800.055 590.027 800.322 590.1 800.695 590.1H801.915ZM814.34 587.24C814.34 587.56 814.32 587.893 814.28 588.24H806.54C806.593 588.933 806.813 589.467 807.2 589.84C807.6 590.2 808.087 590.38 808.66 590.38C809.513 590.38 810.107 590.02 810.44 589.3H814.08C813.893 590.033 813.553 590.693 813.06 591.28C812.58 591.867 811.973 592.327 811.24 592.66C810.507 592.993 809.687 593.16 808.78 593.16C807.687 593.16 806.713 592.927 805.86 592.46C805.007 591.993 804.34 591.327 803.86 590.46C803.38 589.593 803.14 588.58 803.14 587.42C803.14 586.26 803.373 585.247 803.84 584.38C804.32 583.513 804.987 582.847 805.84 582.38C806.693 581.913 807.673 581.68 808.78 581.68C809.86 581.68 810.82 581.907 811.66 582.36C812.5 582.813 813.153 583.46 813.62 584.3C814.1 585.14 814.34 586.12 814.34 587.24ZM810.84 586.34C810.84 585.753 810.64 585.287 810.24 584.94C809.84 584.593 809.34 584.42 808.74 584.42C808.167 584.42 807.68 584.587 807.28 584.92C806.893 585.253 806.653 585.727 806.56 586.34H810.84ZM815.464 587.4C815.464 586.253 815.678 585.247 816.104 584.38C816.544 583.513 817.138 582.847 817.884 582.38C818.631 581.913 819.464 581.68 820.384 581.68C821.118 581.68 821.784 581.833 822.384 582.14C822.998 582.447 823.478 582.86 823.824 583.38V578.2H827.244V593H823.824V591.4C823.504 591.933 823.044 592.36 822.444 592.68C821.858 593 821.171 593.16 820.384 593.16C819.464 593.16 818.631 592.927 817.884 592.46C817.138 591.98 816.544 591.307 816.104 590.44C815.678 589.56 815.464 588.547 815.464 587.4ZM823.824 587.42C823.824 586.567 823.584 585.893 823.104 585.4C822.638 584.907 822.064 584.66 821.384 584.66C820.704 584.66 820.124 584.907 819.644 585.4C819.178 585.88 818.944 586.547 818.944 587.4C818.944 588.253 819.178 588.933 819.644 589.44C820.124 589.933 820.704 590.18 821.384 590.18C822.064 590.18 822.638 589.933 823.104 589.44C823.584 588.947 823.824 588.273 823.824 587.42ZM741.26 623.16C740.287 623.16 739.42 622.993 738.66 622.66C737.9 622.327 737.3 621.873 736.86 621.3C736.42 620.713 736.174 620.06 736.12 619.34H739.5C739.54 619.727 739.72 620.04 740.04 620.28C740.36 620.52 740.754 620.64 741.22 620.64C741.647 620.64 741.974 620.56 742.2 620.4C742.44 620.227 742.56 620.007 742.56 619.74C742.56 619.42 742.394 619.187 742.06 619.04C741.727 618.88 741.187 618.707 740.44 618.52C739.64 618.333 738.974 618.14 738.44 617.94C737.907 617.727 737.447 617.4 737.06 616.96C736.674 616.507 736.48 615.9 736.48 615.14C736.48 614.5 736.654 613.92 737 613.4C737.36 612.867 737.88 612.447 738.56 612.14C739.254 611.833 740.074 611.68 741.02 611.68C742.42 611.68 743.52 612.027 744.32 612.72C745.134 613.413 745.6 614.333 745.72 615.48H742.56C742.507 615.093 742.334 614.787 742.04 614.56C741.76 614.333 741.387 614.22 740.92 614.22C740.52 614.22 740.214 614.3 740 614.46C739.787 614.607 739.68 614.813 739.68 615.08C739.68 615.4 739.847 615.64 740.18 615.8C740.527 615.96 741.06 616.12 741.78 616.28C742.607 616.493 743.28 616.707 743.8 616.92C744.32 617.12 744.774 617.453 745.16 617.92C745.56 618.373 745.767 618.987 745.78 619.76C745.78 620.413 745.594 621 745.22 621.52C744.86 622.027 744.334 622.427 743.64 622.72C742.96 623.013 742.167 623.16 741.26 623.16ZM754.093 620.1V623H752.353C751.113 623 750.146 622.7 749.453 622.1C748.759 621.487 748.413 620.493 748.413 619.12V614.68H747.053V611.84H748.413V609.12H751.833V611.84H754.073V614.68H751.833V619.16C751.833 619.493 751.913 619.733 752.073 619.88C752.233 620.027 752.499 620.1 752.873 620.1H754.093ZM761.078 623.16C759.984 623.16 758.998 622.927 758.118 622.46C757.251 621.993 756.564 621.327 756.058 620.46C755.564 619.593 755.318 618.58 755.318 617.42C755.318 616.273 755.571 615.267 756.078 614.4C756.584 613.52 757.278 612.847 758.158 612.38C759.038 611.913 760.024 611.68 761.118 611.68C762.211 611.68 763.198 611.913 764.078 612.38C764.958 612.847 765.651 613.52 766.158 614.4C766.664 615.267 766.918 616.273 766.918 617.42C766.918 618.567 766.658 619.58 766.138 620.46C765.631 621.327 764.931 621.993 764.038 622.46C763.158 622.927 762.171 623.16 761.078 623.16ZM761.078 620.2C761.731 620.2 762.284 619.96 762.738 619.48C763.204 619 763.438 618.313 763.438 617.42C763.438 616.527 763.211 615.84 762.758 615.36C762.318 614.88 761.771 614.64 761.118 614.64C760.451 614.64 759.898 614.88 759.458 615.36C759.018 615.827 758.798 616.513 758.798 617.42C758.798 618.313 759.011 619 759.438 619.48C759.878 619.96 760.424 620.2 761.078 620.2ZM772.152 613.7C772.552 613.087 773.052 612.607 773.652 612.26C774.252 611.9 774.919 611.72 775.652 611.72V615.34H774.712C773.859 615.34 773.219 615.527 772.792 615.9C772.366 616.26 772.152 616.9 772.152 617.82V623H768.732V611.84H772.152V613.7ZM776.607 617.4C776.607 616.253 776.82 615.247 777.247 614.38C777.687 613.513 778.28 612.847 779.027 612.38C779.774 611.913 780.607 611.68 781.527 611.68C782.314 611.68 783 611.84 783.587 612.16C784.187 612.48 784.647 612.9 784.967 613.42V611.84H788.387V623H784.967V621.42C784.634 621.94 784.167 622.36 783.567 622.68C782.98 623 782.294 623.16 781.507 623.16C780.6 623.16 779.774 622.927 779.027 622.46C778.28 621.98 777.687 621.307 777.247 620.44C776.82 619.56 776.607 618.547 776.607 617.4ZM784.967 617.42C784.967 616.567 784.727 615.893 784.247 615.4C783.78 614.907 783.207 614.66 782.527 614.66C781.847 614.66 781.267 614.907 780.787 615.4C780.32 615.88 780.087 616.547 780.087 617.4C780.087 618.253 780.32 618.933 780.787 619.44C781.267 619.933 781.847 620.18 782.527 620.18C783.207 620.18 783.78 619.933 784.247 619.44C784.727 618.947 784.967 618.273 784.967 617.42ZM795.101 611.68C795.888 611.68 796.574 611.84 797.161 612.16C797.761 612.48 798.221 612.9 798.541 613.42V611.84H801.961V622.98C801.961 624.007 801.754 624.933 801.341 625.76C800.941 626.6 800.321 627.267 799.481 627.76C798.654 628.253 797.621 628.5 796.381 628.5C794.728 628.5 793.388 628.107 792.361 627.32C791.334 626.547 790.748 625.493 790.601 624.16H793.981C794.088 624.587 794.341 624.92 794.741 625.16C795.141 625.413 795.634 625.54 796.221 625.54C796.928 625.54 797.488 625.333 797.901 624.92C798.328 624.52 798.541 623.873 798.541 622.98V621.4C798.208 621.92 797.748 622.347 797.161 622.68C796.574 623 795.888 623.16 795.101 623.16C794.181 623.16 793.348 622.927 792.601 622.46C791.854 621.98 791.261 621.307 790.821 620.44C790.394 619.56 790.181 618.547 790.181 617.4C790.181 616.253 790.394 615.247 790.821 614.38C791.261 613.513 791.854 612.847 792.601 612.38C793.348 611.913 794.181 611.68 795.101 611.68ZM798.541 617.42C798.541 616.567 798.301 615.893 797.821 615.4C797.354 614.907 796.781 614.66 796.101 614.66C795.421 614.66 794.841 614.907 794.361 615.4C793.894 615.88 793.661 616.547 793.661 617.4C793.661 618.253 793.894 618.933 794.361 619.44C794.841 619.933 795.421 620.18 796.101 620.18C796.781 620.18 797.354 619.933 797.821 619.44C798.301 618.947 798.541 618.273 798.541 617.42ZM814.955 617.24C814.955 617.56 814.935 617.893 814.895 618.24H807.155C807.209 618.933 807.429 619.467 807.815 619.84C808.215 620.2 808.702 620.38 809.275 620.38C810.129 620.38 810.722 620.02 811.055 619.3H814.695C814.509 620.033 814.169 620.693 813.675 621.28C813.195 621.867 812.589 622.327 811.855 622.66C811.122 622.993 810.302 623.16 809.395 623.16C808.302 623.16 807.329 622.927 806.475 622.46C805.622 621.993 804.955 621.327 804.475 620.46C803.995 619.593 803.755 618.58 803.755 617.42C803.755 616.26 803.989 615.247 804.455 614.38C804.935 613.513 805.602 612.847 806.455 612.38C807.309 611.913 808.289 611.68 809.395 611.68C810.475 611.68 811.435 611.907 812.275 612.36C813.115 612.813 813.769 613.46 814.235 614.3C814.715 615.14 814.955 616.12 814.955 617.24ZM811.455 616.34C811.455 615.753 811.255 615.287 810.855 614.94C810.455 614.593 809.955 614.42 809.355 614.42C808.782 614.42 808.295 614.587 807.895 614.92C807.509 615.253 807.269 615.727 807.175 616.34H811.455Z" fill="#33313B"/>
<path d="M539 677.015C538.63 670.005 519.534 668.114 508.167 668.114C496.799 668.114 477.333 670.026 477.333 677.2V723.635C477.333 730.809 496.717 732.741 508.167 732.741C519.616 732.741 539 730.829 539 723.635V677.2C539 677.2 539 677.035 539 677.015ZM534.889 692.555C534.211 694.322 524.488 697.591 508.167 697.591C500.533 697.786 492.912 696.843 485.556 694.795V699.071C492.949 700.912 500.548 701.796 508.167 701.702C516.389 701.702 528.578 700.715 534.889 697.591V708.218C534.211 709.986 524.488 713.254 508.167 713.254C500.529 713.422 492.908 712.452 485.556 710.376V714.652C492.949 716.493 500.548 717.377 508.167 717.283C516.389 717.283 528.578 716.296 534.889 713.172V723.655C534.169 725.423 524.447 728.691 508.167 728.691C491.887 728.691 482.061 725.341 481.444 723.635V677.282C482.061 675.596 491.722 672.225 508.167 672.225C524.138 672.225 533.779 675.37 534.889 677.097C533.82 678.885 524.179 682.01 508.167 682.01C500.533 682.2 492.913 681.258 485.556 679.214V683.51C492.951 685.339 500.549 686.217 508.167 686.121C516.389 686.121 528.578 685.134 534.889 682.01V692.555Z" fill="black"/>
<path d="M796.333 677.015C795.963 670.005 776.867 668.114 765.5 668.114C754.133 668.114 734.667 670.026 734.667 677.2V723.635C734.667 730.809 754.051 732.741 765.5 732.741C776.949 732.741 796.333 730.829 796.333 723.635V677.2C796.333 677.2 796.333 677.035 796.333 677.015ZM792.222 692.555C791.544 694.322 781.821 697.591 765.5 697.591C757.866 697.786 750.246 696.843 742.889 694.795V699.071C750.282 700.912 757.881 701.796 765.5 701.702C773.722 701.702 785.912 700.715 792.222 697.591V708.218C791.544 709.986 781.821 713.254 765.5 713.254C757.862 713.422 750.241 712.452 742.889 710.376V714.652C750.282 716.493 757.881 717.377 765.5 717.283C773.722 717.283 785.912 716.296 792.222 713.172V723.655C791.503 725.423 781.78 728.691 765.5 728.691C749.22 728.691 739.394 725.341 738.778 723.635V677.282C739.394 675.596 749.056 672.225 765.5 672.225C781.472 672.225 791.112 675.37 792.222 677.097C791.153 678.885 781.513 682.01 765.5 682.01C757.866 682.2 750.246 681.258 742.889 679.214V683.51C750.284 685.339 757.883 686.217 765.5 686.121C773.722 686.121 785.912 685.134 792.222 682.01V692.555Z" fill="black"/>
<path d="M667.667 677.015C667.297 670.005 648.201 668.114 636.833 668.114C625.466 668.114 606 670.026 606 677.2V723.635C606 730.809 625.384 732.741 636.833 732.741C648.283 732.741 667.667 730.829 667.667 723.635V677.2C667.667 677.2 667.667 677.035 667.667 677.015ZM663.556 692.555C662.877 694.322 653.154 697.591 636.833 697.591C629.199 697.786 621.579 696.843 614.222 694.795V699.071C621.616 700.912 629.215 701.796 636.833 701.702C645.056 701.702 657.245 700.715 663.556 697.591V708.218C662.877 709.986 653.154 713.254 636.833 713.254C629.195 713.422 621.575 712.452 614.222 710.376V714.652C621.616 716.493 629.215 717.377 636.833 717.283C645.056 717.283 657.245 716.296 663.556 713.172V723.655C662.836 725.423 653.113 728.691 636.833 728.691C620.553 728.691 610.728 725.341 610.111 723.635V677.282C610.728 675.596 620.389 672.225 636.833 672.225C652.805 672.225 662.446 675.37 663.556 677.097C662.487 678.885 652.846 682.01 636.833 682.01C629.2 682.2 621.58 681.258 614.222 679.214V683.51C621.617 685.339 629.216 686.217 636.833 686.121C645.056 686.121 657.245 685.134 663.556 682.01V692.555Z" fill="black"/>
<path d="M921.356 692.734L921.389 692.647V692.555V682.01V681.204L920.667 681.562C917.588 683.086 913.031 684.106 908.18 684.741C903.341 685.375 898.26 685.621 894.167 685.621V685.621L894.16 685.621C886.716 685.715 879.29 684.874 872.056 683.118V679.869C879.262 681.805 886.711 682.695 894.173 682.51C902.207 682.509 908.655 681.725 913.24 680.712C915.531 680.206 917.367 679.64 918.707 679.08C919.376 678.801 919.932 678.519 920.362 678.241C920.781 677.971 921.125 677.676 921.318 677.353L921.477 677.087L921.31 676.826C921.111 676.517 920.764 676.232 920.343 675.968C919.91 675.697 919.353 675.42 918.681 675.145C917.338 674.593 915.5 674.03 913.209 673.525C908.623 672.514 902.184 671.725 894.167 671.725C885.912 671.725 879.347 672.571 874.757 673.634C872.464 674.166 870.652 674.754 869.365 675.323C868.723 675.608 868.197 675.894 867.805 676.174C867.431 676.441 867.106 676.751 866.975 677.11L866.944 677.193V677.282V723.635V723.722L866.974 723.805C867.106 724.168 867.435 724.481 867.813 724.75C868.21 725.031 868.741 725.318 869.39 725.602C870.69 726.173 872.516 726.76 874.82 727.29C879.43 728.35 885.994 729.191 894.167 729.191C902.338 729.191 908.877 728.371 913.474 727.324C915.771 726.8 917.595 726.217 918.9 725.646C919.552 725.36 920.087 725.072 920.49 724.788C920.878 724.514 921.207 724.201 921.352 723.844L921.389 723.753V723.655V713.172V712.366L920.667 712.724C917.588 714.248 913.031 715.268 908.18 715.903C903.341 716.537 898.26 716.783 894.167 716.783L894.161 716.783C886.715 716.875 879.288 716.027 872.056 714.26V711.034C879.257 713.001 886.706 713.918 894.172 713.754C902.362 713.754 908.908 712.934 913.505 711.886C915.802 711.363 917.624 710.78 918.924 710.208C919.573 709.923 920.105 709.634 920.506 709.349C920.89 709.075 921.217 708.759 921.356 708.397L921.389 708.311V708.218V697.591V696.785L920.667 697.143C917.588 698.667 913.031 699.687 908.18 700.322C903.341 700.956 898.26 701.202 894.167 701.202L894.161 701.202C886.715 701.294 879.288 700.446 872.056 698.679V695.451C879.261 697.391 886.711 698.281 894.173 698.091C902.362 698.09 908.909 697.27 913.505 696.223C915.802 695.7 917.624 695.117 918.924 694.545C919.573 694.259 920.105 693.971 920.506 693.686C920.89 693.412 921.217 693.096 921.356 692.734ZM894.167 668.614C899.831 668.614 907.408 669.086 913.602 670.425C916.702 671.095 919.421 671.975 921.375 673.1C923.335 674.228 924.415 675.534 924.5 677.028V677.028V677.029V677.029V677.029V677.03V677.03V677.03V677.031V677.031V677.031V677.032V677.032V677.032V677.033V677.033V677.033V677.034V677.034V677.034V677.035V677.035V677.035V677.036V677.036V677.036V677.037V677.037V677.037V677.038V677.038V677.039V677.039V677.039V677.04V677.04V677.04V677.041V677.041V677.042V677.042V677.042V677.043V677.043V677.044V677.044V677.044V677.045V677.045V677.046V677.046V677.046V677.047V677.047V677.048V677.048V677.048V677.049V677.049V677.05V677.05V677.051V677.051V677.051V677.052V677.052V677.053V677.053V677.054V677.054V677.054V677.055V677.055V677.056V677.056V677.057V677.057V677.057V677.058V677.058V677.059V677.059V677.06V677.06V677.061V677.061V677.062V677.062V677.062V677.063V677.063V677.064V677.064V677.065V677.065V677.066V677.066V677.067V677.067V677.068V677.068V677.069V677.069V677.069V677.07V677.07V677.071V677.071V677.072V677.072V677.073V677.073V677.074V677.074V677.075V677.075V677.076V677.076V677.077V677.077V677.078V677.078V677.079V677.079V677.08V677.08V677.081V677.081V677.082V677.082V677.083V677.083V677.084V677.084V677.085V677.085V677.086V677.086V677.087V677.087V677.088V677.088V677.089V677.089V677.09V677.09V677.091V677.091V677.092V677.092V677.093V677.093V677.094V677.094V677.095V677.095V677.096V677.096V677.097V677.097V677.098V677.098V677.099V677.099V677.1V677.1V677.101V677.101V677.102V677.103V677.103V677.104V677.104V677.105V677.105V677.106V677.106V677.107V677.107V677.108V677.108V677.109V677.109V677.11V677.11V677.111V677.111V677.112V677.112V677.113V677.113V677.114V677.114V677.115V677.115V677.116V677.116V677.117V677.117V677.118V677.118V677.119V677.119V677.12V677.12V677.121V677.121V677.122V677.122V677.123V677.123V677.124V677.125V677.125V677.126V677.126V677.127V677.127V677.128V677.128V677.129V677.129V677.13V677.13V677.131V677.131V677.132V677.132V677.133V677.133V677.134V677.134V677.134V677.135V677.135V677.136V677.136V677.137V677.137V677.138V677.138V677.139V677.139V677.14V677.14V677.141V677.141V677.142V677.142V677.143V677.143V677.144V677.144V677.145V677.145V677.146V677.146V677.147V677.147V677.147V677.148V677.148V677.149V677.149V677.15V677.15V677.151V677.151V677.152V677.152V677.153V677.153V677.153V677.154V677.154V677.155V677.155V677.156V677.156V677.157V677.157V677.157V677.158V677.158V677.159V677.159V677.16V677.16V677.16V677.161V677.161V677.162V677.162V677.163V677.163V677.163V677.164V677.164V677.165V677.165V677.165V677.166V677.166V677.167V677.167V677.167V677.168V677.168V677.169V677.169V677.169V677.17V677.17V677.171V677.171V677.171V677.172V677.172V677.172V677.173V677.173V677.174V677.174V677.174V677.175V677.175V677.175V677.176V677.176V677.177V677.177V677.177V677.178V677.178V677.178V677.179V677.179V677.179V677.18V677.18V677.18V677.181V677.181V677.181V677.182V677.182V677.182V677.182V677.183V677.183V677.183V677.184V677.184V677.184V677.185V677.185V677.185V677.185V677.186V677.186V677.186V677.187V677.187V677.187V677.187V677.188V677.188V677.188V677.189V677.189V677.189V677.189V677.19V677.19V677.19V677.19V677.19V677.191V677.191V677.191V677.191V677.192V677.192V677.192V677.192V677.193V677.193V677.193V677.193V677.193V677.194V677.194V677.194V677.194V677.194V677.195V677.195V677.195V677.195V677.195V677.195V677.196V677.196V677.196V677.196V677.196V677.196V677.196V677.197V677.197V677.197V677.197V677.197V677.197V677.197V677.198V677.198V677.198V677.198V677.198V677.198V677.198V677.198V677.198V677.198V677.199V677.199V677.199V677.199V677.199V677.199V677.199V677.199V677.199V677.199V677.199V677.199V677.199V677.199V677.199V677.199V677.2V677.2V677.2V723.635C924.5 725.173 923.472 726.508 921.536 727.663C919.608 728.814 916.888 729.713 913.77 730.397C907.541 731.764 899.873 732.241 894.167 732.241C888.461 732.241 880.792 731.759 874.564 730.39C871.445 729.704 868.725 728.804 866.797 727.654C864.861 726.5 863.833 725.167 863.833 723.635V677.2C863.833 675.668 864.865 674.336 866.808 673.184C868.742 672.036 871.47 671.138 874.594 670.455C880.833 669.091 888.502 668.614 894.167 668.614Z" fill="black" stroke="black"/>
<path d="M1053.67 677.015C1053.3 670.005 1034.2 668.114 1022.83 668.114C1011.47 668.114 992 670.026 992 677.2V723.635C992 730.809 1011.38 732.741 1022.83 732.741C1034.28 732.741 1053.67 730.829 1053.67 723.635V677.2C1053.67 677.2 1053.67 677.035 1053.67 677.015ZM1049.56 692.555C1048.88 694.322 1039.15 697.591 1022.83 697.591C1015.2 697.786 1007.58 696.843 1000.22 694.795V699.071C1007.62 700.912 1015.21 701.796 1022.83 701.702C1031.06 701.702 1043.25 700.715 1049.56 697.591V708.218C1048.88 709.986 1039.15 713.254 1022.83 713.254C1015.2 713.422 1007.57 712.452 1000.22 710.376V714.652C1007.62 716.493 1015.21 717.377 1022.83 717.283C1031.06 717.283 1043.25 716.296 1049.56 713.172V723.655C1048.84 725.423 1039.11 728.691 1022.83 728.691C1006.55 728.691 996.728 725.341 996.111 723.635V677.282C996.728 675.596 1006.39 672.225 1022.83 672.225C1038.81 672.225 1048.45 675.37 1049.56 677.097C1048.49 678.885 1038.85 682.01 1022.83 682.01C1015.2 682.2 1007.58 681.258 1000.22 679.214V683.51C1007.62 685.339 1015.22 686.217 1022.83 686.121C1031.06 686.121 1043.25 685.134 1049.56 682.01V692.555Z" fill="black"/>
<path d="M775.5 563L781.274 553H769.726L775.5 563ZM774.5 517V554H776.5V517H774.5Z" fill="black"/>
<rect x="682" y="427" width="198" height="90" rx="4" fill="#3C86AD"/>
<path d="M758.381 476.36H762.861V479H754.961V464.96H758.381V476.36ZM769.572 479.16C768.479 479.16 767.492 478.927 766.612 478.46C765.745 477.993 765.059 477.327 764.552 476.46C764.059 475.593 763.812 474.58 763.812 473.42C763.812 472.273 764.065 471.267 764.572 470.4C765.079 469.52 765.772 468.847 766.652 468.38C767.532 467.913 768.519 467.68 769.612 467.68C770.705 467.68 771.692 467.913 772.572 468.38C773.452 468.847 774.145 469.52 774.652 470.4C775.159 471.267 775.412 472.273 775.412 473.42C775.412 474.567 775.152 475.58 774.632 476.46C774.125 477.327 773.425 477.993 772.532 478.46C771.652 478.927 770.665 479.16 769.572 479.16ZM769.572 476.2C770.225 476.2 770.779 475.96 771.232 475.48C771.699 475 771.932 474.313 771.932 473.42C771.932 472.527 771.705 471.84 771.252 471.36C770.812 470.88 770.265 470.64 769.612 470.64C768.945 470.64 768.392 470.88 767.952 471.36C767.512 471.827 767.292 472.513 767.292 473.42C767.292 474.313 767.505 475 767.932 475.48C768.372 475.96 768.919 476.2 769.572 476.2ZM784.026 467.72C785.333 467.72 786.373 468.147 787.146 469C787.933 469.84 788.326 471 788.326 472.48V479H784.926V472.94C784.926 472.193 784.733 471.613 784.346 471.2C783.96 470.787 783.44 470.58 782.786 470.58C782.133 470.58 781.613 470.787 781.226 471.2C780.84 471.613 780.646 472.193 780.646 472.94V479H777.226V467.84H780.646V469.32C780.993 468.827 781.46 468.44 782.046 468.16C782.633 467.867 783.293 467.72 784.026 467.72ZM794.943 467.68C795.73 467.68 796.416 467.84 797.003 468.16C797.603 468.48 798.063 468.9 798.383 469.42V467.84H801.803V478.98C801.803 480.007 801.596 480.933 801.183 481.76C800.783 482.6 800.163 483.267 799.323 483.76C798.496 484.253 797.463 484.5 796.223 484.5C794.57 484.5 793.23 484.107 792.203 483.32C791.176 482.547 790.59 481.493 790.443 480.16H793.823C793.93 480.587 794.183 480.92 794.583 481.16C794.983 481.413 795.476 481.54 796.063 481.54C796.77 481.54 797.33 481.333 797.743 480.92C798.17 480.52 798.383 479.873 798.383 478.98V477.4C798.05 477.92 797.59 478.347 797.003 478.68C796.416 479 795.73 479.16 794.943 479.16C794.023 479.16 793.19 478.927 792.443 478.46C791.696 477.98 791.103 477.307 790.663 476.44C790.236 475.56 790.023 474.547 790.023 473.4C790.023 472.253 790.236 471.247 790.663 470.38C791.103 469.513 791.696 468.847 792.443 468.38C793.19 467.913 794.023 467.68 794.943 467.68ZM798.383 473.42C798.383 472.567 798.143 471.893 797.663 471.4C797.196 470.907 796.623 470.66 795.943 470.66C795.263 470.66 794.683 470.907 794.203 471.4C793.736 471.88 793.503 472.547 793.503 473.4C793.503 474.253 793.736 474.933 794.203 475.44C794.683 475.933 795.263 476.18 795.943 476.18C796.623 476.18 797.196 475.933 797.663 475.44C798.143 474.947 798.383 474.273 798.383 473.42ZM811.137 467.72C812.417 467.72 813.444 468.147 814.217 469C814.99 469.84 815.377 471 815.377 472.48V479H811.977V472.94C811.977 472.193 811.784 471.613 811.397 471.2C811.01 470.787 810.49 470.58 809.837 470.58C809.184 470.58 808.664 470.787 808.277 471.2C807.89 471.613 807.697 472.193 807.697 472.94V479H804.277V464.2H807.697V469.34C808.044 468.847 808.517 468.453 809.117 468.16C809.717 467.867 810.39 467.72 811.137 467.72ZM822.834 479.16C821.74 479.16 820.754 478.927 819.874 478.46C819.007 477.993 818.32 477.327 817.814 476.46C817.32 475.593 817.074 474.58 817.074 473.42C817.074 472.273 817.327 471.267 817.834 470.4C818.34 469.52 819.034 468.847 819.914 468.38C820.794 467.913 821.78 467.68 822.874 467.68C823.967 467.68 824.954 467.913 825.834 468.38C826.714 468.847 827.407 469.52 827.914 470.4C828.42 471.267 828.674 472.273 828.674 473.42C828.674 474.567 828.414 475.58 827.894 476.46C827.387 477.327 826.687 477.993 825.794 478.46C824.914 478.927 823.927 479.16 822.834 479.16ZM822.834 476.2C823.487 476.2 824.04 475.96 824.494 475.48C824.96 475 825.194 474.313 825.194 473.42C825.194 472.527 824.967 471.84 824.514 471.36C824.074 470.88 823.527 470.64 822.874 470.64C822.207 470.64 821.654 470.88 821.214 471.36C820.774 471.827 820.554 472.513 820.554 473.42C820.554 474.313 820.767 475 821.194 475.48C821.634 475.96 822.18 476.2 822.834 476.2ZM833.908 469.7C834.308 469.087 834.808 468.607 835.408 468.26C836.008 467.9 836.675 467.72 837.408 467.72V471.34H836.468C835.615 471.34 834.975 471.527 834.548 471.9C834.121 472.26 833.908 472.9 833.908 473.82V479H830.488V467.84H833.908V469.7ZM845.843 467.72C847.149 467.72 848.189 468.147 848.963 469C849.749 469.84 850.143 471 850.143 472.48V479H846.743V472.94C846.743 472.193 846.549 471.613 846.163 471.2C845.776 470.787 845.256 470.58 844.603 470.58C843.949 470.58 843.429 470.787 843.043 471.2C842.656 471.613 842.463 472.193 842.463 472.94V479H839.043V467.84H842.463V469.32C842.809 468.827 843.276 468.44 843.863 468.16C844.449 467.867 845.109 467.72 845.843 467.72Z" fill="white"/>
<g clip-path="url(#clip0_6_452)">
<rect x="715" y="463" width="28" height="20" fill="white"/>
<path d="M728.512 472.687C728.405 472.687 728.298 472.677 728.192 472.656L727.33 472.485L728.072 477.017C728.086 477.103 728.093 477.19 728.093 477.277H728.93C728.93 477.179 728.939 477.082 728.957 476.986L729.789 472.466L728.832 472.656C728.726 472.677 728.619 472.687 728.512 472.687V472.687Z" fill="#5F224A"/>
<path d="M741.014 459.63H716.01C715.12 459.632 714.268 459.984 713.639 460.608C713.01 461.232 712.655 462.077 712.653 462.96V482.064C712.655 482.947 713.01 483.792 713.639 484.416C714.268 485.04 715.12 485.391 716.01 485.394H741.014C741.904 485.391 742.756 485.04 743.385 484.416C744.014 483.792 744.369 482.947 744.371 482.064V462.96C744.369 462.077 744.014 461.232 743.385 460.608C742.756 459.984 741.904 459.632 741.014 459.63V459.63ZM741.578 466.364L741.17 469.117C741.121 469.447 740.97 469.755 740.738 469.997C740.506 470.239 740.204 470.404 739.874 470.469L733.234 471.784C733.233 471.791 733.232 471.797 733.231 471.804L732.192 477.448C732.146 478.276 731.783 479.055 731.177 479.626C730.57 480.196 729.766 480.515 728.93 480.516H728.093C727.254 480.515 726.448 480.194 725.84 479.619C725.233 479.045 724.872 478.261 724.831 477.429L723.91 471.808L717.15 470.469C716.82 470.404 716.518 470.239 716.286 469.997C716.054 469.755 715.903 469.447 715.854 469.117L715.446 466.364C715.383 465.939 715.493 465.507 715.751 465.162C716.01 464.818 716.395 464.589 716.824 464.526C717.252 464.464 717.688 464.573 718.035 464.829C718.383 465.085 718.614 465.467 718.677 465.892L718.918 467.516L728.512 469.416L738.106 467.516L738.347 465.892C738.41 465.467 738.64 465.084 738.988 464.828C739.16 464.701 739.355 464.609 739.563 464.557C739.771 464.505 739.987 464.494 740.199 464.524C740.412 464.555 740.616 464.627 740.8 464.736C740.984 464.845 741.145 464.989 741.273 465.16C741.401 465.33 741.494 465.524 741.546 465.73C741.599 465.937 741.61 466.151 741.579 466.361L741.578 466.364Z" fill="#5F224A"/>
</g>
<circle cx="776" cy="517" r="16" fill="white"/>
<circle cx="776" cy="517" r="8" fill="#33313B"/>
<path d="M695.543 399.072C682.245 399.072 675.593 399.072 670.509 396.579C666.033 394.385 662.386 390.877 660.106 386.57C657.515 381.679 657.515 375.279 657.515 362.485" stroke="#33313B" stroke-width="2" stroke-linecap="square" stroke-linejoin="round"/>
<path d="M748.693 399.072C761.991 399.072 768.643 399.072 773.727 401.565C778.203 403.758 781.85 407.267 784.13 411.574C786.721 416.465 786.721 422.865 786.721 435.659" stroke="#33313B" stroke-width="2" stroke-linecap="square" stroke-linejoin="round"/>
<path d="M754.5 399.072L700.313 399.074L695.998 399.074" stroke="#33313B" stroke-width="2"/>
<path d="M786.741 451.832L792.503 441.826L780.956 441.839L786.741 451.832ZM785.722 435.941L785.731 442.834L787.731 442.831L787.722 435.938L785.722 435.941Z" fill="#33313B"/>
<line x1="657.562" y1="371.466" x2="657.483" y2="328.194" stroke="#33313B" stroke-width="2"/>
<defs>
<clipPath id="clip0_6_452">
<rect width="33" height="27" fill="white" transform="translate(712 459)"/>
</clipPath>
</defs>
</svg>
