<svg width="858" height="250" viewBox="0 0 858 250" fill="none" xmlns="http://www.w3.org/2000/svg">
<path d="M0.238586 16.2182C0.238586 7.3816 7.40203 0.218155 16.2386 0.218155H308.102C316.939 0.218155 324.102 7.3816 324.102 16.2182V233.602C324.102 242.438 316.939 249.602 308.102 249.602H16.2386C7.40204 249.602 0.238586 242.438 0.238586 233.602V16.2182Z" fill="#06527A"/>
<path d="M256.446 48.546H67.8953L72.3734 68.8577H251.967L256.446 48.546ZM254.154 69.3403L258.632 49.0286C258.779 48.3664 258.617 47.6729 258.19 47.1434C257.765 46.6139 257.123 46.3077 256.445 46.3077H67.8952C67.2158 46.3077 66.5738 46.6154 66.1505 47.1434C65.7256 47.6729 65.5616 48.3664 65.7085 49.0286L70.1865 69.3403C70.413 70.3665 71.322 71.0975 72.3733 71.0975H251.963C253.014 71.0975 253.923 70.3665 254.149 69.3403H254.154ZM70.6822 50.786H253.654L250.163 66.6197H74.1727L70.6822 50.786ZM240.899 91.5518H83.4417V102.546H240.899V91.5518ZM243.137 102.546V91.5518C243.137 90.3147 242.134 89.3119 240.897 89.3119L83.4441 89.3135C82.2071 89.3135 81.2043 90.3163 81.2043 91.5534V102.548C81.2043 103.785 82.2071 104.788 83.4441 104.788H240.897C242.134 104.788 243.137 103.785 243.137 102.548V102.546ZM85.684 93.7914H238.659V100.306H85.684V93.7914ZM120.475 68.8565H105.837L94.6405 201.274H109.279L120.475 68.8565ZM111.511 201.462L122.707 69.0444C122.76 68.4197 122.549 67.8011 122.124 67.3404C121.7 66.8796 121.103 66.6172 120.475 66.6172H105.837C104.673 66.6172 103.703 67.5075 103.605 68.6665L92.4085 201.084C92.3554 201.709 92.5662 202.328 92.9911 202.788C93.4159 203.249 94.0126 203.512 94.6405 203.512H109.279C110.443 203.512 111.413 202.621 111.511 201.462ZM107.894 71.0957H118.038L107.22 199.035H97.0753L107.894 71.0957ZM218.507 68.8559H203.868L215.065 201.274H229.703L218.507 68.8559ZM231.351 202.789C231.776 202.328 231.987 201.71 231.933 201.085L220.737 68.6673C220.639 67.5083 219.669 66.618 218.505 66.618H203.867C203.24 66.618 202.642 66.8804 202.217 67.3412C201.793 67.8019 201.582 68.4205 201.635 69.0452L212.831 201.463C212.929 202.622 213.899 203.512 215.063 203.512H229.701C230.328 203.512 230.926 203.25 231.351 202.789ZM206.303 71.0951H216.448L227.266 199.034H217.121L206.303 71.0951ZM166.75 69.0895H157.592V93.6186H166.75V69.0895ZM168.988 93.6186V69.0895C168.988 67.8525 167.985 66.8497 166.748 66.8497H157.591C156.354 66.8497 155.351 67.8525 155.351 69.0895V93.6186C155.351 94.8557 156.354 95.8585 157.591 95.8585H166.748C167.985 95.8585 168.988 94.8557 168.988 93.6186ZM159.83 71.3296H164.51V91.3806H159.83V71.3296Z" fill="white"/>
<path d="M443.277 178.974C435.474 178.974 428.482 177.707 422.301 175.174C416.12 172.641 411.154 168.891 407.405 163.926C403.757 158.961 401.832 152.982 401.629 145.99H429.293C429.698 149.942 431.066 152.982 433.397 155.11C435.728 157.137 438.768 158.15 442.517 158.15C446.368 158.15 449.408 157.289 451.637 155.566C453.866 153.742 454.981 151.259 454.981 148.118C454.981 145.483 454.069 143.305 452.245 141.582C450.522 139.859 448.344 138.441 445.709 137.326C443.176 136.211 439.528 134.945 434.765 133.526C427.874 131.398 422.25 129.27 417.893 127.142C413.536 125.014 409.786 121.873 406.645 117.718C403.504 113.563 401.933 108.142 401.933 101.454C401.933 91.5234 405.53 83.7714 412.725 78.198C419.92 72.5234 429.293 69.686 440.845 69.686C452.6 69.686 462.074 72.5234 469.269 78.198C476.464 83.7714 480.314 91.574 480.821 101.606H452.701C452.498 98.1607 451.232 95.4754 448.901 93.55C446.57 91.5234 443.581 90.51 439.933 90.51C436.792 90.51 434.258 91.3714 432.333 93.094C430.408 94.7154 429.445 97.0967 429.445 100.238C429.445 103.683 431.066 106.369 434.309 108.294C437.552 110.219 442.618 112.297 449.509 114.526C456.4 116.857 461.973 119.086 466.229 121.214C470.586 123.342 474.336 126.433 477.477 130.486C480.618 134.539 482.189 139.758 482.189 146.142C482.189 152.222 480.618 157.745 477.477 162.71C474.437 167.675 469.978 171.627 464.101 174.566C458.224 177.505 451.282 178.974 443.277 178.974ZM496.513 98.262C496.918 87.4194 500.465 79.0594 507.153 73.182C513.841 67.3047 522.91 64.366 534.361 64.366C541.961 64.366 548.446 65.6834 553.817 68.318C559.289 70.9527 563.393 74.55 566.129 79.11C568.966 83.67 570.385 88.7874 570.385 94.462C570.385 101.15 568.713 106.622 565.369 110.878C562.025 115.033 558.123 117.87 553.665 119.39V119.998C559.441 121.923 564.001 125.115 567.345 129.574C570.689 134.033 572.361 139.758 572.361 146.75C572.361 153.033 570.891 158.606 567.953 163.47C565.115 168.233 560.91 171.982 555.337 174.718C549.865 177.454 543.329 178.822 535.729 178.822C523.569 178.822 513.841 175.833 506.545 169.854C499.35 163.875 495.55 154.857 495.145 142.798H520.377C520.478 147.257 521.745 150.803 524.177 153.438C526.609 155.971 530.155 157.238 534.817 157.238C538.769 157.238 541.809 156.123 543.937 153.894C546.166 151.563 547.281 148.523 547.281 144.774C547.281 139.91 545.71 136.414 542.569 134.286C539.529 132.057 534.614 130.942 527.825 130.942H522.961V109.814H527.825C532.993 109.814 537.147 108.953 540.289 107.23C543.531 105.406 545.153 102.214 545.153 97.654C545.153 94.006 544.139 91.1687 542.113 89.142C540.086 87.1154 537.299 86.102 533.753 86.102C529.902 86.102 527.014 87.2674 525.089 89.598C523.265 91.9287 522.201 94.8167 521.897 98.262H496.513ZM661.048 104.95C659.123 101.403 656.336 98.718 652.688 96.894C649.141 94.9687 644.936 94.006 640.072 94.006C631.661 94.006 624.923 96.7927 619.856 102.366C614.789 107.838 612.256 115.185 612.256 124.406C612.256 134.235 614.891 141.937 620.16 147.51C625.531 152.982 632.877 155.718 642.2 155.718C648.584 155.718 653.955 154.097 658.312 150.854C662.771 147.611 666.013 142.95 668.04 136.87H635.056V117.718H691.6V141.886C689.675 148.371 686.381 154.401 681.72 159.974C677.16 165.547 671.333 170.057 664.24 173.502C657.147 176.947 649.141 178.67 640.224 178.67C629.685 178.67 620.261 176.39 611.952 171.83C603.744 167.169 597.309 160.734 592.648 152.526C588.088 144.318 585.808 134.945 585.808 124.406C585.808 113.867 588.088 104.494 592.648 96.286C597.309 87.9767 603.744 81.542 611.952 76.982C620.16 72.3207 629.533 69.99 640.072 69.99C652.84 69.99 663.581 73.0807 672.296 79.262C681.112 85.4434 686.939 94.006 689.776 104.95H661.048ZM852.829 71.206L825.013 177.91H793.549L776.525 107.686L758.893 177.91H727.429L700.373 71.206H728.189L743.541 148.878L762.541 71.206H791.117L809.357 148.878L824.861 71.206H852.829Z" fill="white"/>
</svg>
