<svg width="597" height="461" viewBox="0 0 597 461" fill="none" xmlns="http://www.w3.org/2000/svg">
<path d="M0 3.99999C0 1.79085 1.79086 0 4 0H593C595.209 0 597 1.79086 597 4V457C597 459.209 595.209 461 593 461H3.99999C1.79086 461 0 459.209 0 457V3.99999Z" fill="#06527A"/>
<path d="M472.284 89.3368H124.716L132.971 126.884H464.028L472.284 89.3368ZM468.06 127.776L476.315 90.2289C476.586 89.0047 476.286 87.7227 475.5 86.7439C474.717 85.7651 473.533 85.1992 472.284 85.1992H124.716C123.464 85.1992 122.28 85.768 121.5 86.7439C120.717 87.7227 120.415 89.0047 120.685 90.2289L128.94 127.776C129.357 129.673 131.033 131.025 132.971 131.025H464.02C465.958 131.025 467.634 129.673 468.051 127.776H468.06ZM129.854 93.4776H467.139L460.704 122.747H136.288L129.854 93.4776ZM443.626 168.835H153.374V189.159H443.626V168.835ZM447.752 189.159V168.835C447.752 166.549 445.903 164.695 443.623 164.695L153.379 164.698C151.098 164.698 149.25 166.551 149.25 168.838V189.162C149.25 191.449 151.098 193.303 153.379 193.303H443.623C445.903 193.303 447.752 191.449 447.752 189.162V189.159ZM157.508 172.975H439.496V185.019H157.508V172.975ZM221.64 126.882H194.656L174.018 371.664H201.002L221.64 126.882ZM205.116 372.011L225.755 127.229C225.853 126.074 225.464 124.931 224.681 124.079C223.898 123.227 222.798 122.742 221.64 122.742H194.656C192.511 122.742 190.723 124.388 190.542 126.531L169.903 371.312C169.805 372.467 170.194 373.611 170.977 374.462C171.76 375.314 172.86 375.799 174.018 375.799H201.002C203.147 375.799 204.935 374.153 205.116 372.011ZM198.448 131.021H217.149L197.207 367.524H178.506L198.448 131.021ZM402.349 126.881H375.365L396.004 371.662H422.988L402.349 126.881ZM426.025 374.464C426.808 373.612 427.197 372.469 427.099 371.314L406.461 126.532C406.279 124.39 404.491 122.744 402.346 122.744H375.362C374.208 122.744 373.105 123.229 372.322 124.081C371.538 124.932 371.15 126.076 371.248 127.231L391.886 372.013C392.068 374.155 393.856 375.801 396.001 375.801H422.985C424.139 375.801 425.242 375.316 426.025 374.464ZM379.853 131.02H398.554L418.496 367.523H399.795L379.853 131.02ZM306.942 127.313H290.061V172.656H306.942V127.313ZM311.068 172.656V127.313C311.068 125.026 309.219 123.172 306.939 123.172H290.058C287.778 123.172 285.929 125.026 285.929 127.313V172.656C285.929 174.943 287.778 176.797 290.058 176.797H306.939C309.219 176.797 311.068 174.943 311.068 172.656ZM294.187 131.453H302.813V168.519H294.187V131.453Z" fill="white"/>
</svg>
