<svg xmlns="http://www.w3.org/2000/svg" viewBox="0 0 415.57806 525.59376"><rect x="28.81301" y="88.06575" width="118.88816" height="58.73641" fill="#30ba78"/><text transform="translate(68.77338 120.46399)" font-size="10.5349" fill="#fff" font-family="Poppins-SemiBold, Poppins" font-weight="600">Host OS</text><rect x="28.81301" y="150.82826" width="118.88816" height="58.73641" fill="#fe7c3f"/><text transform="translate(57.77338 183.22657)" font-size="10.5349" fill="#fff" font-family="Poppins-SemiBold, Poppins" font-weight="600">Host Console</text><rect x="264.81301" y="88.06575" width="118.88816" height="58.73641" fill="#30ba78"/><text transform="translate(304.77338 120.46399)" font-size="10.5349" fill="#fff" font-family="Poppins-SemiBold, Poppins" font-weight="600">Host OS</text><rect x="264.81301" y="150.82826" width="118.88816" height="58.73641" fill="#fe7c3f"/><text transform="translate(293.77338 183.22657)" font-size="10.5349" fill="#fff" font-family="Poppins-SemiBold, Poppins" font-weight="600">Host Console</text><rect x="30.09628" y="214.3901" width="353.48471" height="58.73641" fill="#fff" stroke="#2453ff" stroke-miterlimit="10" stroke-width="2.27068"/><text transform="translate(210.05658 246.78846)" font-size="10.5349" fill="#2453ff" font-family="Poppins-SemiBold, Poppins" font-weight="600">Ceph</text><rect x="29.09628" y="277.77682" width="354.91342" height="58.73641" fill="#2453ff"/><text transform="translate(51.62103 305.31064)" font-size="10.5349" fill="#fff" font-family="Poppins-SemiBold, Poppins" font-weight="600">Simplified <tspan x="0" y="12.6416">Mgmt</tspan></text><rect x="30.02712" y="339.71793" width="50" height="24.70238" fill="#fff" stroke="#666" stroke-miterlimit="10" stroke-width="2"/><text transform="translate(44.5351 355.8762)" font-size="10.5349" fill="#666" font-family="Poppins-SemiBold, Poppins" font-weight="600">NFS</text><rect x="83.02712" y="339.71793" width="50" height="24.70238" fill="#fff" stroke="#666" stroke-miterlimit="10" stroke-width="2"/><text transform="translate(94.5351 355.8762)" font-size="10.5349" fill="#666" font-family="Poppins-SemiBold, Poppins" font-weight="600">iSCSI</text><rect x="28.81367" y="23.65989" width="118.88816" height="58.73641" fill="none" stroke="#666" stroke-miterlimit="10" stroke-width="2" stroke-dasharray="6"/><text transform="translate(70.01605 56.05836)" font-size="10.5349" fill="#666" font-family="Poppins-SemiBold, Poppins" font-weight="600">Node 1</text><rect x="263.08603" y="23.70258" width="118.88816" height="58.73641" fill="none" stroke="#666" stroke-miterlimit="10" stroke-width="2" stroke-dasharray="6"/><text transform="translate(304.28851 56.10108)" font-size="10.5349" fill="#666" font-family="Poppins-SemiBold, Poppins" font-weight="600">Node N</text><rect x="69.1301" y="416.69914" width="21.88803" height="14.59202" fill="#666"/><rect x="93.93653" y="416.69914" width="21.88803" height="14.59202" fill="#666"/><rect x="118.74297" y="416.69914" width="21.88803" height="14.59202" fill="#666"/><rect x="68.71178" y="440.12508" width="21.88803" height="14.59202" fill="#666"/><rect x="93.51821" y="440.12508" width="21.88803" height="14.59202" fill="#666"/><rect x="118.32464" y="440.12508" width="21.88803" height="14.59202" fill="#666"/><rect x="69.34061" y="461.81963" width="21.88803" height="14.59202" fill="#666"/><rect x="94.14704" y="461.81963" width="21.88803" height="14.59202" fill="#666"/><rect x="118.95347" y="461.81963" width="21.88803" height="14.59202" fill="#666"/><text transform="translate(123.42938 471.54062)" font-size="6" fill="#fff" font-family="Poppins-Regular, Poppins" letter-spacing="-0.0022em">dis<tspan x="8.62402" y="0" letter-spacing="-0.0249em">k</tspan></text><text transform="translate(122.79706 449.64853)" font-size="6" fill="#fff" font-family="Poppins-Regular, Poppins" letter-spacing="-0.0022em">dis<tspan x="8.62402" y="0" letter-spacing="-0.0249em">k</tspan></text><text transform="translate(122.87616 425.54349)" font-size="6" fill="#fff" font-family="Poppins-Regular, Poppins" letter-spacing="-0.0022em">dis<tspan x="8.62402" y="0" letter-spacing="-0.0249em">k</tspan></text><text transform="translate(99.42938 471.54062)" font-size="6" fill="#fff" font-family="Poppins-Regular, Poppins" letter-spacing="-0.0022em">dis<tspan x="8.62402" y="0" letter-spacing="-0.0249em">k</tspan></text><text transform="translate(98.79706 449.64853)" font-size="6" fill="#fff" font-family="Poppins-Regular, Poppins" letter-spacing="-0.0022em">dis<tspan x="8.62402" y="0" letter-spacing="-0.0249em">k</tspan></text><text transform="translate(98.87616 425.54349)" font-size="6" fill="#fff" font-family="Poppins-Regular, Poppins" letter-spacing="-0.0022em">dis<tspan x="8.62402" y="0" letter-spacing="-0.0249em">k</tspan></text><text transform="translate(73.42938 471.54062)" font-size="6" fill="#fff" font-family="Poppins-Regular, Poppins" letter-spacing="-0.0022em">dis<tspan x="8.62402" y="0" letter-spacing="-0.0249em">k</tspan></text><text transform="translate(66.75922 403.90989)" font-size="10.5349" fill="#666" font-family="Poppins-SemiBold, Poppins" font-weight="600">Storage Node 1</text><text transform="translate(72.79706 449.64853)" font-size="6" fill="#fff" font-family="Poppins-Regular, Poppins" letter-spacing="-0.0022em">dis<tspan x="8.62402" y="0" letter-spacing="-0.0249em">k</tspan></text><text transform="translate(72.87616 425.54349)" font-size="6" fill="#fff" font-family="Poppins-Regular, Poppins" letter-spacing="-0.0022em">dis<tspan x="8.62402" y="0" letter-spacing="-0.0249em">k</tspan></text><path d="M202.65213,249.57675c-.56781-.30378-.89714-.64589-.96953-1.01851a1.502,1.502,0,0,1,.49151-1.22435,6.05446,6.05446,0,0,0-4.56911-10.02542l-.02662.00036-.02732-.00036a6.05443,6.05443,0,0,0-4.5684,10.02578,1.49686,1.49686,0,0,1,.49683,1.208c-.06955.37156-.3964.71864-.97237,1.03342a8.44673,8.44673,0,0,1-2.14633-2.70634,7.99951,7.99951,0,0,1,7.19417-11.50954h.0543a8.00191,8.00191,0,0,1,7.191,11.50954,8.53473,8.53473,0,0,1-2.147,2.707M199.696,251.074a2.94671,2.94671,0,0,1-.72041-.724,3.27718,3.27718,0,0,1-.62815-2.00083,4.42188,4.42188,0,0,1,.32721-1.58632,4.50679,4.50679,0,0,1,.87088-1.36027l.00213-.00354.08233-.09582a3.66291,3.66291,0,0,0,.40279-.52984,2.74173,2.74173,0,0,0,.30946-.75945,2.82,2.82,0,0,0-1.25274-3.046,2.81764,2.81764,0,0,0-1.48731-.4248h-.05749a2.80892,2.80892,0,0,0-1.4866.42444,2.81659,2.81659,0,0,0-1.25238,3.046,2.75432,2.75432,0,0,0,.30875.75944,3.76915,3.76915,0,0,0,.40314.52984l.08269.09582.00177.00355a4.48792,4.48792,0,0,1,.87124,1.36026,4.41136,4.41136,0,0,1,.32685,1.586,3.27718,3.27718,0,0,1-.62815,2.00083,3.03949,3.03949,0,0,1-.72041.724l-.46383-.13947a8.26124,8.26124,0,0,1-1.33329-.58768,2.27206,2.27206,0,0,0,1.196-1.99941,2.39973,2.39973,0,0,0-.63985-1.57923l-.01774-.01845-.127-.13911-.34069-.39925a4.76778,4.76778,0,0,1,3.14994-7.56751,4.6888,4.6888,0,0,1,.67143-.0472h.06033a4.7321,4.7321,0,0,1,.6718.0472,4.76478,4.76478,0,0,1,3.21239,1.95895,4.75348,4.75348,0,0,1,.75413,3.86751,4.77689,4.77689,0,0,1-.81694,1.7446c-.10647.142-.21861.2651-.34069.39924l-.12314.13592a.12582.12582,0,0,0-.0213.02272,2.422,2.422,0,0,0-.63985,1.57816,2.27478,2.27478,0,0,0,1.19737,1.9994,7.98761,7.98761,0,0,1-1.33329.58769l-.46135.13947m-2.12787-6.05891a1.57994,1.57994,0,1,1,1.57958-1.57993,1.58278,1.58278,0,0,1-1.57958,1.57993" fill="#f0424d"/><path d="M133.95369,305.477a1.54183,1.54183,0,1,0,.89434,1.399A1.54181,1.54181,0,0,0,133.95369,305.477Z" fill="#fff"/><path d="M130.28138,305.477a1.54183,1.54183,0,1,0,.89434,1.399A1.54181,1.54181,0,0,0,130.28138,305.477Z" fill="#fff"/><path d="M143.95338,309.58127a3.05458,3.05458,0,0,0-3.91625-.43231c-1.39093.97361-1.54613,2.7389-1.43144,4.04794.013.15081.02872.304.0439.45212l.00131.01286a3.9172,3.9172,0,0,1-.09331,1.98728,1.18419,1.18419,0,0,1-.74378.54518.8822.8822,0,0,1-.69562-.06647,1.04432,1.04432,0,0,1-.54932-1.01411,2.11827,2.11827,0,0,1,.32552-.8808l.0094-.01254a11.59461,11.59461,0,0,0,1.88752-8.66l-.01643-.083h-.00539a7.53419,7.53419,0,0,0-14.89136.67273,11.64211,11.64211,0,0,0,1.98471,8.07223l.00909.01254a2.116,2.116,0,0,1,.32464.88055,1.04464,1.04464,0,0,1-.54957,1.0128.884.884,0,0,1-.69606.06622,1.18321,1.18321,0,0,1-.74328-.54556,3.917,3.917,0,0,1-.09312-1.98622c.01611-.15677.03167-.31066.04527-.465.20794-2.37212-.66357-3.51084-1.43131-4.04831a2.99024,2.99024,0,0,0-3.9935,4.37126,1.2627,1.2627,0,1,0,1.92984-1.62891.46.46,0,0,1,.61516-.67367c.301.21095.44078.88493.36409,1.7589-.012.137-.0259.27334-.04051.41757l-.00119.01173a5.91084,5.91084,0,0,0,.35624,3.391,3.75534,3.75534,0,0,0,3.28415,1.96139,3.23857,3.23857,0,0,0,1.8043-.52876,3.53643,3.53643,0,0,0,1.66747-2.66252,4.36738,4.36738,0,0,0-.76823-2.7764.58437.58437,0,0,0-.0412-.05468,9.01184,9.01184,0,0,1-1.44994-6.70538,5.53286,5.53286,0,0,1,.13319-.5534h-.0069a5.069,5.069,0,0,1,9.63.02665,5.101,5.101,0,0,1,.09864.52674h0a8.65515,8.65515,0,0,1,.12065.88287h0a9.08469,9.08469,0,0,1-1.57134,5.82345.56447.56447,0,0,0-.04044.05381,4.36723,4.36723,0,0,0-.76811,2.77646,3.536,3.536,0,0,0,1.66747,2.66234,3.23791,3.23791,0,0,0,1.8043.52882,3.75526,3.75526,0,0,0,3.28409-1.961,5.91837,5.91837,0,0,0,.35618-3.39308l-.00075-.00721c-.0148-.14523-.02885-.28218-.04089-.42014-.07669-.87415.06271-1.5482.36371-1.759a.46.46,0,0,1,.61535.67354,1.26269,1.26269,0,0,0,1.91817,1.64262l.01136-.01346a3.05476,3.05476,0,0,0-.07675-3.93932Z" fill="#fff"/><path d="M276.76164,304.03576a1.54179,1.54179,0,1,0,.89435,1.399A1.54181,1.54181,0,0,0,276.76164,304.03576Z" fill="#fff"/><path d="M273.08933,304.03576a1.54182,1.54182,0,1,0,.89434,1.399A1.5418,1.5418,0,0,0,273.08933,304.03576Z" fill="#fff"/><path d="M286.76133,308.14007a3.05458,3.05458,0,0,0-3.91625-.43231c-1.39093.9736-1.54613,2.7389-1.43144,4.04793.01305.15081.02873.304.0439.45212l.00132.01286a3.91742,3.91742,0,0,1-.09331,1.98728,1.18429,1.18429,0,0,1-.74378.54519.88228.88228,0,0,1-.69562-.06647,1.04433,1.04433,0,0,1-.54933-1.01412,2.11841,2.11841,0,0,1,.32552-.8808l.00941-.01254a11.5946,11.5946,0,0,0,1.88751-8.66l-.01643-.083h-.00539a7.53419,7.53419,0,0,0-14.89136.67274,11.64212,11.64212,0,0,0,1.98471,8.07223l.0091.01254a2.1159,2.1159,0,0,1,.32464.88054,1.04465,1.04465,0,0,1-.54958,1.0128.884.884,0,0,1-.69606.06622,1.18314,1.18314,0,0,1-.74328-.54556,3.91718,3.91718,0,0,1-.09312-1.98622c.01612-.15677.03167-.31065.04528-.465.20794-2.37212-.66358-3.51084-1.43132-4.04831a2.99024,2.99024,0,0,0-3.9935,4.37126,1.2627,1.2627,0,1,0,1.92984-1.62891.46.46,0,0,1,.61517-.67367c.301.21095.44077.88494.36408,1.7589-.012.137-.0259.27335-.04051.41758l-.00119.01172a5.911,5.911,0,0,0,.35625,3.391,3.75535,3.75535,0,0,0,3.28415,1.96138,3.2385,3.2385,0,0,0,1.8043-.52875,3.53649,3.53649,0,0,0,1.66747-2.66253,4.36747,4.36747,0,0,0-.76824-2.7764.58525.58525,0,0,0-.0412-.05468,9.01183,9.01183,0,0,1-1.44994-6.70538,5.53286,5.53286,0,0,1,.13319-.5534h-.00689a4.95947,4.95947,0,0,1,9.72866.5534h0a8.65439,8.65439,0,0,1,.12065.88287h0a9.0848,9.0848,0,0,1-1.57134,5.82345.56444.56444,0,0,0-.04045.0538,4.36724,4.36724,0,0,0-.76811,2.77647,3.536,3.536,0,0,0,1.66747,2.66233,3.23791,3.23791,0,0,0,1.8043.52882,3.75524,3.75524,0,0,0,3.28409-1.961,5.91826,5.91826,0,0,0,.35618-3.39307l-.00075-.00721c-.0148-.14524-.02885-.28219-.04089-.42015-.07669-.87415.06271-1.5482.36371-1.759a.46.46,0,0,1,.61536.67355,1.26269,1.26269,0,1,0,1.91816,1.64261l.01137-.01346a3.05477,3.05477,0,0,0-.07676-3.93932Z" fill="#fff"/><path d="M346.94905,293.70577a1.54179,1.54179,0,1,0,.89434,1.399A1.54179,1.54179,0,0,0,346.94905,293.70577Z" fill="#fff"/><path d="M343.27673,293.70577a1.54179,1.54179,0,1,0,.89435,1.399A1.5418,1.5418,0,0,0,343.27673,293.70577Z" fill="#fff"/><path d="M356.94873,297.81007a3.05458,3.05458,0,0,0-3.91625-.43231c-1.39092.97361-1.54613,2.73891-1.43143,4.04794.013.15081.02872.304.04389.45212l.00132.01286a3.91731,3.91731,0,0,1-.09331,1.98728,1.18427,1.18427,0,0,1-.74378.54519.88224.88224,0,0,1-.69562-.06648,1.04428,1.04428,0,0,1-.54932-1.01411,2.11842,2.11842,0,0,1,.32551-.8808l.00941-.01254a11.5946,11.5946,0,0,0,1.88751-8.66l-.01642-.083h-.0054a7.53419,7.53419,0,0,0-14.89135.67274,11.64209,11.64209,0,0,0,1.98471,8.07222l.00909.01255a2.1159,2.1159,0,0,1,.32464.88054,1.04464,1.04464,0,0,1-.54957,1.0128.884.884,0,0,1-.69607.06622,1.18313,1.18313,0,0,1-.74327-.54556,3.91705,3.91705,0,0,1-.09313-1.98622c.01612-.15677.03167-.31065.04528-.465.20794-2.37212-.66358-3.51084-1.43131-4.04831a2.99024,2.99024,0,0,0-3.99351,4.37126,1.2627,1.2627,0,1,0,1.92984-1.62891.46.46,0,0,1,.61517-.67367c.301.211.44078.88494.36408,1.7589-.012.137-.02589.27335-.0405.41757l-.0012.01173a5.91094,5.91094,0,0,0,.35625,3.391,3.75534,3.75534,0,0,0,3.28415,1.96139,3.23841,3.23841,0,0,0,1.8043-.52876,3.5364,3.5364,0,0,0,1.66747-2.66252,4.36745,4.36745,0,0,0-.76824-2.7764.58263.58263,0,0,0-.0412-.05468,9.01185,9.01185,0,0,1-1.44993-6.70538,5.53011,5.53011,0,0,1,.13319-.5534h-.0069a4.95947,4.95947,0,0,1,9.72866.5534h0a8.65458,8.65458,0,0,1,.12065.88286h0a9.08481,9.08481,0,0,1-1.57134,5.82346.56444.56444,0,0,0-.04045.0538,4.36735,4.36735,0,0,0-.76811,2.77646,3.536,3.536,0,0,0,1.66747,2.66234,3.238,3.238,0,0,0,1.80431.52882,3.75524,3.75524,0,0,0,3.28408-1.961,5.91828,5.91828,0,0,0,.35618-3.39308l-.00075-.00721c-.0148-.14523-.02884-.28218-.04088-.42014-.0767-.87415.0627-1.5482.3637-1.759a.46.46,0,0,1,.61536.67354,1.26269,1.26269,0,1,0,1.91816,1.64262l.01137-.01346a3.05477,3.05477,0,0,0-.07676-3.93932Z" fill="#fff"/><line x1="187.82484" y1="280.87763" x2="187.9385" y2="332.87763" fill="none" stroke="#fff" stroke-miterlimit="10" stroke-width="2.68737"/><line x1="303.09047" y1="280.47584" x2="303.09047" y2="332.47584" fill="none" stroke="#fff" stroke-miterlimit="10" stroke-width="2.81533"/><text transform="translate(196.42255 304.11295)" font-size="10.5349" fill="#fff" font-family="Poppins-SemiBold, Poppins" font-weight="600">Support <tspan x="0" y="12.6416">Diagnostic</tspan></text><text transform="translate(331.26068 319.56962)" font-size="10.5349" fill="#fff" font-family="Poppins-SemiBold, Poppins" font-weight="600">WOD</text><rect x="136.02712" y="339.71793" width="50" height="24.70238" fill="#fff" stroke="#666" stroke-miterlimit="10" stroke-width="2"/><text transform="translate(152.5351 355.8762)" font-size="10.5349" fill="#666" font-family="Poppins-SemiBold, Poppins" font-weight="600">S3</text><line x1="156.32035" y1="51.69408" x2="255.20527" y2="51.69408" fill="#efefef" stroke="#666" stroke-miterlimit="10" stroke-width="2" stroke-dasharray="6"/><line x1="186.7776" y1="434.69408" x2="227.30341" y2="434.69408" fill="none" stroke="#666" stroke-miterlimit="10" stroke-width="2" stroke-dasharray="6"/><rect x="30.10181" y="372.4038" width="154.3417" height="128.07077" fill="none" stroke="#666" stroke-miterlimit="10" stroke-width="2.24325" stroke-dasharray="6.72974"/><rect x="267.1301" y="416.69914" width="21.88803" height="14.59202" fill="#666"/><rect x="291.93653" y="416.69914" width="21.88803" height="14.59202" fill="#666"/><rect x="316.74297" y="416.69914" width="21.88803" height="14.59202" fill="#666"/><rect x="266.71178" y="440.12508" width="21.88803" height="14.59202" fill="#666"/><rect x="291.51821" y="440.12508" width="21.88803" height="14.59202" fill="#666"/><rect x="316.32464" y="440.12508" width="21.88803" height="14.59202" fill="#666"/><rect x="267.34061" y="461.81963" width="21.88803" height="14.59202" fill="#666"/><rect x="292.14704" y="461.81963" width="21.88803" height="14.59202" fill="#666"/><rect x="316.95347" y="461.81963" width="21.88803" height="14.59202" fill="#666"/><text transform="translate(321.42938 471.54062)" font-size="6" fill="#fff" font-family="Poppins-Regular, Poppins" letter-spacing="-0.0022em">dis<tspan x="8.62402" y="0" letter-spacing="-0.0249em">k</tspan></text><text transform="translate(320.79706 449.64853)" font-size="6" fill="#fff" font-family="Poppins-Regular, Poppins" letter-spacing="-0.0022em">dis<tspan x="8.62402" y="0" letter-spacing="-0.0249em">k</tspan></text><text transform="translate(320.87616 425.54349)" font-size="6" fill="#fff" font-family="Poppins-Regular, Poppins" letter-spacing="-0.0022em">dis<tspan x="8.62402" y="0" letter-spacing="-0.0249em">k</tspan></text><text transform="translate(297.42938 471.54062)" font-size="6" fill="#fff" font-family="Poppins-Regular, Poppins" letter-spacing="-0.0022em">dis<tspan x="8.62402" y="0" letter-spacing="-0.0249em">k</tspan></text><text transform="translate(296.79706 449.64853)" font-size="6" fill="#fff" font-family="Poppins-Regular, Poppins" letter-spacing="-0.0022em">dis<tspan x="8.62402" y="0" letter-spacing="-0.0249em">k</tspan></text><text transform="translate(296.87616 425.54349)" font-size="6" fill="#fff" font-family="Poppins-Regular, Poppins" letter-spacing="-0.0022em">dis<tspan x="8.62402" y="0" letter-spacing="-0.0249em">k</tspan></text><text transform="translate(271.42938 471.54062)" font-size="6" fill="#fff" font-family="Poppins-Regular, Poppins" letter-spacing="-0.0022em">dis<tspan x="8.62402" y="0" letter-spacing="-0.0249em">k</tspan></text><text transform="translate(262.75922 403.90989)" font-size="10.5349" fill="#666" font-family="Poppins-SemiBold, Poppins" font-weight="600">Storage Node N</text><text transform="translate(270.79706 449.64853)" font-size="6" fill="#fff" font-family="Poppins-Regular, Poppins" letter-spacing="-0.0022em">dis<tspan x="8.62402" y="0" letter-spacing="-0.0249em">k</tspan></text><text transform="translate(270.87616 425.54349)" font-size="6" fill="#fff" font-family="Poppins-Regular, Poppins" letter-spacing="-0.0022em">dis<tspan x="8.62402" y="0" letter-spacing="-0.0249em">k</tspan></text><rect x="228.10181" y="372.4038" width="154.3417" height="128.07077" fill="none" stroke="#666" stroke-miterlimit="10" stroke-width="2.24325" stroke-dasharray="6.72974"/></svg>