<svg width="350" height="58" viewBox="0 0 350 58" fill="none" xmlns="http://www.w3.org/2000/svg">
<g clip-path="url(#clip0_24_28)">
<path d="M35.9836 21.9826C35.9841 22.5235 35.8078 23.0499 35.4811 23.4829C35.1544 23.916 34.6949 24.2322 34.1716 24.3842C33.6484 24.5362 33.0896 24.5157 32.579 24.3259C32.0685 24.1361 31.6337 23.7872 31.3401 23.3314C31.0464 22.8757 30.9096 22.3378 30.9503 21.7984C30.9909 21.2591 31.2068 20.7473 31.5655 20.34C31.9242 19.9326 32.4064 19.6517 32.9398 19.5393C33.4731 19.4269 34.0288 19.4891 34.5234 19.7166C34.9592 19.917 35.3281 20.2368 35.5868 20.6382C35.8455 21.0397 35.9832 21.5061 35.9836 21.9826V21.9826ZM28.5271 19.7166C28.033 19.4898 27.478 19.428 26.9455 19.5405C26.413 19.653 25.9316 19.9338 25.5735 20.3407C25.2154 20.7476 25 21.2587 24.9595 21.7973C24.919 22.3359 25.0556 22.8731 25.3489 23.3282C25.6421 23.7833 26.0762 24.1318 26.586 24.3214C27.0958 24.5111 27.6539 24.5316 28.1765 24.38C28.6991 24.2284 29.158 23.9128 29.4845 23.4806C29.811 23.0483 29.9874 22.5227 29.9873 21.9826C29.9872 21.506 29.8497 21.0395 29.5909 20.638C29.3322 20.2365 28.9631 19.9168 28.5271 19.7166V19.7166ZM50.8499 26.364C50.0388 25.5173 48.952 24.9826 47.7818 24.8545C46.6115 24.7263 45.4333 25.013 44.4556 25.6638C42.1847 27.2408 41.9312 30.1001 42.1184 32.2203C42.1398 32.4646 42.1653 32.7127 42.19 32.9526L42.1921 32.9734C42.3209 34.2264 42.4425 35.41 42.0398 36.1923C41.8348 36.5906 41.3587 36.9371 40.8254 37.0753C40.3885 37.1891 39.964 37.149 39.6896 36.9676C39.0191 36.5247 38.7341 36.0027 38.7928 35.3251C38.8453 34.7185 39.1649 34.149 39.3242 33.8984C39.3294 33.8917 39.3345 33.8849 39.3395 33.8778C40.4068 32.3876 43.783 26.9717 42.4217 19.8511C42.413 19.8058 42.4039 19.7613 42.3948 19.7166L42.386 19.7167C41.288 14.097 36.2913 9.84029 30.3104 9.84029C23.9485 9.84029 18.6992 14.6564 18.0724 20.8064C17.1682 27.4538 20.2917 32.4552 21.3129 33.8811C21.3179 33.8881 21.3228 33.8946 21.3277 33.901C21.4869 34.1518 21.8059 34.7215 21.8577 35.3272C21.9155 36.0036 21.6304 36.525 20.9604 36.9676C20.6864 37.1486 20.2616 37.1887 19.8234 37.0749C19.2914 36.9371 18.8151 36.5904 18.6099 36.1915C18.2078 35.4107 18.3292 34.2281 18.4578 32.9744C18.4841 32.7201 18.5095 32.4712 18.5317 32.2212C18.8713 28.379 17.4482 26.5346 16.1948 25.664C15.2238 25.0065 14.0461 24.7187 12.8784 24.8535C11.7106 24.9883 10.631 25.5366 9.83805 26.3977C9.04508 27.2587 8.59194 28.3747 8.5619 29.5407C8.53185 30.7066 8.92692 31.8441 9.6745 32.7442C9.84913 32.9495 10.0628 33.1186 10.3033 33.2419C10.5438 33.3652 10.8064 33.4403 11.0762 33.463C11.346 33.4856 11.6176 33.4553 11.8756 33.3738C12.1336 33.2923 12.3728 33.1612 12.5797 32.9879C12.7866 32.8147 12.9571 32.6027 13.0814 32.3642C13.2057 32.1256 13.2814 31.865 13.3042 31.5974C13.3271 31.3298 13.2965 31.0603 13.2143 30.8044C13.1322 30.5485 13 30.3111 12.8254 30.1059C12.6265 29.8721 12.6367 29.3483 12.8445 29.1227C13.0524 28.8969 13.5773 28.8394 13.8298 29.0147C14.3216 29.3564 14.5494 30.4481 14.4242 31.8637C14.4045 32.0856 14.3819 32.3064 14.358 32.5401L14.3561 32.5591C14.1895 34.1794 13.9821 36.1958 14.9378 38.0516C15.6755 39.4854 17.1122 40.5998 18.7813 41.0327C19.277 41.1618 19.7874 41.2276 20.2999 41.2284C21.3456 41.2382 22.3708 40.9402 23.2459 40.372C24.8661 39.3017 25.8075 37.8104 25.9684 36.0594C26.1051 34.5728 25.6596 32.9757 24.7141 31.5624C24.6935 31.5316 24.671 31.502 24.6468 31.4738C23.799 30.2788 21.2314 26.096 22.2794 20.613C22.3364 20.3107 22.4089 20.0115 22.4969 19.7166H22.4857C23.5894 16.4961 26.7567 14.0943 30.3104 14.0943C33.9289 14.0943 37.1587 16.4863 38.2095 19.76C38.2919 20.0279 38.3099 20.2956 38.3706 20.6129V20.613C38.4609 21.086 38.5267 21.5633 38.5676 22.0431C38.9752 26.8161 36.7749 30.3861 36.002 31.4754C35.9783 31.5031 35.9563 31.5322 35.936 31.5626C34.9906 32.9757 34.5452 34.5728 34.6819 36.0596C34.8429 37.8107 35.7844 39.3019 37.4044 40.3719C38.2794 40.9402 39.3046 41.2382 40.3504 41.2284C40.863 41.2276 41.3734 41.1618 41.8693 41.0327C43.5382 40.5998 44.9749 39.4855 45.7125 38.0521C46.6679 36.1952 46.4607 34.1781 46.294 32.5562L46.2928 32.5445C46.2686 32.3093 46.2457 32.0871 46.2261 31.8639C46.1009 30.448 46.3286 29.3562 46.82 29.0148C47.0729 28.8394 47.5977 28.8964 47.8057 29.1228C48.0135 29.3483 48.0236 29.8721 47.8247 30.1058C47.6501 30.311 47.5179 30.5484 47.4357 30.8043C47.3535 31.0602 47.3229 31.3296 47.3457 31.5972C47.3684 31.8649 47.4441 32.1254 47.5684 32.364C47.6927 32.6026 47.8631 32.8146 48.07 32.9879C48.2768 33.1611 48.5161 33.2923 48.774 33.3738C49.032 33.4554 49.3036 33.4857 49.5734 33.4631C49.8431 33.4405 50.1058 33.3655 50.3463 33.2422C50.5868 33.1189 50.8005 32.9498 50.9752 32.7446C51.7168 31.8375 52.111 30.6993 52.0881 29.5316C52.0651 28.3638 51.6265 27.2418 50.8499 26.364L50.8499 26.364Z" fill="white"/>
<path d="M59.7928 27.046C59.7964 21.7429 58.3463 16.5386 55.5978 11.9902C52.8493 7.44174 48.9058 3.72032 44.1893 1.22421C43.6801 0.953906 43.0835 0.89534 42.5307 1.0614C41.978 1.22746 41.5144 1.60454 41.2419 2.10968C40.9694 2.61483 40.9104 3.20667 41.0778 3.755C41.2452 4.30333 41.6253 4.76324 42.1345 5.03354C54.3869 11.5242 59.0155 26.6392 52.4727 38.794C45.9299 50.9487 30.6934 55.5404 18.441 49.0498C6.18861 42.5591 1.56005 27.4441 8.10282 15.2893C10.4491 10.9306 14.0472 7.36112 18.441 5.03354C18.6935 4.89996 18.917 4.71831 19.0987 4.49898C19.2804 4.27966 19.4167 4.02696 19.4999 3.75533C19.583 3.48371 19.6114 3.19848 19.5834 2.91596C19.5554 2.63345 19.4715 2.35918 19.3366 2.10884C19.2016 1.8585 19.0183 1.637 18.797 1.457C18.5757 1.277 18.3208 1.14204 18.0469 1.05983C17.773 0.977614 17.4855 0.949763 17.2007 0.977866C16.916 1.00597 16.6396 1.08948 16.3874 1.22361L16.3863 1.22422C2.00843 8.86478 -3.40344 26.6213 4.29851 40.8845C7.32924 46.4972 12.1206 50.9776 17.9473 53.6476H16.2132C15.6913 53.6476 15.1907 53.8532 14.8217 54.2193C14.4526 54.5854 14.2453 55.082 14.2453 55.5997V56.0158C14.2453 56.2722 14.2962 56.526 14.3951 56.7629C14.494 56.9997 14.6389 57.2149 14.8217 57.3962C15.0044 57.5774 15.2213 57.7212 15.4601 57.8194C15.6988 57.9175 15.9547 57.9679 16.2131 57.9679H44.2877C44.8096 57.968 45.3101 57.7623 45.6792 57.3962C46.0482 57.0301 46.2555 56.5336 46.2555 56.0158V55.5997C46.2555 55.082 46.0482 54.5854 45.6792 54.2193C45.3101 53.8532 44.8096 53.6476 44.2877 53.6476H42.6282C47.749 51.2996 52.086 47.5475 55.1274 42.834C58.1688 38.1205 59.7876 32.6424 59.7928 27.046V27.046Z" fill="white"/>
</g>
<path d="M104.84 42.9682H100.32L97.8 36.0482H86.72L84.2 42.9682H79.8L89.76 16.5682H94.88L104.84 42.9682ZM87.92 32.5682H96.6L92.28 20.2482L87.92 32.5682ZM122.652 51.3682V37.1282L123.252 37.6882C123.065 38.8615 122.625 39.8749 121.932 40.7282C121.265 41.5815 120.425 42.2349 119.412 42.6882C118.425 43.1415 117.345 43.3682 116.172 43.3682C114.519 43.3682 113.025 42.9549 111.692 42.1282C110.359 41.3015 109.292 40.1149 108.492 38.5682C107.719 36.9949 107.332 35.1149 107.332 32.9282C107.332 30.7415 107.745 28.8749 108.572 27.3282C109.399 25.7815 110.505 24.6082 111.892 23.8082C113.279 22.9815 114.799 22.5682 116.452 22.5682C117.625 22.5682 118.692 22.8082 119.652 23.2882C120.639 23.7415 121.452 24.3949 122.092 25.2482C122.759 26.0749 123.199 27.0615 123.412 28.2082L122.812 28.4082L123.132 22.9682H126.932V51.3682H122.652ZM117.092 39.8882C118.212 39.8882 119.185 39.6082 120.012 39.0482C120.839 38.4882 121.479 37.6882 121.932 36.6482C122.412 35.5815 122.652 34.3282 122.652 32.8882C122.652 31.3949 122.425 30.1415 121.972 29.1282C121.519 28.1149 120.879 27.3415 120.052 26.8082C119.225 26.2749 118.265 26.0082 117.172 26.0082C115.439 26.0082 114.079 26.6349 113.092 27.8882C112.105 29.1149 111.612 30.8082 111.612 32.9682C111.612 35.1282 112.092 36.8215 113.052 38.0482C114.012 39.2749 115.359 39.8882 117.092 39.8882ZM140.69 43.3682C139.383 43.3682 138.17 43.1282 137.05 42.6482C135.957 42.1682 135.077 41.3949 134.41 40.3282C133.743 39.2615 133.41 37.8749 133.41 36.1682V22.9682H137.69V35.0882C137.69 36.9015 138.077 38.1549 138.85 38.8482C139.623 39.5149 140.703 39.8482 142.09 39.8482C142.757 39.8482 143.397 39.7415 144.01 39.5282C144.65 39.2882 145.223 38.9282 145.73 38.4482C146.237 37.9415 146.623 37.3015 146.89 36.5282C147.183 35.7549 147.33 34.8482 147.33 33.8082V22.9682H151.61V42.9682H147.85L147.65 39.7282C146.957 40.9815 146.023 41.9015 144.85 42.4882C143.677 43.0749 142.29 43.3682 140.69 43.3682ZM169.857 30.1282C169.857 28.7949 169.483 27.7682 168.737 27.0482C168.017 26.3015 167.017 25.9282 165.737 25.9282C164.537 25.9282 163.51 26.2082 162.657 26.7682C161.803 27.3282 161.177 28.2349 160.777 29.4882L157.177 27.9682C157.683 26.3415 158.67 25.0349 160.137 24.0482C161.63 23.0615 163.55 22.5682 165.897 22.5682C167.497 22.5682 168.91 22.8349 170.137 23.3682C171.363 23.8749 172.323 24.6482 173.017 25.6882C173.737 26.7282 174.097 28.0615 174.097 29.6882V38.6082C174.097 39.5949 174.59 40.0882 175.577 40.0882C176.057 40.0882 176.523 40.0215 176.977 39.8882L176.737 42.8482C176.123 43.1415 175.35 43.2882 174.417 43.2882C173.563 43.2882 172.79 43.1415 172.097 42.8482C171.43 42.5282 170.897 42.0615 170.497 41.4482C170.123 40.8082 169.937 40.0215 169.937 39.0882V38.8082L170.817 38.7682C170.577 39.8082 170.083 40.6749 169.337 41.3682C168.59 42.0349 167.723 42.5415 166.737 42.8882C165.75 43.2082 164.75 43.3682 163.737 43.3682C162.483 43.3682 161.35 43.1682 160.337 42.7682C159.35 42.3682 158.563 41.7682 157.977 40.9682C157.417 40.1415 157.137 39.1282 157.137 37.9282C157.137 36.4349 157.617 35.2082 158.577 34.2482C159.563 33.2882 160.95 32.6349 162.737 32.2882L170.497 30.7682L170.457 33.7682L164.817 34.9282C163.697 35.1415 162.857 35.4482 162.297 35.8482C161.737 36.2482 161.457 36.8349 161.457 37.6082C161.457 38.3549 161.737 38.9549 162.297 39.4082C162.883 39.8349 163.657 40.0482 164.617 40.0482C165.283 40.0482 165.923 39.9682 166.537 39.8082C167.177 39.6482 167.75 39.3949 168.257 39.0482C168.763 38.6749 169.15 38.2082 169.417 37.6482C169.71 37.0615 169.857 36.3682 169.857 35.5682V30.1282ZM181.109 42.9682V22.9682H184.749L185.149 26.5682C185.682 25.2615 186.469 24.2749 187.509 23.6082C188.576 22.9149 189.882 22.5682 191.429 22.5682C191.829 22.5682 192.229 22.6082 192.629 22.6882C193.029 22.7415 193.362 22.8349 193.629 22.9682L193.029 26.7282C192.736 26.6215 192.402 26.5415 192.029 26.4882C191.682 26.4082 191.202 26.3682 190.589 26.3682C189.762 26.3682 188.949 26.5949 188.149 27.0482C187.349 27.4749 186.682 28.1282 186.149 29.0082C185.642 29.8882 185.389 31.0082 185.389 32.3682V42.9682H181.109ZM199.832 19.6082C198.898 19.6082 198.178 19.3815 197.672 18.9282C197.192 18.4482 196.952 17.7815 196.952 16.9282C196.952 16.0749 197.192 15.4215 197.672 14.9682C198.178 14.5149 198.898 14.2882 199.832 14.2882C200.738 14.2882 201.432 14.5149 201.912 14.9682C202.418 15.4215 202.672 16.0749 202.672 16.9282C202.672 17.7815 202.418 18.4482 201.912 18.9282C201.432 19.3815 200.738 19.6082 199.832 19.6082ZM201.952 22.9682V42.9682H197.672V22.9682H201.952ZM216.248 43.3682C214.248 43.3682 212.421 42.9815 210.768 42.2082C209.115 41.4349 207.808 40.3415 206.848 38.9282L209.808 36.3682C210.395 37.4615 211.235 38.3415 212.328 39.0082C213.448 39.6482 214.781 39.9682 216.328 39.9682C217.555 39.9682 218.528 39.7549 219.248 39.3282C219.968 38.9015 220.328 38.3015 220.328 37.5282C220.328 37.0215 220.155 36.5815 219.808 36.2082C219.488 35.8082 218.861 35.5015 217.928 35.2882L213.728 34.4082C211.595 33.9815 210.075 33.3015 209.168 32.3682C208.261 31.4082 207.808 30.1949 207.808 28.7282C207.808 27.6349 208.128 26.6215 208.768 25.6882C209.408 24.7549 210.341 24.0082 211.568 23.4482C212.821 22.8615 214.315 22.5682 216.048 22.5682C218.048 22.5682 219.755 22.9282 221.168 23.6482C222.581 24.3415 223.661 25.3415 224.408 26.6482L221.448 29.1282C220.941 28.0615 220.195 27.2749 219.208 26.7682C218.221 26.2349 217.195 25.9682 216.128 25.9682C215.275 25.9682 214.541 26.0749 213.928 26.2882C213.315 26.5015 212.848 26.7949 212.528 27.1682C212.208 27.5415 212.048 27.9815 212.048 28.4882C212.048 29.0215 212.248 29.4882 212.648 29.8882C213.048 30.2882 213.768 30.5949 214.808 30.8082L219.368 31.7682C221.288 32.1415 222.635 32.7815 223.408 33.6882C224.208 34.5682 224.608 35.6482 224.608 36.9282C224.608 38.2082 224.275 39.3415 223.608 40.3282C222.941 41.2882 221.981 42.0349 220.728 42.5682C219.475 43.1015 217.981 43.3682 216.248 43.3682ZM235.66 17.0882V36.9682C235.66 37.9549 235.913 38.6749 236.42 39.1282C236.953 39.5815 237.66 39.8082 238.54 39.8082C239.26 39.8082 239.887 39.7015 240.42 39.4882C240.953 39.2482 241.447 38.9282 241.9 38.5282L242.86 41.6482C242.247 42.1815 241.487 42.6082 240.58 42.9282C239.7 43.2215 238.713 43.3682 237.62 43.3682C236.473 43.3682 235.42 43.1815 234.46 42.8082C233.5 42.4349 232.753 41.8349 232.22 41.0082C231.687 40.1549 231.407 39.0482 231.38 37.6882V18.2882L235.66 17.0882ZM242.54 22.9682V26.3282H227.54V22.9682H242.54ZM264.661 39.2882H279.221V42.9682H260.381V16.5682H264.661V39.2882ZM295.286 30.1282C295.286 28.7949 294.913 27.7682 294.166 27.0482C293.446 26.3015 292.446 25.9282 291.166 25.9282C289.966 25.9282 288.94 26.2082 288.086 26.7682C287.233 27.3282 286.606 28.2349 286.206 29.4882L282.606 27.9682C283.113 26.3415 284.1 25.0349 285.566 24.0482C287.06 23.0615 288.98 22.5682 291.326 22.5682C292.926 22.5682 294.34 22.8349 295.566 23.3682C296.793 23.8749 297.753 24.6482 298.446 25.6882C299.166 26.7282 299.526 28.0615 299.526 29.6882V38.6082C299.526 39.5949 300.02 40.0882 301.006 40.0882C301.486 40.0882 301.953 40.0215 302.406 39.8882L302.166 42.8482C301.553 43.1415 300.78 43.2882 299.846 43.2882C298.993 43.2882 298.22 43.1415 297.526 42.8482C296.86 42.5282 296.326 42.0615 295.926 41.4482C295.553 40.8082 295.366 40.0215 295.366 39.0882V38.8082L296.246 38.7682C296.006 39.8082 295.513 40.6749 294.766 41.3682C294.02 42.0349 293.153 42.5415 292.166 42.8882C291.18 43.2082 290.18 43.3682 289.166 43.3682C287.913 43.3682 286.78 43.1682 285.766 42.7682C284.78 42.3682 283.993 41.7682 283.406 40.9682C282.846 40.1415 282.566 39.1282 282.566 37.9282C282.566 36.4349 283.046 35.2082 284.006 34.2482C284.993 33.2882 286.38 32.6349 288.166 32.2882L295.926 30.7682L295.886 33.7682L290.246 34.9282C289.126 35.1415 288.286 35.4482 287.726 35.8482C287.166 36.2482 286.886 36.8349 286.886 37.6082C286.886 38.3549 287.166 38.9549 287.726 39.4082C288.313 39.8349 289.086 40.0482 290.046 40.0482C290.713 40.0482 291.353 39.9682 291.966 39.8082C292.606 39.6482 293.18 39.3949 293.686 39.0482C294.193 38.6749 294.58 38.2082 294.846 37.6482C295.14 37.0615 295.286 36.3682 295.286 35.5682V30.1282ZM317.259 43.3682C316.085 43.3682 315.005 43.1415 314.019 42.6882C313.059 42.2349 312.245 41.6082 311.579 40.8082C310.912 39.9815 310.419 39.0615 310.099 38.0482L310.619 37.3682L310.299 42.9682H306.539V13.9682H310.819V28.0082L310.339 27.3282C310.845 25.9415 311.712 24.8082 312.939 23.9282C314.165 23.0215 315.645 22.5682 317.379 22.5682C318.979 22.5682 320.445 22.9815 321.779 23.8082C323.139 24.6349 324.205 25.8215 324.979 27.3682C325.752 28.9149 326.139 30.7949 326.139 33.0082C326.139 35.1682 325.739 37.0215 324.939 38.5682C324.165 40.1149 323.099 41.3015 321.739 42.1282C320.405 42.9549 318.912 43.3682 317.259 43.3682ZM316.339 39.9282C318.072 39.9282 319.419 39.3149 320.379 38.0882C321.365 36.8349 321.859 35.1282 321.859 32.9682C321.859 30.8082 321.379 29.1149 320.419 27.8882C319.459 26.6615 318.112 26.0482 316.379 26.0482C315.259 26.0482 314.285 26.3415 313.459 26.9282C312.632 27.4882 311.979 28.2882 311.499 29.3282C311.045 30.3682 310.819 31.6082 310.819 33.0482C310.819 34.4615 311.045 35.6882 311.499 36.7282C311.952 37.7415 312.592 38.5282 313.419 39.0882C314.272 39.6482 315.245 39.9282 316.339 39.9282ZM339.217 43.3682C337.217 43.3682 335.39 42.9815 333.737 42.2082C332.084 41.4349 330.777 40.3415 329.817 38.9282L332.777 36.3682C333.364 37.4615 334.204 38.3415 335.297 39.0082C336.417 39.6482 337.75 39.9682 339.297 39.9682C340.524 39.9682 341.497 39.7549 342.217 39.3282C342.937 38.9015 343.297 38.3015 343.297 37.5282C343.297 37.0215 343.124 36.5815 342.777 36.2082C342.457 35.8082 341.83 35.5015 340.897 35.2882L336.697 34.4082C334.564 33.9815 333.044 33.3015 332.137 32.3682C331.23 31.4082 330.777 30.1949 330.777 28.7282C330.777 27.6349 331.097 26.6215 331.737 25.6882C332.377 24.7549 333.31 24.0082 334.537 23.4482C335.79 22.8615 337.284 22.5682 339.017 22.5682C341.017 22.5682 342.724 22.9282 344.137 23.6482C345.55 24.3415 346.63 25.3415 347.377 26.6482L344.417 29.1282C343.91 28.0615 343.164 27.2749 342.177 26.7682C341.19 26.2349 340.164 25.9682 339.097 25.9682C338.244 25.9682 337.51 26.0749 336.897 26.2882C336.284 26.5015 335.817 26.7949 335.497 27.1682C335.177 27.5415 335.017 27.9815 335.017 28.4882C335.017 29.0215 335.217 29.4882 335.617 29.8882C336.017 30.2882 336.737 30.5949 337.777 30.8082L342.337 31.7682C344.257 32.1415 345.604 32.7815 346.377 33.6882C347.177 34.5682 347.577 35.6482 347.577 36.9282C347.577 38.2082 347.244 39.3415 346.577 40.3282C345.91 41.2882 344.95 42.0349 343.697 42.5682C342.444 43.1015 340.95 43.3682 339.217 43.3682Z" fill="white"/>
<defs>
<clipPath id="clip0_24_28">
<rect width="59" height="57" fill="white" transform="translate(0.792786 0.968216)"/>
</clipPath>
</defs>
</svg>
