<?xml version="1.0" encoding="UTF-8" standalone="no"?>
<!-- Created with Inkscape (http://www.inkscape.org/) -->

<svg
   width="42.365429mm"
   height="26.482447mm"
   viewBox="0 0 42.365429 26.482447"
   version="1.1"
   id="svg1"
   xml:space="preserve"
   xmlns="http://www.w3.org/2000/svg"
   xmlns:svg="http://www.w3.org/2000/svg"><defs
     id="defs1"><clipPath
       clipPathUnits="userSpaceOnUse"
       id="clipPath138"><path
         id="path139"
         style="fill:#ff0000;fill-opacity:1;fill-rule:nonzero;stroke:none;stroke-width:0.264583"
         d="m 27.324431,19.267558 v 19.13475 c 0.137007,0.02024 0.264583,0.166481 0.264583,0.43925 v 0.515729 0.345715 0.347784 c 0.0334,0.05895 0.05076,0.123915 0.08526,0.182933 0.0068,0.01167 0.01966,0.01929 0.02635,0.03101 0.0154,0.02679 0.0488,0.09836 0.06821,0.139525 0.01058,0.04626 0.02674,0.09133 0.03204,0.138493 0.0067,0.05964 -0.0044,0.159454 -0.0088,0.223243 -0.0069,0.100192 -0.0048,0.199863 -0.0041,0.300241 0.0028,0.100465 0.0026,0.201316 0.0021,0.301789 -1.88e-4,0.07176 5.29e-4,0.143216 5.29e-4,0.214974 -9e-5,0.154487 -5e-6,0.309049 0,0.463539 8e-6,0.08605 -3e-6,0.172329 0,0.258382 v 0.310576 0.103867 0.01447 0.427365 0.23926 c -6.6e-5,0.04331 2.62e-4,0.07648 0,0.10232 -0.0016,0.122984 -0.0296,0.06911 -0.297656,0.02791 -0.0734,0.01127 -0.126662,0.0232 -0.168466,0.03256 V 67.32044 H 79.069076 V 19.267558 H 39.915394 c 7.93e-4,0.01188 0.0019,0.02328 0.0016,0.03669 -0.0019,0.111866 -0.143306,0.17196 -0.214974,0.257865 -0.222874,0.186471 -0.483558,0.317126 -0.740008,0.449585 -0.11349,0.05862 -0.213778,0.07823 -0.298172,0.07235 -0.02146,0.01137 -0.0437,0.02074 -0.06563,0.03101 0.03157,0.01441 0.05881,0.03499 0.07907,0.0646 0.209206,0.305884 -0.09699,0.527377 -0.27957,0.653707 -0.22148,0.153245 -0.453535,0.289954 -0.69298,0.412894 0.142372,0.308738 -0.0075,0.451455 -0.211358,0.567408 -0.30771,0.175044 -0.650991,0.27282 -0.993219,0.35295 -0.111405,0.02191 -0.225528,0.04311 -0.339,0.06666 -0.0075,0.06048 -0.0269,0.120673 -0.04599,0.207739 -0.08599,0.151695 -0.102825,0.202486 -0.230994,0.334347 -0.0047,0.0049 -0.01045,0.0081 -0.0155,0.0124 0.0067,0.0062 0.0095,0.01402 0.0062,0.02377 -0.02151,0.06305 -0.04987,0.113846 -0.08371,0.156062 0.01413,-6.62e-4 0.02328,-0.0011 0.01344,0.0026 -0.0071,0.0026 -0.01447,0.0045 -0.0217,0.0067 -0.0021,0.0024 -0.0042,0.0044 -0.0062,0.0067 -0.01278,0.07398 -0.03415,0.149871 -0.06408,0.227376 0.04221,-0.002 0.08443,-0.0038 0.126609,-0.0057 0.04047,-0.0018 0.110561,-0.04363 0.121438,-0.0047 0.01162,0.04167 -0.0026,0.08325 -0.02066,0.125056 0.01746,0.02652 0.031,0.0539 0.02894,0.08475 -0.0016,0.02549 -0.0343,0.01957 -0.0677,0.0124 -1.41e-4,5.03e-4 -2.52e-4,9.53e-4 -5.3e-4,0.0016 -0.043,0.0065 -0.08624,0.01381 -0.12919,0.02067 0.124142,0.05755 0.263273,0.151413 0.07958,0.239778 -0.100121,0.04816 -0.210423,0.07186 -0.318844,0.09612 -0.07776,0.0174 -0.173297,0.0352 -0.274918,0.05323 -0.09183,0.08229 -0.181909,0.161038 -0.289388,0.257349 -0.06118,0.04234 -0.123267,0.08324 -0.183452,0.127124 -2.64e-4,0.02833 -0.0077,0.06553 -0.02585,0.115755 -0.01574,0.04365 -0.07454,0.05636 -0.117306,0.07441 -0.0302,0.01275 -0.06147,0.02347 -0.0925,0.03411 -0.03933,0.05436 -0.09146,0.09657 -0.153998,0.13746 -2.65e-4,0.0025 5.29e-4,0.0052 0,0.0078 -0.01389,0.06805 -0.044,0.126669 -0.07752,0.182935 0.0085,-7.67e-4 0.01519,-0.0013 0.02376,-0.0021 0.01638,-0.0016 0.03271,-0.0031 0.04909,-0.0047 0.01381,-0.0013 0.05412,-0.009 0.04134,-0.0036 -5.29e-4,1.76e-4 -5.29e-4,3.44e-4 -0.0011,5.3e-4 0.02101,-0.0019 0.02796,-0.0026 0.05064,-0.0047 0.0058,0.0068 0.01169,0.01274 0.01757,0.0186 0.08939,-0.01285 0.178853,-0.02561 0.2682,-0.03876 0.08393,-0.01235 0.167585,-0.02642 0.251664,-0.03772 0.0061,-8.2e-4 0.01241,-0.0024 0.0186,-0.0036 0.0705,-0.02695 0.139274,-0.04083 0.203089,-0.01602 0.01378,0.0054 0.01543,0.02104 0.01085,0.03824 0.01418,0.02482 0.01902,0.05361 0.0011,0.06615 -0.06437,0.04484 -0.155527,0.01897 -0.233579,0.02687 -0.0291,0.003 -0.05822,0.0054 -0.08733,0.0083 -0.04961,0.0076 -0.09917,0.01543 -0.148828,0.02274 -0.04978,0.0073 -0.09954,0.01454 -0.149347,0.0217 0.005,0.01694 0.0045,0.03322 -0.0072,0.04237 -0.01855,0.01446 -0.04058,0.02106 -0.06408,0.02377 -5.29e-4,0.0011 -5.29e-4,0.002 -0.0011,0.0031 -0.01392,0.02588 -0.04591,0.02156 -0.0801,0.01395 -0.0016,8.47e-4 -0.0032,0.0023 -0.0047,0.0031 -0.05963,0.03201 -0.134384,0.01864 -0.201022,0.03049 -0.06994,0.01244 -0.13916,0.02778 -0.208772,0.04186 -0.02609,0.01696 -0.05208,0.03382 -0.07958,0.04857 0.0021,0.0036 0.0051,0.0074 0.0072,0.01085 0.249033,-0.01902 0.498162,-0.03786 0.747241,-0.05633 0.09714,-0.0072 0.194292,-0.01428 0.291455,-0.02119 0.07628,-0.0068 0.152603,-0.01284 0.228928,-0.01912 0.0013,7.94e-4 0.0032,0.0013 0.0047,0.0021 0.01066,-7.94e-4 0.02138,-0.0013 0.03204,-0.0021 0.04104,-0.0031 0.13384,-0.05107 0.122989,-0.01137 -0.0066,0.02401 -0.02387,0.04104 -0.04496,0.05529 0.0241,0.01106 0.04474,0.02587 0.05478,0.04961 0.01627,0.03852 -0.08337,0.0082 -0.125058,0.01137 -0.07608,0.0058 -0.152302,0.01111 -0.22841,0.01654 -0.02808,0.0024 -0.05619,0.0039 -0.08423,0.0067 -0.09906,0.0098 -0.197483,0.02511 -0.296622,0.03411 -0.324496,0.02953 -0.343286,0.01887 -0.67696,0.03927 -0.133663,0.01004 -0.151863,0.01128 -0.200507,0.01499 -0.0019,0.0028 -0.0061,0.0025 -0.01085,0.001 h -5.29e-4 c -5.29e-4,1.06e-4 -0.0011,-1.04e-4 -0.0016,0 -0.0013,2.6e-4 -0.0024,7.68e-4 -0.0036,0.001 -0.0051,0.0013 -0.01037,0.0027 -0.0155,0.0041 0.11811,-0.0055 0.236387,-0.01004 0.3545,-0.0155 0.109619,-0.005 0.21858,-0.01029 0.327628,-0.0155 0.03323,-0.0088 0.0666,-0.01617 0.09767,-0.0052 l 5.29e-4,5.29e-4 c 0.02016,-9.79e-4 0.04028,-0.0021 0.06046,-0.0031 -0.0083,0.01568 -0.01349,0.03451 -0.01963,0.05219 0.0078,0.01805 0.01487,0.03736 0.02479,0.05271 -0.02043,9.79e-4 -0.04134,0.0021 -0.06201,0.0031 -0.0075,0.0045 -0.01556,0.0073 -0.02379,0.0098 0.0019,0.01676 -0.0033,0.04001 -0.0186,0.07183 -0.0096,0.01994 -0.04182,0.01647 -0.06356,0.02067 -0.07398,0.01429 -0.141028,0.02015 -0.209291,0.02429 -0.01651,0.003 -0.0329,0.0052 -0.04961,0.0067 -0.121449,0.01132 -0.243409,0.01594 -0.365353,0.01912 0.0019,0.01119 0.0033,0.02278 0.0031,0.03359 -2.65e-4,0.01351 -0.02535,-0.0013 -0.03979,-0.0036 -0.0011,7.68e-4 -0.0016,0.0018 -0.0026,0.0026 -0.02119,0.01657 -0.05424,-0.001 -0.08113,0 -0.03985,0.0015 -0.07953,0.0055 -0.119372,0.0072 -0.04406,0.0019 -0.0659,0.002 -0.09922,0.0031 -0.003,0.01649 -0.0042,0.02457 -0.0062,0.03617 0.02619,-0.0031 0.05522,-0.0069 0.07596,-0.0088 0.0428,-0.0039 0.08573,-0.0026 0.128677,-0.0041 5.29e-4,0.0012 0.0016,0.0024 0.0021,0.0036 0.0048,-8.73e-4 0.0083,3.97e-4 0.0098,0.0057 0.0016,0.0056 0.0016,0.01105 0.0011,0.01654 0.0019,0.0033 0.0033,0.0066 0.0052,0.0098 0.03762,2.07e-4 0.07504,5.82e-4 0.112655,0.001 0.01336,-0.0038 0.02606,-0.0062 0.03514,5.3e-4 0.02882,2.7e-5 0.05518,0.0019 0.05374,0.02635 0.03718,-0.0014 0.07635,-0.0023 0.130741,-10e-4 0.03064,7.14e-4 0.08598,0.0016 0.134877,0.0124 0.0073,-0.0032 0.01778,-0.004 0.03255,-5.29e-4 -0.0118,6.35e-4 -0.01744,9.79e-4 -0.0279,0.0016 0.03629,0.0086 0.06838,0.02284 0.0832,0.04754 0.01286,0.02145 -0.03305,0.03758 -0.04961,0.05633 -0.0064,3.44e-4 -0.009,1.92e-4 -0.01498,5.29e-4 9.8e-5,0.0012 5.3e-4,0.0024 5.3e-4,0.0036 0.0089,2.4e-4 0.0065,2.34e-4 0.01706,5.29e-4 0.02884,7.94e-4 0.06355,-0.01447 0.08682,0.0026 0.09383,0.06876 0.07708,0.113668 0.0011,0.144178 -0.05144,0.02064 -0.106482,0.03095 -0.159682,0.04651 -0.08865,0.01649 -0.176643,0.0385 -0.266133,0.04961 -0.02839,0.0035 -0.05675,0.0065 -0.08526,0.0088 0.006,6.88e-4 0.0087,8.2e-4 0.01497,0.0016 -0.0024,0.0034 -0.0037,0.0057 -0.0057,0.0088 0.0176,-8.2e-4 0.03513,-0.0015 0.05271,-0.0026 0.0075,-4.49e-4 0.0465,-0.0059 0.07958,-0.0047 0.0049,-9e-4 0.0088,-0.0013 0.01085,5.29e-4 0.01908,0.0018 0.03468,0.0069 0.03772,0.01809 0.0271,0.09961 -0.03116,0.09603 -0.07958,0.09353 -0.0105,-5.55e-4 -0.02103,-0.0018 -0.03152,-0.0026 -0.0024,10e-6 -0.0049,-1.45e-4 -0.0072,0 -0.04184,0.0027 -0.0837,0.0041 -0.125574,0.0062 -0.06479,-0.0016 -0.141692,-0.0037 -0.219106,-0.0057 0.02604,0.06986 0.01884,0.07895 -0.0186,0.08217 -0.0282,0.01005 -0.05583,0.02069 -0.08475,0.02842 -0.03552,0.0094 -0.07208,0.01545 -0.108003,0.02325 -0.05156,0.0041 -0.102783,0.01221 -0.154514,0.01292 -0.163404,0.0022 -0.228756,-0.01565 -0.395325,-0.03514 -0.120242,-0.01405 -0.172947,-0.01993 -0.207221,-0.02325 -0.0085,0.0016 -0.01696,0.0078 -0.02532,0.0067 -0.0056,0.01411 -0.01087,0.02829 -0.0186,0.04134 -0.01087,0.01833 -0.01937,0.02964 -0.02894,0.04392 0.0959,0.01391 0.19176,0.0333 0.258898,0.06976 0.05595,0.03039 0.09301,0.08728 0.139528,0.130741 0.01836,0.05342 0.03807,0.106396 0.05529,0.160197 0.005,0.01558 0.0024,0.03273 0.0031,0.04909 0.0029,0.06704 -0.0013,0.134149 -0.0057,0.20102 -0.0021,0.02736 -0.0041,0.05429 -0.0062,0.08165 -0.0013,0.01871 0.01265,0.04873 -0.0047,0.05633 -0.01524,0.0067 -0.02755,-0.059 -0.02635,-0.04237 0.0059,0.08386 0.05371,0.16592 0.04134,0.249081 -0.02085,0.140227 -0.101539,0.18827 -0.19172,0.261998 -0.06082,0.03934 -0.118737,0.08383 -0.182417,0.118341 -0.06009,0.03256 -0.12502,0.05466 -0.187584,0.08216 -0.122137,0.0537 -0.19576,0.08948 -0.321945,0.131776 -0.0067,0.0021 -0.01439,-0.0013 -0.02119,5.29e-4 -0.01016,0.0027 -0.01934,0.0085 -0.02894,0.01291 -0.08618,0.03706 -0.09799,0.106294 -0.167431,0.175183 -0.124362,0.123378 -0.286599,0.182838 -0.440799,0.25735 -0.04879,0.01982 -0.166851,0.07014 -0.264583,0.104386 -0.02807,0.05957 -0.05795,0.118044 -0.08682,0.17725 -0.04358,0.08942 -0.08683,0.179194 -0.130225,0.268718 -0.257058,0.530297 -0.794475,0.273479 -0.537435,-0.256833 0.03665,-0.07561 0.07334,-0.151263 0.110072,-0.226859 -0.04952,-0.0089 -0.08883,-0.06474 -0.07131,-0.163815 0.0024,-0.0131 0.0057,-0.02519 0.0088,-0.03772 -0.02077,0.0055 -0.04147,0.01169 -0.06253,0.01601 -0.02863,0.0059 -0.06619,0.03467 -0.08682,0.01394 -0.04506,-0.04522 -0.0499,-0.117496 -0.07493,-0.176215 0.0059,-0.0063 0.01138,-0.01312 0.01757,-0.01913 0.0036,-0.0035 0.0086,-0.0056 0.01188,-0.0093 0.0051,-0.0057 0.01013,-0.01818 0.01498,-0.02687 0.0032,-0.01344 0.0069,-0.02687 0.01291,-0.03927 0.0043,-0.009 0.01979,-0.02479 0.03721,-0.04082 -0.03358,-0.02421 -0.03099,-0.06006 0,-0.113689 0.0013,-0.0024 0.0036,-0.004 0.0052,-0.0062 -0.0016,-5.3e-4 -0.003,-0.0016 -0.0047,-0.0021 -0.0275,-0.0065 -0.05573,-0.0079 -0.08371,-0.01188 -0.02945,-0.06904 -0.07857,-0.132802 -0.08837,-0.207224 -0.0028,-0.02114 0.03775,-0.02011 0.05736,-0.02842 0.07016,-0.02985 0.142012,-0.05575 0.211873,-0.0863 0.120086,-0.0525 0.239575,-0.105987 0.358116,-0.161748 0.0033,-0.0039 0.0054,-0.0092 0.0088,-0.01291 0.0019,-0.0021 0.0026,0.0036 0.0036,0.0072 5.29e-4,-2.33e-4 0.0011,-2.51e-4 0.0016,-5.29e-4 0.0026,-0.0055 0.0053,-0.01093 0.0078,-0.01654 -0.0131,-0.07352 -0.02582,-0.174381 -0.04651,-0.32453 -0.0051,-0.03683 0.03686,-0.05743 0.07545,-0.07752 0.0176,-0.07928 0.0479,-0.148029 0.0956,-0.212905 0.015,-0.04254 0.03972,-0.09164 0.09043,-0.1788 0.03082,-0.05297 0.0855,-0.08778 0.128159,-0.131775 0.01553,-0.0071 0.03112,-0.01384 0.04651,-0.02119 2.65e-4,-0.0052 1.9e-5,-0.0106 0.0011,-0.0155 -0.05531,0.02389 -0.112429,0.05708 -0.15503,0.06925 -0.09728,0.02779 -0.201387,0.08426 -0.298172,0.05478 -0.150299,-0.04578 -0.159443,-0.163477 -0.163814,-0.274919 -0.11186,-0.03749 -0.22569,-0.06979 -0.33538,-0.113171 -0.007,-0.0028 -0.0034,-0.0144 -0.0052,-0.0217 -0.0047,-0.01963 -0.01164,-0.03886 -0.01394,-0.05891 -0.0114,-0.0991 -8e-6,-0.166606 0.03721,-0.257866 0.08813,-0.223283 0.0016,-0.01613 0.09353,-0.208256 0.02312,-0.04835 0.04321,-0.09856 0.06666,-0.146761 0.120089,-0.246841 0.25536,-0.487119 0.429948,-0.700215 0.138898,-0.151618 0.265994,-0.299933 0.422712,-0.434083 0.0021,-0.0018 0.0053,-0.0038 0.0078,-0.0057 -0.03109,-0.05182 -0.05112,-0.120482 -0.05219,-0.22841 -7.94e-4,-0.08601 0.04171,-0.158224 0.104388,-0.219107 -0.01069,-0.006 -0.02164,-0.01382 -0.03256,-0.02429 -0.06085,-0.05831 -0.10038,-0.148867 -0.108521,-0.238745 -0.0026,-1.11e-4 -0.0048,-0.001 -0.0052,-0.0036 -0.0021,-0.01484 -5.29e-4,-0.03596 0.0036,-0.05839 -0.0035,-0.0079 -0.0075,-0.01547 -0.01291,-0.02222 -0.120793,-0.149768 -0.309655,-0.226995 -0.340548,-0.452169 -0.04624,-0.336942 0.217786,-0.496772 0.476456,-0.610299 0.2389,-0.104854 0.496533,-0.161186 0.744657,-0.241846 0.357595,-0.07855 0.712755,-0.169234 1.072803,-0.235644 0.837131,-0.154413 1.004657,-0.160181 1.459341,-0.206706 0.02352,-0.0146 0.04738,-0.02836 0.07131,-0.04237 0.03487,-0.03575 0.06742,-0.07217 0.09664,-0.11007 0.10129,-0.131425 0.07868,-0.238591 0.06046,-0.371037 -0.07372,0.03639 -0.149305,0.0698 -0.223758,0.104386 -0.143577,0.06669 -0.288917,0.130059 -0.437182,0.185519 -0.234696,0.08779 -0.336047,0.109477 -0.544153,0.161747 -0.404167,0.101508 -0.506486,-0.308824 -0.101803,-0.408244 0.18143,-0.04457 0.278193,-0.06567 0.482139,-0.141593 0.468831,-0.174515 0.318439,-0.146826 0.723988,-0.315743 0.0056,-0.0023 0.01188,-0.0021 0.0181,-0.0016 0.0057,-0.100021 0.0465,-0.179655 0.162782,-0.179834 0.237461,-3.7e-4 0.280998,0.08458 0.272852,0.183968 0.04796,-0.0047 0.168426,0.11176 0.01654,0.180351 0.01529,0.06353 0.03094,0.12671 0.04651,0.190169 -0.0032,0.09326 0.0094,0.188733 -0.0031,0.280604 0.184558,-0.04349 0.374944,-0.05059 0.567407,-0.0041 0.0059,-0.0039 0.01175,-0.0067 0.01757,-0.01034 0.0011,-0.0013 0.0043,-0.0023 0.0057,-0.0036 0.02024,-0.01856 0.06568,-0.03501 0.09405,-0.03876 0.08098,-0.03514 0.153467,-0.05455 0.248047,-0.0708 0.04034,-0.0069 0.08081,-0.01249 0.121439,-0.01809 -0.01566,-0.01062 -0.02514,-0.0202 -0.0279,-0.02842 -0.04001,-0.02901 -0.0802,-0.05747 -0.121957,-0.08113 0.02548,-0.04383 0.04606,-0.09121 0.07648,-0.131775 0.03571,-0.04761 0.195739,-0.196785 0.250632,-0.187585 5.29e-4,9.2e-5 0.0016,3.71e-4 0.0021,5.29e-4 0.104433,-0.09723 0.21301,-0.192133 0.33383,-0.26665 0.02543,-0.01568 0.05234,-0.02801 0.07855,-0.04186 0.025,-0.158096 0.06561,-0.30426 0.186036,-0.458887 0.185076,-0.237619 0.438124,-0.379176 0.712618,-0.482658 0.07398,-0.02789 0.151913,-0.04289 0.229444,-0.05943 0.06713,-0.0349 0.1358,-0.06721 0.204121,-0.09974 -0.003,-0.01491 -0.003,-0.01493 -0.0057,-0.02791 z m 8.907984,1.837097 c 0.01267,0.0092 0.02564,0.01751 0.03824,0.02687 0.0526,-0.0071 0.105272,-0.01181 0.158128,-0.0155 -0.05605,-0.02883 -0.112866,-0.04707 -0.173114,-0.03462 -0.02257,0.0047 -0.02656,0.01336 -0.02326,0.02325 z m 0.03824,0.02687 c -0.0035,4.76e-4 -0.0069,0.0011 -0.01035,0.0016 0.01259,0.0085 0.02768,0.01742 0.04599,0.02687 7.94e-4,-1.48e-4 0.0013,-3.7e-4 0.0021,-5.29e-4 -0.01259,-0.0094 -0.02513,-0.01855 -0.03772,-0.02791 z M 35.162712,20.80803 c -0.0029,-0.01208 -0.006,-0.02408 -0.0088,-0.03617 -0.0065,-0.02744 -0.01252,-0.05506 -0.0181,-0.08268 -0.0077,0.03363 -0.01699,0.06742 -0.02482,0.0987 -0.01376,0.01512 -0.0266,0.03166 -0.03927,0.04806 0.03824,-0.0077 0.06731,-0.01721 0.09095,-0.02791 z m -0.02687,-0.118856 c 0.0048,-0.02089 0.0087,-0.04124 0.01035,-0.0615 -0.01236,0.0012 -0.02048,0.01013 -0.01707,0.03049 0.0019,0.01041 0.0046,0.02065 0.0067,0.03101 z m -3.970819,2.642216 c 5.29e-4,0.001 5.29e-4,0.0021 0.0011,0.0031 5.3e-4,-0.0065 0.0013,-0.01276 0.0021,-0.01912 -0.0013,0.0055 -0.0021,0.01064 -0.0031,0.01602 z m 0.0011,0.0031 c -0.0013,0.01934 -0.0013,0.03911 5.3e-4,0.05891 0.0053,2.3e-4 0.01373,-0.0033 0.01913,-0.0031 -0.0075,-0.01809 -0.01217,-0.03773 -0.01963,-0.05581 z m 3.024106,2.236556 c -0.0016,-3.71e-4 -0.0031,-6.88e-4 -0.0047,-10e-4 -0.0011,4.23e-4 -0.0019,10e-4 -0.0026,0.0016 0.0026,-1.46e-4 0.0045,-3.7e-4 0.0072,-5.29e-4 z m 5.215183,-5.956742 c -0.0021,0.0028 -0.0045,0.0055 -0.0067,0.0083 0.0047,0.0049 0.01161,0.01054 0.01497,0.01447 -0.0032,-0.0072 -0.0069,-0.01277 -0.0083,-0.02274 z m -3.018419,1.136881 c -0.0077,0.0075 -0.01556,0.01524 -0.02326,0.02274 0.0079,-0.0075 0.01638,-0.01468 0.02429,-0.02222 -2.65e-4,-1.13e-4 -7.94e-4,-3.97e-4 -0.0011,-5.3e-4 z m 0.526582,0.870748 c -0.01003,-5.82e-4 0.01712,0.02182 0.02532,0.01602 0.0048,-0.0034 0.0096,-0.007 0.01447,-0.01034 -0.01042,-0.0012 -0.03283,-0.0053 -0.03979,-0.0057 z m -1.813325,0.302824 c -0.116522,0.01403 -0.235678,0.02835 -0.326596,0.03824 -0.155596,0.129645 -0.336373,0.245906 -0.514178,0.348816 -0.02482,0.01984 -0.05022,0.04052 -0.07493,0.05994 -0.096,0.08585 -0.177972,0.158637 -0.264583,0.236161 0.122729,-0.03982 0.245507,-0.08076 0.365871,-0.127124 0.258903,-0.09974 0.31016,-0.121101 0.422195,-0.165364 0.0071,-0.01931 0.01236,-0.03974 0.0186,-0.0584 0.01127,-0.03371 0.04992,-0.05079 0.07648,-0.07441 0.05369,-0.04775 0.10654,-0.09684 0.164333,-0.139526 0.03365,-0.02486 0.06946,-0.04672 0.104386,-0.06976 0.008,-0.01706 0.02016,-0.03161 0.02842,-0.04858 z m -1.276408,0.147795 c -0.167106,0.02544 -0.37252,0.06039 -0.655257,0.112654 -0.35098,0.06488 -0.69687,0.153617 -1.045413,0.230477 -0.247568,0.08122 -0.759198,0.169397 -0.975135,0.428914 -0.04909,0.05901 0.113958,0.0039 0.169497,0.03927 0.08493,0.0541 0.132001,0.124052 0.17725,0.201538 0.170415,-0.0699 0.348366,-0.120079 0.522451,-0.180351 0.619554,-0.263619 1.039403,-0.428785 1.64641,-0.747241 0.04907,-0.02574 0.105915,-0.05645 0.160197,-0.08527 z m 1.954403,1.407149 c -0.0099,-1.09e-4 -0.02199,0.0018 -0.02479,0.0072 -0.0021,0.0042 -0.0026,0.0068 -0.0047,0.01085 0.01376,-0.0047 0.02759,-0.0093 0.04134,-0.01395 0.0058,-0.002 -0.0019,-0.004 -0.01188,-0.0041 z m -3.175516,0.383956 c -0.01638,0.0086 -0.01751,0.0093 -0.03514,0.0186 -0.07464,0.04606 -0.153744,0.08292 -0.233577,0.117822 0.07087,-0.02084 0.143058,-0.03681 0.214974,-0.05426 0.01778,-0.02747 0.03588,-0.05476 0.05374,-0.08216 z m 0.209804,0.445451 c 0.0013,0.0019 0.0024,0.0038 0.0036,0.0057 0.0019,0.0027 0.01241,-8.46e-4 0.0093,-0.0021 -0.0041,-0.0017 -0.0086,-0.0025 -0.01291,-0.0036 z m -0.61133,0.200504 c -0.16832,0.08296 -0.360757,0.189393 -0.466122,0.249597 -0.09979,0.05701 -0.198895,0.115101 -0.294556,0.178801 -0.01656,0.01103 -0.03204,0.02365 -0.04754,0.03617 0.0062,0.13507 -0.05295,0.248879 -0.143144,0.351917 -0.02997,0.03424 -0.04627,0.04952 -0.05736,0.05839 0.04906,-0.01866 0.09805,-0.03759 0.147277,-0.05581 0.02283,-0.0085 0.04586,-0.01643 0.06873,-0.0248 0.0043,-0.013 0.0086,-0.0263 0.01394,-0.03824 -0.0039,-0.01011 -0.0073,-0.01998 -0.01241,-0.02894 0.01294,0.002 0.01744,0.0026 0.02739,0.0041 0.0039,-0.0044 0.0083,-0.0082 0.01344,-0.01137 0.03433,-0.02123 0.08055,0.0015 0.120923,0.0016 0.01259,2.2e-5 0.02513,-1.24e-4 0.03772,0 0.02805,-0.01008 0.05618,-0.01992 0.08423,-0.02997 -0.04008,0.0016 -0.04764,0.0016 -0.111104,0.0041 -0.0473,0.003 -0.251902,0.02119 -0.0036,-0.06718 -0.01624,-0.01158 -0.03221,-0.02342 -0.04754,-0.03566 -0.0123,-0.0099 0.03132,-0.0016 0.04702,-0.0026 0.07739,-0.0031 0.08227,-0.003 0.135392,-0.0052 0.04543,-0.01154 0.09326,-0.0081 0.141076,-0.0057 0.0024,-9.2e-5 0.0066,9e-5 0.0088,0 -0.0019,-0.0185 -5.29e-4,-0.03902 0.0031,-0.05891 -0.01328,-0.01601 -0.02371,-0.0381 -0.02585,-0.05788 -0.0868,0.01044 -0.174106,0.03146 -0.259932,0.01757 -0.03018,-0.0049 -0.07541,-0.05735 -0.05116,-0.07596 0.0081,-0.0063 0.02119,-0.01151 0.03721,-0.01654 -0.0019,-0.0056 -5.29e-4,-0.0104 0.0062,-0.01292 0.06167,-0.02316 0.128818,-0.01984 0.195853,-0.0186 0.07408,-0.0064 0.138385,-0.0097 0.176736,-0.01189 -0.02429,-0.03717 -0.04333,-0.07508 -0.03411,-0.115755 0.01352,-0.05959 0.107561,-0.05982 0.16588,-0.07803 0.01976,-0.0062 0.04398,-0.01253 0.0677,-0.01912 0.01863,-0.04381 0.04051,-0.08613 0.05581,-0.131258 z m -0.826307,0.478524 c -0.0173,0.01464 -0.03424,0.02992 -0.05116,0.04496 -0.01532,0.01363 0.03342,-0.02376 0.05013,-0.03566 2.62e-4,-0.0021 5.29e-4,-0.0067 0.0011,-0.0093 z m -0.389123,0.05323 c -5.29e-4,8.47e-4 -0.0011,0.0017 -0.0016,0.0026 5.3e-4,0.0012 0.0021,0.006 0.0021,0.0036 8e-6,-0.0021 -5.29e-4,-0.0041 -5.29e-4,-0.0062 z m 3.065446,0.739489 c -0.06099,0.0055 -0.124946,0.0091 -0.160715,0.01137 -0.005,3.18e-4 -0.01,7.15e-4 -0.01498,0.001 7.94e-4,0.0064 5.29e-4,0.01485 -5.29e-4,0.02481 0.0021,-2.49e-4 0.0042,-2.6e-4 0.0062,-5.29e-4 0.06625,-0.0083 0.13148,-0.02307 0.196887,-0.03669 -0.0089,-1.83e-4 -0.01791,1.7e-4 -0.02687,0 z m -0.523483,0.340031 c -0.0024,8.2e-4 -0.0048,0.0017 -0.0072,0.0026 0.0024,0.001 0.0098,-0.0034 0.0072,-0.0026 z m -1.18029,0.586529 c 2.64e-4,5.29e-4 0.0026,0.0029 0.0031,0.0036 2.9e-5,-5.3e-4 -2.6e-5,-0.0011 0,-0.0016 1.11e-4,2.65e-4 -0.0035,-0.0028 -0.0031,-0.0021 z m -0.271301,0.07338 c -2.65e-4,0.0013 -7.94e-4,0.0028 -0.0011,0.0041 -0.05005,0.0683 -0.103462,0.132249 -0.158647,0.194304 0.04441,0.115589 0.04928,0.132152 0.05478,0.192755 0.04864,-0.01976 0.08881,-0.03778 0.170532,-0.0739 0.06285,-0.02778 0.128606,-0.05015 0.189135,-0.08268 0.0016,-7.93e-4 0.003,-0.0021 0.0047,-0.0031 2.65e-4,-0.08585 0.007,-0.166934 0.0098,-0.203605 -0.04283,-0.0056 -0.08519,-0.01294 -0.128156,-0.01707 -0.0469,-0.0046 -0.09407,-0.0077 -0.141078,-0.01085 z m -1.756998,0.910021 c -7.94e-4,1.46e-4 -0.0013,2.52e-4 -0.0021,5.3e-4 -0.0049,0.0011 0.01828,0.0084 0.01394,0.0057 -0.0038,-0.0024 -0.008,-0.0039 -0.01188,-0.0062 z m -0.04496,0.257866 c 7.93e-4,0.02259 0.0024,0.04439 0.01603,0.06098 0.0046,0.0055 0.02841,0.01032 0.0553,0.01344 -0.0061,-0.01942 -0.01225,-0.03891 -0.0181,-0.05839 -0.01545,-0.0049 -0.03362,-0.01035 -0.05323,-0.01601 z m 0.153479,0.0553 c -0.0041,0.0073 -0.0098,0.01381 -0.01497,0.02066 0.02267,-0.0021 0.03415,-0.0079 0.01497,-0.02066 z m -2.462898,6.893634 c 0.148828,0.0011 0.297022,0.149244 0.295072,0.443902 -3.5e-5,0.0054 -5.3e-4,0.01061 -5.3e-4,0.01603 -2.64e-4,0.05956 0.0016,0.11924 0.0011,0.1788 -0.0024,0.06819 -0.01016,0.135874 0.0052,0.203605 0.009,0.121891 0.0085,0.232852 -0.01913,0.352949 -0.0073,0.03164 -0.01389,0.0635 -0.02739,0.09302 -0.0033,0.0072 -0.02304,-0.01058 -0.02273,0.0072 -0.04949,-0.0606 0.01355,0.01402 0.02273,0.04857 0.06552,0.24724 0.04577,0.265182 -0.05271,0.47129 -0.03033,0.06348 -0.06213,0.126444 -0.09302,0.189653 -0.258776,0.529476 -0.804408,0.295127 -0.547257,-0.235127 0.03484,-0.07184 0.07057,-0.143415 0.104905,-0.21549 0.0054,-0.01135 0.01066,-0.02275 0.01601,-0.03411 -0.0083,-0.02305 -0.01691,-0.04574 -0.02532,-0.06873 -0.01688,-0.189917 -0.02418,-0.118094 0.02532,-0.328144 0.01775,-0.07532 0.03222,-0.08253 0.03462,-0.148312 0.0011,-0.0273 -0.0057,-0.0545 -0.0088,-0.08165 -0.01767,-0.0909 -0.0098,-0.182832 -0.0078,-0.274402 -5.29e-4,-0.05416 -0.0013,-0.108103 -0.0011,-0.162263 3.4e-5,-0.0056 5.29e-4,-0.01146 5.29e-4,-0.01707 0.0019,-0.294664 0.151413,-0.440743 0.300241,-0.439767 z m -0.277503,1.430404 c -0.0024,0.0019 -0.009,0.01027 -0.0093,0.01447 -1.59e-4,0.0028 1.11e-4,0.0055 0,0.0083 0.0033,-0.0074 0.0066,-0.01479 0.0098,-0.02222 z m 3.327964,18.159616 c 0.0013,-5.29e-4 0.0034,2.65e-4 0.0047,0.0031 1.32e-4,2.64e-4 5.29e-4,0.0013 0.0011,0.0021 0.0016,2.25e-4 0.003,7.7e-5 0.0047,5.3e-4 0.005,7.93e-4 0.0062,0.0054 0.0026,0.0062 0.0016,0.0016 0.0037,0.0034 0.0052,0.0052 5.29e-4,5.29e-4 0.0029,7.94e-4 0.0031,0.0016 1.06e-4,2.11e-4 3e-5,0.0013 0,0.0021 v 5.3e-4 c 0.0019,0.0013 0.0046,0.0029 0.0062,0.0057 2.43e-4,5.29e-4 0.0019,0.0011 0.0021,0.0016 5.3e-4,5.29e-4 7.94e-4,0.0029 0.0011,0.0031 v 0.0016 h 5.29e-4 v 5.29e-4 c 5.29e-4,2.62e-4 5.29e-4,7.94e-4 0.0011,0.0011 l 0.0016,0.0016 c 0.0013,0.0011 0.0024,0.0021 0.0036,0.0031 0.0029,0.0024 0.0056,0.0051 0.0083,0.0078 6.4e-5,9.8e-5 7.94e-4,1.88e-4 0.0011,5.29e-4 l 5.29e-4,5.29e-4 c 2.46e-4,2.62e-4 1.59e-4,7.94e-4 5.29e-4,0.0011 2.65e-4,2.65e-4 7.94e-4,5.3e-4 0.0011,0.0011 7.94e-4,0.0011 0.0019,0.0021 0.0026,0.0031 0.0024,0.003 0.0046,0.005 0.0057,0.0088 2.62e-4,0.0013 -1.6e-5,0.0028 0,0.0041 v 5.29e-4 c 4.5e-5,1.27e-4 -1.1e-5,-1.37e-4 0,0.0011 2.17e-4,5.3e-4 0.0024,0.0013 0.0026,0.0021 0.0019,0.003 0.0044,0.006 0.0057,0.0088 5.29e-4,0.0013 0.0016,0.0027 0.0021,0.0041 9e-5,2.64e-4 -8.2e-5,0.0019 0,0.0021 0.0013,0.0019 0.0013,0.0016 0.0031,0.0057 6.8e-5,2.62e-4 -7.7e-5,0.0024 0,0.0026 l 5.29e-4,0.0011 c 7.93e-4,0.0013 0.0013,0.0016 0.0026,0.0036 0.0021,0.0021 0.0037,0.0042 0.0052,0.0067 -5.29e-4,-2.62e-4 -0.0011,-1.42e-4 -0.0021,0 2.65e-4,2.62e-4 1.09e-4,0.0016 5.29e-4,0.0021 l 5.3e-4,5.29e-4 c 7.93e-4,2.62e-4 0.0016,1.88e-4 0.0021,5.29e-4 2.65e-4,2.54e-4 7.94e-4,1.3e-4 0.0011,5.3e-4 2.61e-4,3.7e-5 0.0013,5.29e-4 0.0016,0.0011 l 5.29e-4,5.29e-4 v 5.29e-4 c 5.29e-4,5.29e-4 0.0013,0.0011 0.0026,0.0031 0.0024,0.0034 0.0041,0.0076 0.0057,0.01138 0,0.0011 -1.94e-4,7.94e-4 0,0.0011 2.62e-4,2.62e-4 0.0013,0.0016 0.0021,0.0026 0.0021,0.0034 0.0042,0.007 0.0052,0.01085 0.0024,0.0013 0.0045,0.0035 0.0062,0.0057 0.0011,0.0013 0.0021,0.0019 0.0031,0.0031 0.0013,0.0016 0.0021,0.0039 0.0036,0.0057 0.0032,0.004 0.007,0.0081 0.01085,0.01138 0.0021,0.0026 0.0042,0.0044 0.0057,0.0072 0.0011,0.0021 0.0013,0.0062 0.0011,0.0093 v 5.29e-4 c 0.0013,0.0042 0.0021,0.0085 0.0021,0.01291 2.62e-4,0.0021 0.0016,0.0037 0.0021,0.0057 0.0013,0.0056 0.0039,0.01071 0.0062,0.01603 2.25e-4,5.3e-4 0.0019,0.0011 0.0021,0.0016 2.01e-4,5.29e-4 1.93e-4,0.0011 5.3e-4,0.0016 l 5.29e-4,5.3e-4 c 0.0013,0.0011 0.0021,0.0024 0.0036,0.0036 5.3e-4,2.65e-4 0.0016,0.0013 0.0021,0.0016 7.94e-4,7.94e-4 0.0021,0.0024 0.0031,0.0031 v 5.3e-4 l 5.29e-4,5.29e-4 c 5.29e-4,2.64e-4 0.0011,0.0016 0.0016,0.0021 v 0.0016 c 0.0011,0.0013 0.0026,0.0019 0.0031,0.0026 v 5.29e-4 c 0.0033,0.0039 7.94e-4,5.29e-4 0.0047,0.0062 5.29e-4,7.94e-4 0.0016,0.0019 0.0021,0.0026 0.0027,0.0044 0.0048,0.0088 0.0072,0.01344 0.0026,0.0033 0.0044,0.0071 0.0062,0.01085 0.0013,0.0013 0.0028,0.0026 0.0041,0.0041 5.29e-4,5.3e-4 -0.0021,-7.93e-4 -0.0016,-5.29e-4 0.0021,0.0016 0.0043,0.0034 0.0067,0.0047 7.94e-4,7.94e-4 0.0016,0.0019 0.0026,0.0031 0.0013,0.0024 0.0027,0.0048 0.0041,0.0072 5.29e-4,7.93e-4 0.0011,0.0019 0.0016,0.0026 7.94e-4,0.0013 0.0021,0.0024 0.0031,0.0036 l 5.29e-4,5.29e-4 c 7.94e-4,7.94e-4 0.0016,0.0019 0.0026,0.0026 0.0064,0.0059 0.01426,0.01334 0.02016,0.01963 0.0021,0.0024 0.0041,0.0052 0.0062,0.0078 0.0016,0.0019 0.0036,0.0034 0.0052,0.0052 0.0011,0.0013 0.0019,0.0028 0.0031,0.0041 l 0.0031,0.0031 c 2.64e-4,-1.61e-4 5.29e-4,-1.9e-4 0.0011,-5.29e-4 0.0024,-0.0011 0.0047,0.0031 0.0062,0.0052 0.0066,0.0093 0.01003,0.02291 0.01344,0.03307 2.36e-4,0.0013 0.0011,0.0038 0.0016,0.0062 5.29e-4,5.3e-4 0.0013,0.0013 0.0011,0.0021 -1.64e-4,5.29e-4 -1.96e-4,0.0011 -5.29e-4,0.0016 7.94e-4,0.0039 0.0016,0.0083 0.0016,0.01241 0.0052,-5.3e-4 -1.53e-4,-0.0024 0.0067,-0.0031 0.0021,-0.0011 0.0046,-0.0019 0.0067,-0.0031 0.0016,-7.93e-4 -0.0019,-0.0036 -0.0026,-0.0052 -2.64e-4,-2.28e-4 -1.53e-4,-7.94e-4 -5.29e-4,-0.0011 l 0.0011,5.29e-4 c 0.0024,0.0019 0.0048,0.0034 0.0067,0.0057 0.0016,0.0019 0.004,0.006 0.0057,0.0088 l 5.3e-4,5.3e-4 v 5.29e-4 l 5.29e-4,5.29e-4 c 7.94e-4,7.94e-4 0.0024,0.0013 0.0031,0.0021 0.0032,0.0041 0.0061,0.008 0.0088,0.01241 l 5.29e-4,5.29e-4 c 0.0028,0.0024 0.0043,0.0039 0.0088,0.01085 0.0035,0.0024 0.0077,0.0043 0.01085,0.0072 0.0058,0.0054 0.01077,0.01315 0.01447,0.02016 5.29e-4,0.0013 0.0019,0.0029 0.0026,0.0041 0.0039,0.0065 0.0088,0.01191 0.01241,0.0186 0.0044,0.0059 0.009,0.01154 0.01394,0.01704 0.0024,0.0029 0.0062,0.0055 0.0083,0.0088 0.0027,0.0043 0.005,0.0089 0.0062,0.01394 7.94e-4,0.0035 7.94e-4,0.0072 5.29e-4,0.01085 0.01035,0.01206 0.02236,0.02679 0.02585,0.03101 0.0089,0.01037 0.01807,0.02101 0.02687,0.03152 0.0013,0.0013 0.0027,0.0024 0.0031,0.0041 0.0013,0.0061 0.0019,0.01283 0.0026,0.01913 0.01061,0.01548 0.02098,0.03124 0.02997,0.04754 5.29e-4,0.0011 0.0021,0.0024 0.0026,0.0036 2.25e-4,2.65e-4 1.72e-4,7.94e-4 5.29e-4,0.0011 0.0072,0.0089 0.01408,0.02151 0.0057,0.031 1.8e-4,2.62e-4 1.72e-4,7.94e-4 5.29e-4,0.0011 0.0052,0.0087 0.01146,0.01683 0.01707,0.02532 0.0024,0.0036 0.005,0.0071 0.0072,0.01085 0.0011,0.0019 0.0019,0.0039 0.0031,0.0057 0.0024,0.0034 0.0055,0.0062 0.0083,0.0093 0.0056,0.0074 0.01035,0.01341 0.01498,0.0217 0.0016,0.0028 0.0024,0.0059 0.0036,0.0088 0.0013,0.0035 0.0031,0.0066 0.0036,0.01035 l -5.29e-4,5.3e-4 0.01344,0.01344 c 0.003,0.0036 0.0059,0.0079 0.0083,0.01188 0.0037,0.0061 0.0077,0.01209 0.01085,0.0186 0.0021,0.0044 0.0039,0.0089 0.0057,0.01344 0.0041,0.0024 0.0086,0.003 0.01291,0.0062 0.0024,0.0016 0.0046,0.0028 0.0067,0.0047 2.64e-4,2.65e-4 -1.7e-4,0.0013 -5.3e-4,0.0016 0.0097,0.0024 0.0085,0.0019 0.02119,0.01085 0.0021,0.0013 0.0039,0.0041 0.0052,0.0062 0.0075,0.01198 0.0039,0.0054 0.0093,0.01757 0.0011,0.0026 0.0021,0.0057 0.0031,0.0083 0.0011,0.0032 0.0013,0.0064 0.0031,0.0093 0.0024,0.004 0.0052,0.0079 0.0078,0.01188 0.0024,0.0039 0.0041,0.0086 0.0067,0.01241 0.0077,0.01238 0.01429,0.02551 0.02222,0.03772 0.003,0.0043 0.0054,0.0084 0.0088,0.01241 0.0013,0.0013 0.0028,0.0024 0.0041,0.0036 0.0058,0.0061 0.0099,0.01265 0.01394,0.02016 0.0026,0.01368 0.0038,0.01164 0.0026,0.02222 -1.19e-4,0.0011 -1.72e-4,0.0021 -5.29e-4,0.0031 0.0054,0.005 0.01058,0.01037 0.01447,0.01654 0.0066,0.0092 0.0131,0.01831 0.01913,0.02791 0.006,0.0095 0.01101,0.01886 0.01913,0.02687 0.0057,0.0082 0.0084,0.01045 0.01085,0.02016 1.46e-4,5.29e-4 -0.0011,-2.12e-4 -0.0016,-0.0016 0.0011,0.0021 0.0024,0.0042 0.0036,0.0062 0.0028,0.0046 0.0024,0.005 0.0031,0.0062 0.0068,-0.0064 0.0085,-0.0059 0.01498,0.0052 0.0028,-7.93e-4 0.0029,0.0035 0.0031,0.0072 0.0024,0.0038 0.0054,0.008 0.0067,0.01085 0.007,0.0083 0.0077,0.0079 0.01241,0.01757 0.0013,0.0024 0.0016,0.0042 0.0026,0.0067 2.64e-4,7.94e-4 0.0019,0.0019 0.0016,0.0026 -1.98e-4,5.29e-4 -0.0019,-0.0016 -0.0016,-0.0011 0.0011,0.0016 0.0019,0.0029 0.0031,0.0047 0.0034,0.0058 -0.0026,-0.0048 0.0083,0.0083 0.0019,0.0024 0.008,0.01117 0.0088,0.01498 0.0013,0.0024 0.0021,0.0049 0.0036,0.0072 7.94e-4,0.0024 0.0019,0.0048 0.0026,0.0072 h -5.29e-4 c 0.0013,0.0028 0.0038,0.0047 0.0052,0.0078 0.0026,0.0052 0.0028,0.0108 0.0067,0.0155 7.93e-4,0.0028 0.0024,0.006 0.0031,0.0088 1.99e-4,7.93e-4 -0.0024,-0.0033 -0.0021,-0.0026 5.29e-4,0.0016 0.0013,0.0035 0.0021,0.0052 0.0016,7.94e-4 0.0039,0.0021 0.0057,0.0031 0.0073,0.0045 0.01442,0.008 0.01913,0.01603 0.0026,0.0043 0.0038,0.0091 0.0052,0.01394 0.01151,0.01492 0.02331,0.02957 0.03772,0.04186 0.0082,0.01082 -0.0045,-0.0059 0.01085,0.01241 0.0086,0.01021 0.007,0.0091 0.01344,0.0186 0.0042,0.0062 0.0033,0.0029 0.0041,0.0067 0.0037,0.0042 0.0081,0.0075 0.01085,0.01241 0.004,0.0074 0.0042,0.01884 0.0036,0.03049 0.0011,7.94e-4 0.0024,0.0013 0.0031,0.0021 0.0019,0.0019 0.0039,0.0035 0.0052,0.0057 l 5.29e-4,0.0016 c 0.0036,0.0028 0.0064,0.0057 0.0098,0.01138 -5.29e-4,-7.94e-4 0.0021,0.0039 0.0016,0.0031 l -5.3e-4,5.29e-4 c 0.0019,0.0024 0.004,0.0038 0.0057,0.0062 0.0011,0.0013 0.0019,0.0024 0.0026,0.0036 5.29e-4,7.94e-4 0.0011,0.0019 0.0016,0.0026 7.94e-4,0.0011 0.0021,0.0034 0.0041,0.0062 5.29e-4,7.94e-4 0.0021,0.0033 0.0016,0.0026 0.0026,0.0039 0.0084,0.0122 0.0083,0.01447 v 5.3e-4 c 0.004,0.0047 0.0074,0.0088 0.01035,0.01344 0.01156,0.01035 0.0226,0.02193 0.03566,0.02997 0.01204,0.01074 0.02408,0.0208 0.03566,0.03204 0.01804,0.01754 0.03502,0.03885 0.05013,0.05891 0.01085,0.01442 0.03376,0.04591 0.04186,0.06201 0.0053,0.01056 0.0086,0.02207 0.01291,0.03307 0.0021,0.01696 0.0044,0.03368 0.0036,0.05013 0.0058,0.0038 0.01013,0.0096 0.01394,0.01551 h 5.29e-4 c 0.008,0.0039 0.01712,0.01386 0.02016,0.01654 0.01058,0.01543 0.01789,0.02445 0.02482,0.0429 0.0021,0.0054 0.0031,0.0099 0.0041,0.01447 l 5.3e-4,0.0016 c 0.01098,0.01881 0.02638,0.03537 0.03359,0.05633 0.0011,0.0021 0.0019,0.0041 0.0031,0.0062 0.0019,0.0031 0.0076,0.01127 0.0098,0.01447 5.29e-4,2.62e-4 0.0013,0.0026 0.0011,0.0021 l 5.29e-4,0.0011 c 0.01648,0.01503 0.034,0.02961 0.04548,0.04909 0.0024,0.0066 0.0043,0.0057 0.01085,0.01138 0.0035,0.003 0.0054,0.0071 0.01035,0.0088 0.01426,0.01135 0.0048,0.0035 0.0181,0.01601 0.0045,0.0043 0.0097,0.0084 0.01394,0.01291 0.0114,0.01204 0.02098,0.02574 0.02687,0.04134 2.09e-4,0.0011 0.0031,0.0033 0.0021,0.0031 0.0011,0.0011 0.0021,0.0019 0.0031,0.0031 0.0069,0.0084 0.01135,0.01778 0.01344,0.02842 1.35e-4,5.29e-4 -0.0024,-7.94e-4 -0.0021,-5.29e-4 0.0031,0.0051 0.0066,0.0093 0.01085,0.01344 0.0076,0.0083 0.0096,0.01013 0.0098,0.02379 7.93e-4,0.0011 7.93e-4,5.29e-4 0.0026,0.0026 0.0095,0.01172 0.01781,0.02167 0.01807,0.03773 v 0.0016 c 0.0011,0.0028 0.0016,0.0055 0.0026,0.0078 l 0.0021,5.3e-4 c 0.0013,0.0016 0.0021,0.0026 0.0031,0.0036 0.0043,0.0044 0.0064,0.0071 0.01241,0.01447 0.0024,0.0031 0.0063,0.0061 0.0088,0.0093 0.0011,0.0016 0.0019,0.0038 0.0031,0.0052 0.0019,0.0021 0.01204,0.01019 0.01344,0.01138 0.0028,0.0024 0.006,0.0048 0.0088,0.0072 2.09e-4,5.29e-4 2.4e-5,0.0019 5.29e-4,0.0021 0.0037,0.0035 0.0084,0.0056 0.01188,0.0093 0.0016,0.0019 0.0024,0.0041 0.0036,0.0062 2.65e-4,5.29e-4 0.0016,0.0019 0.0016,0.0021 v 5.29e-4 c 0.0098,0.0089 0.01659,0.01339 0.01963,0.02998 3.7e-5,0.0011 5.29e-4,0.0021 5.29e-4,0.0031 1.8e-4,0.0019 0.0013,0.0035 0.0011,0.0052 0,5.29e-4 -0.0021,-0.0016 -0.0021,-0.0011 5.3e-4,0.0081 0.01061,0.01471 0.01291,0.02222 0.01209,0.0164 0.0016,0.0019 0.01704,0.02066 0.0021,0.0024 0.0037,0.0044 0.0057,0.0067 0.0066,0.0076 0.01413,0.01445 0.01913,0.02326 0.0016,0.0021 0.0061,0.0072 0.0083,0.01035 -5.29e-4,-5.29e-4 0.0024,0.0021 0.0021,0.0016 0.006,0.006 0.01209,0.01175 0.01654,0.01913 0.0016,0.0026 0.0068,0.0091 0.0088,0.01344 0.0032,0.0024 0.006,0.0044 0.0083,0.0062 0.0136,0.01053 0.02798,0.02109 0.03617,0.03669 7.94e-4,0.0019 0.0019,0.0034 0.0026,0.0052 2.07e-4,5.29e-4 1.22e-4,0.0016 5.29e-4,0.0021 0.0024,0.0035 0.0056,0.0065 0.0088,0.0093 0.01072,0.0077 0.01452,0.0097 0.01344,0.01085 2.62e-4,-7.9e-5 7.94e-4,-0.0016 0.0011,-0.0016 0.0035,-7.93e-4 0.0088,0.0051 0.0088,0.0088 v 5.29e-4 c 0.0077,0.0058 0.01609,0.01087 0.02429,0.01603 0.0021,0.0013 0.0045,0.0028 0.0067,0.0041 0.0042,0.0024 0.0083,0.0038 0.01241,0.0062 0.0065,0.0037 0.01312,0.008 0.01963,0.01188 0.0026,0.0016 0.0052,0.0031 0.0078,0.0052 0.01162,0.01056 0.02477,0.027 0.0057,0.04496 -0.0081,0.0075 -0.02193,0.0021 -0.03307,0.0026 2.62e-4,5.29e-4 0.0019,0.0021 0.0021,0.0026 l 5.29e-4,0.0011 v 5.29e-4 c 0.0043,0.0042 0.0085,0.0082 0.01085,0.01394 7.94e-4,0.0031 0.0021,0.0061 0.0026,0.0093 1.09e-4,5.29e-4 -1.06e-4,0.0024 0,0.0036 0.0049,0.0052 0.01029,0.01013 0.01291,0.01344 0.003,0.0037 0.0047,0.0064 0.0067,0.0093 h 5.29e-4 c 0.0028,5.29e-4 0.0051,0.0042 0.0067,0.0062 0.0021,0.0024 0.0019,0.0024 0.0026,0.0031 h 5.29e-4 c 0.0024,-0.0011 0.0048,-0.0026 0.0072,-0.0021 0.0035,7.94e-4 0.0046,0.0059 0.0057,0.0093 7.93e-4,0.0024 5.29e-4,0.0057 5.29e-4,0.0083 7.93e-4,0.0016 0.0019,0.0037 0.0026,0.0057 h 0.0021 c 0.0031,-8e-6 0.0062,2.06e-4 0.0093,-5.29e-4 l 5.29e-4,5.29e-4 c 0.0024,0.0068 0.0045,0.01381 0.0067,0.02066 l 0.0021,0.0021 c 7.94e-4,0.0013 0.0021,0.0037 0.0031,0.0057 2.62e-4,7.94e-4 5.3e-4,0.0021 0.0011,0.0026 l 5.29e-4,5.29e-4 c 2.01e-4,2.65e-4 0.0019,0.0013 0.0021,0.0016 0.0013,0.0013 0.0019,0.0027 0.0031,0.0041 5.29e-4,7.94e-4 0.0021,0.0019 0.0026,0.0026 1.14e-4,1.88e-4 7.94e-4,0.0016 0.0011,0.0021 2.65e-4,-1.93e-4 7.94e-4,-7.94e-4 0.0011,-0.0011 0.0016,5.3e-4 0.0033,0.0016 0.0047,0.0026 0.0082,0.0052 0.01527,0.01625 0.01913,0.02635 0.0016,-2.65e-4 0.0039,-2.65e-4 0.0057,0 0.0021,2.64e-4 0.0024,0.004 0.0026,0.0062 1.11e-4,7.94e-4 -2.4e-5,0.0013 0,0.0021 5.29e-4,0.0016 0.0016,0.0035 0.0021,0.0052 5.29e-4,0.0016 1.4e-4,0.0029 5.29e-4,0.0041 0.0011,3.7e-5 0.0016,-1.12e-4 0.0021,0 0.0027,5.29e-4 0.0058,0.0016 0.0083,0.0031 0.0036,0.0024 0.0066,0.0053 0.0083,0.0088 0.0013,-1.56e-4 0.0024,-5.29e-4 0.0036,-5.29e-4 0.0016,9.8e-5 0.0019,0.0019 0.0026,0.0031 0.0039,0.0074 0.0034,0.01389 0.0016,0.0217 -2.65e-4,0.0011 -0.0011,0.0021 -0.0016,0.0031 0.0011,-5.29e-4 0.0021,-0.0011 0.0031,-0.0016 0.0039,0.0013 0.0088,2.62e-4 0.01188,0.0031 0.0024,0.0021 0.0027,0.0062 0.0026,0.0093 2.64e-4,9.5e-5 0.0013,-1.06e-4 0.0016,0 0.0016,5.29e-4 0.0021,0.004 0.0021,0.0057 4.7e-5,7.94e-4 3.9e-5,0.0013 0,0.0021 0.0013,-7.94e-4 0.0024,-0.0013 0.0083,-0.0052 0.004,0.004 0.0096,0.0068 0.01188,0.01188 5.3e-4,7.94e-4 -5.29e-4,0.0026 -0.0021,0.0047 0.0016,-2.62e-4 0.0034,-2.62e-4 0.0067,0.0011 0.0024,5.3e-4 0.0048,0.0026 0.0062,0.0047 0.0039,0.0061 0.0047,0.01154 0.0021,0.0181 -2.64e-4,7.93e-4 -0.0016,0.0013 -0.0021,0.0021 0.0021,0.0011 0.0041,0.0021 0.0057,0.0036 0.0019,0.0019 -0.0029,0.0067 -0.0057,0.0088 0.0011,2.22e-4 0.0019,1.38e-4 0.0031,5.29e-4 0.0016,2.62e-4 0.0029,5.3e-4 0.0031,5.3e-4 l 5.29e-4,5.29e-4 c 0.0013,5.29e-4 0.0021,-0.0019 0.0031,-0.0016 0.0065,0.0013 0.01534,0.0013 0.01497,0.0083 v 5.29e-4 c 7.94e-4,0.0021 0.0016,0.0054 0.0026,0.0098 9.8e-5,5.3e-4 -0.0011,0.0016 -0.0026,0.0026 0.0016,0.0011 0.0029,0.0013 0.0021,0.0021 2.64e-4,1.88e-4 0.0016,1.43e-4 0.0021,5.29e-4 0.0011,5.29e-4 0.0024,0.0019 0.0036,0.0026 0.0016,-5.3e-5 0.0026,0.0011 0.0031,0.0021 h 5.29e-4 v 5.29e-4 c 0.0019,0.0013 0.0026,0.0033 0.0036,0.0052 -0.0016,-7.94e-4 -0.0019,-0.0019 -0.0031,-0.0026 5.29e-4,0.0044 7.94e-4,0.0081 5.29e-4,0.01034 v 0.0021 c 0.0011,7.94e-4 0.0026,0.0024 0.0078,0.0062 -2.16e-4,7.94e-4 -1.48e-4,0.0013 -5.29e-4,0.0021 0.0042,7.94e-4 0.0083,0.003 0.01035,0.0062 0.0013,-7.93e-4 0.0027,-0.0019 0.0041,-0.0026 7.94e-4,-5.29e-4 0.0021,-0.0034 0.0026,-0.0026 5.29e-4,7.93e-4 0.0011,0.0024 0.0016,0.0031 l 5.3e-4,0.0011 c 0.0019,0.0013 0.0045,0.0054 0.0088,0.01344 5.29e-4,2.2e-4 0.0011,9.6e-5 0.0016,5.3e-4 2.62e-4,1.29e-4 6.9e-5,0.0019 5.29e-4,0.0021 2.54e-4,2.04e-4 0.0019,0 0.0021,0 0.005,-1.03e-4 0.0013,-5.29e-4 0.01138,0.0031 1.64e-4,0.0029 0.0016,0.0063 0.0016,0.0093 7.93e-4,8e-6 0.0019,3e-6 0.0026,0 2.65e-4,-5e-6 7.94e-4,1.33e-4 0.0011,5.29e-4 0.0021,0.0051 0.0043,0.01029 0.0062,0.0155 -0.0013,0.0011 -0.0021,0.0021 -0.0036,0.0031 -5.29e-4,2.62e-4 -0.0021,1.4e-4 -0.0026,5.29e-4 2.62e-4,0.0039 0.0021,0.0079 0.0021,0.01188 0,5.29e-4 -0.0016,1.4e-4 -0.0021,5.29e-4 0.0026,0.0016 0.0042,0.004 0.0062,0.0062 h 0.0011 c 0.0016,7.94e-4 0.0019,0.0019 0.0031,0.0026 7.93e-4,5.29e-4 0.0021,0.0011 0.0026,0.0016 0.0034,0.0033 0.0036,0.0075 0.0036,0.01188 4.3e-5,7.94e-4 -2.4e-5,0.0019 0,0.0026 0.0019,-5.29e-4 0.0044,-5.29e-4 0.0057,-5.29e-4 0.0021,1.98e-4 0.0041,0.0011 0.0062,0.0016 0.0016,0.0038 0.005,0.0072 0.0052,0.01138 3.7e-5,0.0011 -5.29e-4,0.0019 -0.0016,0.0026 0.0037,0.0044 0.0042,0.008 0.0026,0.01394 l -0.0016,5.29e-4 c -3.2e-5,5.29e-4 3.5e-5,0.0016 0,0.0021 l 0.0016,5.29e-4 c 2.59e-4,-9.6e-5 0.0019,-5.29e-4 0.0021,-5.29e-4 0.003,-2.62e-4 0.0038,0.0032 0.0016,0.0062 -7.94e-4,7.94e-4 -0.0019,0.0011 -0.0026,0.0016 0.0019,0.0021 0.0016,0.0057 -0.0026,0.0052 -0.0013,-2.01e-4 -0.004,0.0029 -0.0057,0.0026 -0.0013,-0.0011 -0.0043,-0.0011 -0.0052,-0.0026 -7.93e-4,-0.0021 0.0021,-0.0032 0.0031,-0.0041 l 0.0021,-0.0016 c 2.64e-4,-5.29e-4 0.0019,-0.0019 0.0021,-0.0021 -0.0016,-5.29e-4 -0.0016,-0.0021 -0.0021,-0.0031 -0.0086,5.3e-5 -0.01148,-8.7e-5 -0.01085,-0.0036 -7.94e-4,-5.3e-4 -7.94e-4,-5.3e-4 -0.0031,-0.0016 -0.003,-0.0019 -0.0077,-0.0038 -0.01085,-0.0067 -0.0046,-7.94e-4 -0.0082,-0.0053 -0.01085,-0.0083 l -0.0057,-0.0057 -5.29e-4,-0.0011 c -0.0043,-0.0051 -0.0049,-0.01011 -0.0036,-0.01344 -5.29e-4,-1.59e-4 -0.0013,-1.38e-4 -0.0021,-5.29e-4 h -0.0016 c -0.0056,0.0016 -0.0042,7.94e-4 -0.01085,-0.0011 -7.94e-4,-0.0013 -0.0016,-0.0024 -0.0026,-0.0036 -0.0027,5.29e-4 -0.005,7.93e-4 -0.0057,-5.29e-4 -0.0061,-0.01143 -0.0084,-0.01696 -0.0088,-0.01913 5.29e-4,-0.0021 0.0079,0.0055 0.0093,0 -7.93e-4,-2.64e-4 -0.0019,-0.0019 -0.0021,-0.0026 v -5.29e-4 c 7.94e-4,-5e-5 0.0021,-3e-6 0.0031,0 7.94e-4,-2.12e-4 0.0016,-0.0016 0.0021,-0.0021 -0.0011,1.09e-4 -0.0026,0.0016 -0.0041,0.0016 h -5.3e-4 c -9e-5,-5.29e-4 -1.77e-4,-0.0016 -5.29e-4,-0.0021 l 0.0011,0.0021 c 0.0013,-0.0016 0.0028,-0.0038 0.0041,-0.0052 -0.0019,-0.0024 -0.0038,-0.0049 -0.0062,-0.0057 2.62e-4,-1.6e-5 0.0013,-5.3e-5 0.0016,0 2.3e-4,-0.0019 1.48e-4,-0.004 0.0016,-0.0057 v -0.0011 c -2.62e-4,1.67e-4 -0.0013,7.94e-4 -0.0016,0.0011 -0.0063,0.0024 -0.01,0.0019 -0.0155,-0.0057 -2.38e-4,-2.65e-4 -5.29e-4,-5.29e-4 -5.29e-4,-0.0011 l -0.0011,5.29e-4 h -5.29e-4 c -5.29e-4,5.29e-4 -0.0019,5.29e-4 -0.0021,5.29e-4 l -5.29e-4,5.29e-4 c -0.0027,0.0021 -0.0029,0.0026 -0.0036,0.0016 h -0.0016 c -5.29e-4,2.64e-4 -7.94e-4,0.0026 -0.0011,0.0021 -0.0019,-0.0039 -0.0043,-0.0072 -0.0057,-0.0093 h -5.29e-4 c -0.0021,-1.06e-4 -0.0057,-0.0019 -0.01291,-0.0062 -0.003,-0.0019 -2.64e-4,-0.0061 0.0021,-0.0093 -2.62e-4,1.14e-4 -0.0019,-1.13e-4 -0.0021,0 -7.94e-4,2.65e-4 -0.0011,0.0024 -0.0021,0.0026 -0.0013,5.29e-4 -0.0042,0.0034 -0.0041,0.0021 -0.0056,0.0021 -0.01437,0.0024 -0.01241,-0.0031 -5.29e-4,-0.0013 -0.0016,-0.0027 -0.0021,-0.0041 -0.0013,-0.0037 -0.0024,-0.0074 -0.0026,-0.01138 0.0024,-0.0011 0.0048,-0.0029 0.0072,-0.0041 0.0013,-5.29e-4 0.0024,-5.29e-4 0.0036,-0.0011 2.01e-4,-5.29e-4 5.29e-4,-0.0019 0.0011,-0.0021 -5.29e-4,1.3e-4 -7.94e-4,5.29e-4 -0.0011,0 -9e-5,-2.64e-4 1.93e-4,-0.0019 5.29e-4,-0.0021 v -0.0011 c -0.0044,0.0021 -0.0092,0.0054 -0.01138,0.0072 -0.0019,-7.94e-4 -0.0029,-0.003 -0.0026,-0.0093 -0.0024,-0.0028 -0.0016,-0.0047 5.29e-4,-0.0062 1.19e-4,-7.94e-4 7.94e-4,-0.0021 0.0011,-0.0031 2.62e-4,-0.0019 0.0016,-0.0024 0.0036,-0.0031 5.29e-4,-0.0019 0.0019,-0.004 0.0026,-0.0057 v -5.29e-4 c -5.29e-4,-0.0011 -0.0011,-0.0019 -0.0016,-0.0026 -0.0019,-2.3e-4 -0.0034,-0.0019 -0.0052,-0.0021 -1.96e-4,-7.94e-4 -0.0013,-0.0013 -0.0016,-0.0021 l -5.3e-4,5.29e-4 c -2.62e-4,5.29e-4 -0.0016,0.0016 -0.0021,0.0021 -0.0011,2.06e-4 -0.0021,0.0016 -0.0031,0.0021 l -5.29e-4,5.29e-4 c -0.0021,0.0011 -0.0042,0.0021 -0.0062,0.0026 -2.62e-4,5.8e-5 -0.0013,-3.2e-5 -0.0016,0 -7.94e-4,7.9e-5 -0.0016,9.5e-5 -0.0026,0 -0.0021,-2.02e-4 -0.0045,-5.3e-4 -0.0057,-0.0021 -0.0021,-0.003 -0.0028,-0.0074 -0.0041,-0.01085 7.94e-4,-0.0021 0.0019,-0.0044 0.0031,-0.0062 0.0011,-0.0016 0.0031,-0.0043 0.0052,-0.0062 -0.0026,-0.0016 -0.0044,-0.0038 -0.0057,-0.0067 -0.0021,-5.29e-4 -0.0043,-7.94e-4 -0.0052,-0.0026 -2.64e-4,-5.29e-4 -5.29e-4,-0.0019 -5.29e-4,-0.0026 -5.29e-4,2.01e-4 -0.0013,0.0011 -0.0021,0.0016 -0.0013,-0.0027 -0.0024,-0.006 -0.0031,-0.0088 -5.29e-4,1.72e-4 -0.0019,1.43e-4 -0.0026,5.29e-4 -5.29e-4,10e-5 -3.2e-5,-0.0021 0,-0.0026 1.9e-5,-2.62e-4 -1.6e-5,-7.94e-4 0,-0.0011 -0.0016,0.0011 -0.0027,0.0024 -0.0041,0.0036 2.64e-4,7.93e-4 0.0013,0.0019 0.0016,0.0026 -2.65e-4,-2.32e-4 -0.0019,-1.35e-4 -0.0026,-5.29e-4 l -5.29e-4,-0.0016 -5.29e-4,5.29e-4 c -1.85e-4,5.29e-4 -1.32e-4,0.0016 -5.29e-4,0.0021 -0.0016,0.0021 -0.0031,0.0044 -0.0052,0.0062 -0.0077,0.0069 -0.01196,2.38e-4 -0.01757,-0.01085 -7.94e-4,-0.0016 0.0021,-0.0024 0.0036,-0.0036 7.94e-4,-7.94e-4 0.0019,-0.0019 0.0026,-0.0026 3.4e-5,-0.0011 -2.38e-4,-0.0021 0,-0.0031 2.62e-4,-0.0016 0.0016,-0.004 0.0021,-0.0057 v -5.29e-4 c -5.29e-4,-0.0013 -0.0011,-0.0029 -0.0016,-0.0047 -2.1e-5,-0.0011 2e-6,-0.0021 0,-0.0031 -7.94e-4,-7.94e-4 -5.29e-4,-0.0019 0,-0.0031 v -0.0026 c -5.29e-4,-0.0029 -6.4e-5,-0.0065 -0.0016,-0.0093 2.62e-4,-0.0011 0.0013,-0.0021 0.0016,-0.0031 -7.94e-4,-7.94e-4 -0.0021,-0.0016 -0.0031,-0.0026 v -5.29e-4 -5.3e-4 l -0.0021,-0.0016 c -7.94e-4,-7.94e-4 -5.3e-4,-0.0021 -5.3e-4,-0.0031 v -5.29e-4 -0.0011 h -0.0011 c -2.62e-4,-2.4e-5 -0.0013,3.2e-5 -0.0016,0 -0.0024,0.0021 -0.0047,0.0039 -0.0078,0.0031 h -0.0021 c -0.0019,-7.93e-4 -0.0021,-0.0019 -0.0031,-0.0036 h -0.0011 l -5.3e-4,-5.29e-4 c -7.93e-4,-0.0011 -0.0024,-0.0021 -0.0031,-0.0031 -2.62e-4,-1.11e-4 -0.0013,-0.0021 -0.0016,-0.0021 -2.64e-4,-1.08e-4 -7.93e-4,1.14e-4 -0.0011,0 -1.96e-4,-6.6e-5 -0.0019,-1.4e-4 -0.0021,-5.29e-4 -7.93e-4,-2.65e-4 -0.0019,-7.94e-4 -0.0026,-0.0016 -5.29e-4,-2.65e-4 -0.0016,-0.0016 -0.0021,-0.0021 -0.0013,-0.0013 -0.0026,-0.0036 -0.0036,-0.0052 -0.0011,-0.0019 -0.0019,-0.0024 -0.0026,-0.0036 -0.0016,6.6e-5 -0.0019,-9e-5 -0.0036,0 -0.0013,0 -1.45e-4,-0.0021 -5.29e-4,-0.0036 -1.9e-4,-7.94e-4 -5.29e-4,-0.0021 -5.29e-4,-0.0036 v -5.29e-4 c -7.94e-4,-0.0011 -0.0024,-0.0021 -0.0031,-0.0031 -7.93e-4,-0.0016 -0.0019,-0.004 -0.0026,-0.0057 -5.3e-4,-7.94e-4 -5.1e-5,-0.0021 -5.3e-4,-0.0031 -7.93e-4,-0.0024 -0.0021,-0.004 -0.0031,-0.0062 -0.0013,2.62e-4 -0.0024,0.0021 -0.0036,0.0026 -2.17e-4,-2.65e-4 -0.0013,-0.0016 -0.0026,-0.0031 -0.0011,-0.0013 -0.0021,-0.0043 -0.0031,-0.0057 -5.3e-4,-0.0011 -0.0016,-0.0026 -0.0021,-0.0036 -7.94e-4,-0.0021 -0.0019,-0.004 -0.0026,-0.0062 -7.94e-4,-0.0019 -0.0016,-0.0043 -0.0021,-0.0062 -2.64e-4,-0.0011 -7.93e-4,-0.0033 -0.0011,-0.0052 -6.6e-5,-5.29e-4 6.1e-5,-5.29e-4 0,-0.0011 -0.0013,-0.003 -0.0024,-0.0061 -0.0031,-0.0093 -0.0011,-0.0024 -0.0021,-0.0038 -0.0031,-0.0057 -7.94e-4,2.17e-4 -0.0013,2.62e-4 -0.0021,0 -0.0024,-7.94e-4 -0.0049,-0.0019 -0.0062,-0.0026 -0.0087,0.0048 -0.01341,0.0027 -0.015,-0.0057 -0.0016,-0.0037 2.62e-4,2.65e-4 -0.0031,-0.0057 -1.98e-4,-2.65e-4 -0.0019,-0.003 -0.0021,-0.0036 v -0.0011 c -5.29e-4,-7.94e-4 -0.0016,-0.0013 -0.0021,-0.0021 -0.0029,-0.0037 -0.0036,-0.0046 -0.0062,-0.0088 -0.0042,-0.0066 -0.0071,-0.01397 -0.0083,-0.0217 -0.0016,-0.0019 -0.0052,-0.007 -0.0062,-0.0083 -7.94e-4,-0.0011 -0.0016,-0.0013 -0.0021,-0.0021 -7.94e-4,-5.29e-4 -0.0016,-0.0016 -0.0026,-0.0026 -0.0021,-0.0021 -0.0041,-0.0043 -0.0057,-0.0067 -0.0013,-0.0021 -0.0016,-0.0013 -0.0021,-0.0021 -0.0011,-0.0013 -0.0011,-0.0016 -0.0021,-0.0026 h -5.29e-4 -5.29e-4 v -5.29e-4 c -0.02479,-0.02556 -0.01627,-0.01669 -0.04082,-0.04341 -0.007,-0.0079 -0.01048,-0.01021 -0.01498,-0.0186 -0.0027,-0.005 -0.0016,-0.0064 -0.0036,-0.01138 -0.0011,-0.0026 -0.0045,-0.0076 -0.0057,-0.0098 -0.0011,-0.0021 -0.0021,-0.0042 -0.0031,-0.0062 -0.0011,-0.0021 0.0026,-0.0024 0.0021,-0.0036 -0.0069,-0.0044 -0.01373,-0.0083 -0.02066,-0.01241 -0.01437,-0.0087 -0.02963,-0.01482 -0.04289,-0.02532 -0.0021,-0.0016 -0.0035,-0.0043 -0.0052,-0.0062 -0.0084,-0.01061 -0.01704,-0.02103 -0.02479,-0.03204 -0.0013,-0.0019 -0.0026,-0.0043 -0.0036,-0.0062 -2.62e-4,-5.29e-4 -5.6e-5,-0.0011 -5.29e-4,-0.0016 -0.0033,-0.0041 -0.0075,-0.0069 -0.01085,-0.01085 -0.01183,-0.01201 -0.02455,-0.02344 -0.03618,-0.03566 -0.0055,-0.0062 -0.0095,-0.01027 -0.01447,-0.01757 -0.0013,-0.0021 -0.0019,-0.005 -0.0031,-0.0072 -0.0034,-0.0064 -0.0082,-0.01193 -0.01344,-0.01707 -0.0049,-0.0067 -0.0088,-0.01291 -0.01188,-0.02066 0.0011,5.29e-4 0.0039,0.0028 0.0031,0.0021 -0.0011,-0.0011 -0.0024,-0.0021 -0.0036,-0.0031 -7.94e-4,-0.0016 -0.0024,-0.0028 -0.0026,-0.0041 -0.0011,-0.0011 -0.0026,-0.0021 -0.0036,-0.0031 -0.0016,-0.0016 -0.0024,-0.0021 -0.0026,-0.0026 0.0011,2.09e-4 0.0032,0.0016 0.0041,0.0016 -2.41e-4,-2.64e-4 -0.0019,-0.0013 -0.0026,-0.0021 0.0011,0.0013 -0.0024,-0.0016 -0.0036,-0.0031 h -0.0016 c -0.01193,-0.0047 -0.0085,-0.0029 -0.0155,-0.0078 -0.0047,-0.003 -0.01008,-0.0052 -0.01447,-0.0088 -0.01654,-0.01365 -0.02371,-0.0346 -0.03566,-0.05167 -0.0055,-0.008 -0.0051,-0.0074 -0.01035,-0.01654 -7.94e-4,-0.0016 -0.0016,-0.0026 -0.0021,-0.0041 l -5.29e-4,-5.29e-4 -0.0016,-0.0011 c -0.0038,-0.0052 -0.0013,-0.003 -0.0062,-0.01447 l -0.0011,-0.0011 v -5.29e-4 c -2.31e-4,-2.62e-4 -1.51e-4,-0.0019 -5.3e-4,-0.0021 -0.0033,-0.0045 -0.0053,-0.0095 -0.0062,-0.01497 -0.0011,-7.94e-4 -7.94e-4,-7.94e-4 -0.0067,-0.0062 -0.0057,-0.0059 -0.006,-0.0066 -0.0057,-0.0067 -2.51e-4,-5.29e-4 -5.29e-4,-7.94e-4 -0.0026,-0.0031 -0.003,-0.0034 -0.0055,-0.0056 -0.0062,-0.0062 2.62e-4,5.3e-4 7.94e-4,7.94e-4 -0.0057,-0.0078 -0.0013,-0.0021 -0.0028,-0.004 -0.0036,-0.0062 v -5.29e-4 c 0.0024,0.0019 0.0059,0.0049 0.0072,0.0062 -0.0016,-0.0028 -0.01183,-0.01479 -0.01241,-0.01447 -0.0032,-0.0043 -0.0065,-0.0085 -0.0093,-0.01291 -0.0011,-0.0019 -0.0021,-0.0037 -0.0026,-0.0057 l 5.29e-4,-0.0011 c -0.0021,-0.003 -0.0048,-0.0055 -0.0072,-0.0083 -0.0037,-0.0066 -0.0073,-0.0126 -0.01241,-0.02479 0.0019,0.0013 0.0013,2.65e-4 0,-0.0016 -0.0011,-0.0019 -0.0021,-0.0034 -0.0031,-0.0052 l -5.29e-4,-0.0011 c -0.0024,-0.006 -0.0048,-0.01199 -0.0072,-0.0181 0,-5.29e-4 -7.94e-4,-0.0011 -0.0011,-0.0031 -7.94e-4,-0.0021 -0.0019,-0.0038 -0.0026,-0.0062 -2.65e-4,-5.3e-4 -0.0016,-0.0016 -0.0021,-0.0021 -0.0046,-0.0051 -0.0093,-0.01191 -0.01138,-0.0186 -0.0013,-0.0021 -0.0024,-0.004 -0.0036,-0.0062 -0.0013,-7.93e-4 -0.0024,-0.0016 -0.0036,-0.0026 -0.0094,-0.009 -0.009,-0.0074 -0.01447,-0.01601 -0.0038,-0.006 0.004,0.0028 -0.0041,-0.0062 l -0.0016,-0.0016 c -0.0011,-5.3e-4 -0.0021,-0.0013 -0.0031,-0.0021 -0.0039,-0.0031 -0.0076,-0.0065 -0.01085,-0.01035 -0.0061,-0.0073 -0.0098,-0.01566 -0.01344,-0.02429 -7.93e-4,-7.94e-4 -0.0021,-0.0013 -0.0026,-0.0021 -0.0039,-0.0058 -0.01058,-0.02551 -0.0067,-0.0155 -0.0016,-0.0072 -2.41e-4,0.0016 -0.0057,-0.01291 -0.0013,-0.0035 -0.0016,-0.0069 -0.0031,-0.01035 -7.94e-4,-0.0016 -0.005,-0.005 -0.0031,-0.0052 -0.0054,-0.006 -0.01019,-0.01273 -0.01447,-0.01963 -0.008,-5.29e-4 -0.01553,-0.0011 -0.02326,-0.0031 -0.0034,-7.94e-4 -0.0081,-0.01262 -0.01085,-0.01603 -0.0024,-0.0024 -0.0058,-0.0053 -0.0083,-0.0083 -0.0024,-0.003 -0.0045,-0.0061 -0.0067,-0.0093 -0.0048,-0.0071 -0.0099,-0.014 -0.01447,-0.02119 -0.0045,-0.007 -0.0091,-0.01408 -0.01344,-0.02119 -0.0033,0.0084 -0.0072,0.01056 -0.01344,-0.0036 -0.007,-0.01603 -0.009,-0.01902 -0.0093,-0.01963 6.6e-5,-5.29e-4 2.65e-4,-0.0024 -5.29e-4,-0.0057 -2.64e-4,-5.29e-4 -1.08e-4,-0.0011 -5.29e-4,-0.0016 -0.0074,-0.0047 -0.01273,-0.01328 -0.01707,-0.02066 -7.93e-4,-0.0011 -0.0019,-0.0021 -0.0026,-0.0031 -2.36e-4,-2.64e-4 -1.49e-4,-0.0019 -5.3e-4,-0.0021 l -5.29e-4,-5.29e-4 c -7.94e-4,-0.0011 -0.0019,-0.0019 -0.0026,-0.0026 -0.0044,-0.0047 -0.0057,-0.008 -0.0098,-0.01447 -0.0019,-0.0059 -0.0024,-0.0084 -0.0026,-0.0093 1.57e-4,5.3e-5 -2.64e-4,-0.0016 -0.0021,-0.0067 -5.29e-4,-0.0024 -0.0019,-0.0044 -0.0026,-0.0067 -2.41e-4,-2.65e-4 -1.51e-4,-7.94e-4 -5.29e-4,-0.0011 -7.94e-4,-0.0011 -0.0016,-0.0021 -0.0026,-0.0031 -0.0041,-0.0043 -0.008,-0.0085 -0.01188,-0.01291 -0.01254,-0.01445 -0.02392,-0.03012 -0.03462,-0.04599 -0.0016,7.94e-4 -0.0021,0.0016 -0.0036,0.0026 -0.02233,-0.02299 -0.04655,-0.04458 -0.06821,-0.06821 -0.0026,-0.0041 -0.004,-0.0071 -0.0057,-0.01035 -0.0035,-0.0027 -0.0068,-0.0052 -0.01447,-0.01188 -0.0067,-0.0058 -0.01506,-0.02687 -0.01707,-0.03255 -0.01117,-0.03243 -0.01286,-0.04561 -0.01913,-0.07907 -2.62e-4,-1.8e-5 -0.0013,1.1e-5 -0.0016,0 -7.93e-4,-2.6e-5 -0.0013,1.1e-5 -0.0021,0 -7.94e-4,0 -0.0021,-0.0011 -0.0031,-0.0021 h -5.29e-4 c -0.0104,-1.94e-4 -0.01799,-0.01013 -0.02479,-0.01654 -0.0079,-0.0082 -0.0082,-0.0084 -0.0155,-0.01707 -0.003,-0.0034 -0.0055,-0.0071 -0.0088,-0.01035 -0.0028,-0.0027 -0.006,-0.0047 -0.0088,-0.0078 -0.0042,-0.0043 -0.0079,-0.0089 -0.01188,-0.01344 -0.0016,-0.0032 -0.0039,-0.0066 -0.0052,-0.0098 -7.93e-4,-0.0019 2.65e-4,-0.0038 -0.0011,-0.0057 -0.0028,-0.0063 -0.0066,-0.01217 -0.01085,-0.01757 -0.0024,-0.0027 -0.0058,-0.0054 -0.0083,-0.0083 -0.0088,-0.0109 -0.01601,-0.02522 -0.02223,-0.03772 -2.64e-4,-0.0016 -7.94e-4,-2.62e-4 -0.0026,-0.0031 -0.0021,-0.0033 -0.0044,-0.0059 -0.0062,-0.0093 -0.0045,-0.0083 -0.0071,-0.01736 -0.0098,-0.02635 -0.003,-0.0083 -0.0063,-0.01614 -0.01085,-0.02376 -0.0033,-0.0055 -0.0069,-0.01053 -0.01035,-0.01601 v -5.3e-4 c -0.0083,-0.0029 -0.01259,-0.01143 -0.01704,-0.01913 -0.0013,-0.0026 -0.0038,-0.0087 -0.0052,-0.01188 -7.93e-4,-0.0021 -0.0039,-0.008 -0.0057,-0.01241 v -5.29e-4 c -5.29e-4,-5.29e-4 -0.0019,-0.0016 -0.0021,-0.0021 -0.01138,-0.01228 -0.01677,-0.02856 -0.02479,-0.04289 -5.29e-4,-0.0011 -0.0034,-0.006 -0.0062,-0.01138 v -0.0011 c -0.0042,-0.0061 -0.0084,-0.01238 -0.01241,-0.0186 l -0.0011,-5.29e-4 c -0.01228,-0.01561 -0.02381,-0.03177 -0.03359,-0.04909 -7.93e-4,-0.0013 -0.0016,-0.0021 -0.0021,-0.0036 -0.0041,-0.0047 -0.0084,-0.0093 -0.01241,-0.01394 -0.0019,-0.0021 -0.004,-0.0041 -0.0057,-0.0062 -0.0059,-0.0074 -0.01225,-0.01363 -0.01654,-0.02222 -0.01646,-0.02339 -0.03304,-0.04715 -0.04754,-0.07183 -0.0037,-0.0064 -0.0072,-0.01312 -0.01085,-0.01963 -0.0016,-0.0027 -0.0035,-0.0061 -0.0052,-0.0088 -0.0029,-0.0046 -0.0065,-0.0098 -0.0083,-0.01498 -0.003,-0.0085 -0.0027,-0.01831 -0.0031,-0.0279 -1.77e-4,-2.65e-4 -1.8e-4,-0.0013 -5.29e-4,-0.0016 -0.0061,-0.01236 -0.0095,-0.02532 -0.01551,-0.03772 -0.0021,-0.0046 -0.0061,-0.0091 -0.0088,-0.01344 -0.0016,-0.0024 -0.0032,-0.005 -0.0052,-0.0072 -5.29e-4,-5.29e-4 -0.0016,-2.4e-5 -0.0021,-5.29e-4 -0.0019,-0.0016 -0.0034,-0.0035 -0.0052,-0.0052 -0.0079,-0.0085 -0.01169,-0.01902 -0.01603,-0.02946 -0.0011,-0.0024 -0.0016,-0.0052 -0.0031,-0.0078 -7.94e-4,-0.0013 -0.0021,-0.0021 -0.0031,-0.0031 -0.0019,-0.0024 -0.0034,-0.0048 -0.0052,-0.0072 -0.0019,-0.0019 -0.0041,-0.0035 -0.0057,-0.0057 -0.0054,-0.0075 -0.0098,-0.01556 -0.01498,-0.02326 -0.0054,-0.0081 -0.01154,-0.01588 -0.01654,-0.02429 -0.0032,-0.0053 -0.0064,-0.01103 -0.0093,-0.01654 -0.0097,-0.01506 -0.01839,-0.03031 -0.02585,-0.04651 -0.0038,-0.004 -0.0082,-0.0078 -0.01188,-0.01188 -8e-5,-9.5e-5 -5.29e-4,-0.0011 -5.29e-4,-0.0011 l -0.0016,-0.0021 h -5.29e-4 c -0.0013,-0.0013 -0.0024,-0.0036 -0.0036,-0.0052 -0.0013,-0.0016 -0.0024,-0.0029 -0.0036,-0.0047 -0.0092,-0.01095 -0.01828,-0.02199 -0.02791,-0.03256 -0.0049,-0.0054 -0.0104,-0.01029 -0.01551,-0.0155 -0.0021,-0.0021 -0.0052,-0.0039 -0.0057,-0.0067 -1.51e-4,-7.94e-4 5.29e-4,-7.94e-4 0.0016,-5.29e-4 -0.0044,-0.0013 -0.0088,-0.0036 -0.01291,-0.0057 -0.0035,-0.0019 -0.01082,-0.01085 -0.01291,-0.01344 -0.009,-0.01146 -0.01688,-0.02413 -0.02429,-0.03669 -0.0034,-0.0053 -0.0059,-0.01019 -0.0093,-0.0155 -0.0035,-0.0054 -0.0066,-0.01008 -0.0093,-0.0155 -7.93e-4,-0.0093 -0.0011,-0.01849 -0.0036,-0.02739 -5.3e-4,0.0016 -0.0016,0.0073 -0.0021,0.0098 -1.72e-4,-0.0074 -0.0011,-0.01482 -0.0016,-0.02222 -1.9e-4,-2.65e-4 -1.77e-4,-0.0019 -5.29e-4,-0.0021 -7.94e-4,-0.0013 -0.0029,-0.0031 -0.0031,-0.0041 -0.0043,-0.0033 -0.0041,-0.0024 -0.0093,-0.0093 -0.0061,-0.01376 -0.0061,-0.01111 -0.0078,-0.02532 -2.64e-4,-0.0024 -5.29e-4,-0.0043 -5.29e-4,-0.0067 l 5.29e-4,-5.29e-4 c -0.0019,-0.0035 0.0105,-0.0031 0.01085,-0.0052 -0.0011,-2.01e-4 -0.0016,-0.0011 -0.0016,-0.0031 v -0.0011 -0.0036 -0.0031 c 5e-6,-0.0013 1.6e-5,-0.0024 0,-0.0036 v -5.3e-4 -5.29e-4 c -2.01e-4,-7.94e-4 -0.0013,-0.0019 -0.0016,-0.0026 -2.62e-4,-0.0011 -5.29e-4,-0.0021 -0.0011,-0.0031 -1.64e-4,-2.65e-4 -7.94e-4,-0.0013 -0.0011,-0.0016 -0.01053,-0.0093 -0.02839,-0.02529 -0.02842,-0.02532 -0.0059,-0.0056 -0.0213,-0.02101 -0.02739,-0.02791 -0.0031,-0.0035 -0.0061,-0.0075 -0.0093,-0.01085 -0.0024,-0.0032 -0.0011,-0.0024 -0.0031,-0.0062 -7.94e-4,-0.0016 -0.0021,-0.004 -0.0031,-0.0057 -0.0011,-0.0019 -0.0013,-0.0029 -0.0026,-0.0047 -0.0043,-0.0044 -0.009,-0.0087 -0.01085,-0.01447 l -0.0011,-5.29e-4 c -9.2e-5,-2.65e-4 7.7e-5,-0.0013 0,-0.0016 -7.93e-4,-0.0016 -0.0016,-0.0035 -0.0021,-0.0052 -0.0021,-0.0016 -0.0047,-0.0034 -0.0067,-0.0052 -0.0031,-0.0028 -0.0059,-0.0063 -0.0088,-0.0093 -0.0021,-0.003 -0.0046,-0.0062 -0.0067,-0.0093 -0.0044,-0.0063 -0.0078,-0.01336 -0.01138,-0.02016 -0.0011,-0.0028 -0.0021,-0.0033 -0.0026,-0.0062 -5.29e-4,-5.29e-4 -5.29e-4,-0.0026 -0.0011,-0.0031 -7.94e-4,-0.0013 -0.0019,-0.0019 -0.0026,-0.0031 -0.0021,-0.0039 -0.0026,-0.0053 -0.0041,-0.0093 -2.64e-4,-0.0011 -5.29e-4,-0.0019 -0.0011,-0.0031 -5.29e-4,-0.0013 -0.0011,-0.0021 -0.0016,-0.0031 -9e-5,-2.62e-4 1.11e-4,-0.0013 0,-0.0016 -0.0013,-0.0024 2.65e-4,5.3e-4 -0.0021,-0.0031 -5.29e-4,-7.94e-4 -0.0016,-0.0019 -0.0021,-0.0026 -2.65e-4,-5.29e-4 -7.94e-4,-0.0016 -0.0011,-0.0021 -0.0013,-0.0013 -0.0026,-0.0021 -0.0036,-0.0036 -2.65e-4,-5.3e-4 -1.88e-4,-0.0016 -5.29e-4,-0.0021 -0.0016,-0.0026 -0.0038,-0.0056 -0.0052,-0.0083 -0.0024,-0.0043 -0.0043,-0.0087 -0.0067,-0.01291 -9.8e-5,-2.01e-4 -0.0027,-0.0048 -0.0026,-0.0052 -2.64e-4,-2.62e-4 -0.0013,-5.29e-4 -0.0016,-0.0011 -0.0028,-0.0034 -0.0042,-0.0052 -0.0067,-0.0088 -0.0058,-0.0079 -0.01135,-0.01622 -0.01394,-0.02585 -0.0013,-0.0045 -0.0016,-0.005 -0.0026,-0.0093 -2.36e-4,-0.0011 7.4e-5,-0.0021 -5.29e-4,-0.0031 -0.0013,-0.0021 -0.0031,-0.0035 -0.0041,-0.0057 -0.0016,-0.0026 -0.0019,-0.0026 -0.0026,-0.0052 -1.88e-4,-5.29e-4 2.15e-4,-0.0021 0,-0.0026 -0.0013,-0.0036 -0.0031,-0.0071 -0.0041,-0.01085 -5.29e-4,-0.0011 -0.0011,-0.0021 -0.0016,-0.0031 l -0.0016,-0.0011 c -0.0049,-0.0037 -0.0062,-0.0032 -0.0093,-0.0093 -0.0011,-0.0019 -0.0016,-0.0043 -0.0021,-0.0062 -2.65e-4,-0.0033 1.27e-4,-0.003 0,-0.0041 l -5.29e-4,-5.29e-4 c -5.3e-4,-7.94e-4 -0.0011,-0.0013 -0.0016,-0.0021 -2.27e-4,-2.51e-4 -1.85e-4,-0.0019 -5.29e-4,-0.0021 v -5.29e-4 l -5.29e-4,-5.29e-4 c -7.94e-4,-0.0016 -0.0019,-0.0033 -0.0026,-0.0026 -0.0049,-0.0066 -0.0077,-0.01127 -0.0083,-0.01963 -0.0026,-0.0071 -0.0034,-0.01005 0.0026,-0.01497 v -5.29e-4 c 2.54e-4,-5.3e-4 7.94e-4,-0.0016 0.0011,-0.0021 -0.0013,-2.65e-4 -0.0026,-5.29e-4 -0.0036,-0.0021 -5.29e-4,-7.94e-4 -0.0013,-0.0019 -0.0016,-0.0026 -5.29e-4,-0.0011 -0.0019,-0.0052 -0.0026,-0.0072 l -5.29e-4,-5.29e-4 c -0.0024,-0.0011 -0.0031,-0.0029 -0.0021,-0.0047 -0.0011,-0.0021 -1.82e-4,-0.0032 0.0011,-0.0041 z m 0.151929,0.275437 c -5.29e-4,0.0026 -5.29e-4,0.0042 -0.0016,0.0047 0.0013,-2.64e-4 0.0028,-0.0011 0.0036,-0.0026 z m 1.286743,1.880505 c 7.94e-4,7.93e-4 0.0013,0.0019 0.0021,0.0026 0.0077,0.009 0.0031,0.0028 0.0088,0.02066 1.98e-4,2.65e-4 1.58e-4,7.94e-4 5.29e-4,0.0011 5.29e-4,-0.004 0.0016,-0.0077 0.0021,-0.01138 l -5.29e-4,-5.3e-4 c -0.0055,-0.0071 -0.0098,-0.01111 -0.01291,-0.01241 z m 0.175699,0.287837 c 0.0043,0.004 0.0084,0.0074 0.01035,0.0067 -0.0033,-0.0026 -0.0066,-0.0047 -0.0072,-0.0052 -7.94e-4,-5.29e-4 -0.0021,-7.94e-4 -0.0031,-0.0016 z m 0.06821,0.06615 c 0.0011,0.0016 0.0021,0.0028 0.0036,0.0036 -2.65e-4,-7.94e-4 -0.0011,-0.0019 -0.0016,-0.0026 -7.94e-4,-5.29e-4 -0.0013,-5.29e-4 -0.0021,-0.0011 z m 0.145212,0.132292 c -0.0013,2.64e-4 -0.0016,-2.65e-4 -0.0016,0.0011 l 0.0016,0.0016 c 4.4e-5,-0.0011 -2.7e-5,-0.0013 0,-0.0026 z m 0.06821,0.09663 v 5.3e-4 c 2.64e-4,-3.7e-5 7.93e-4,-2.4e-5 0.0011,0 -7.94e-4,-2.65e-4 -5.29e-4,-1.51e-4 -0.0011,-5.3e-4 z m 0.02429,0.04651 c -1.71e-4,7.94e-4 8e-5,0.0016 0,0.0021 2.52e-4,-2.65e-4 7.94e-4,-5.3e-4 0.0011,-0.0011 1.72e-4,-2.64e-4 -0.0011,-0.0013 -0.0011,-0.0011 z m 0.03721,0.03462 c -2.64e-4,5.29e-4 -5.29e-4,0.0016 -5.29e-4,0.0026 h 5.29e-4 c 1.96e-4,-2.64e-4 1.46e-4,-7.94e-4 5.29e-4,-0.0011 -1.95e-4,-5.29e-4 -5.3e-5,-0.0019 -5.29e-4,-0.0016 z m 0.04651,0.07183 c -2.57e-4,1.11e-4 -7.94e-4,1.32e-4 -0.0011,5.29e-4 5.29e-4,-9.8e-5 0.0011,-8e-6 0.0016,0 z m 0.02376,0.03669 v 5.29e-4 c 5.29e-4,5.6e-5 0.0011,6.6e-5 0.0016,0 -7.94e-4,7.94e-4 -0.0016,0.0013 -0.0026,0.0021 0.0013,-7.94e-4 0.0028,-0.0016 0.0041,-0.0026 -0.0011,-1.72e-4 -0.0021,-4.8e-5 -0.0031,0 z m 0.04444,0.04031 c -1.58e-4,2.65e-4 -1.43e-4,5.3e-4 -5.29e-4,0.0011 2.65e-4,2.3e-4 7.94e-4,1.37e-4 0.0011,5.29e-4 5.3e-4,2.64e-4 -5.29e-4,-0.0011 -5.29e-4,-0.0016 z" /></clipPath></defs><g
     id="layer1"
     transform="translate(-21.144829,-1.3406503)"><g
       id="g159"><rect
         style="fill:#ffffff;fill-opacity:1;stroke:#071d30;stroke-width:0.138864;stroke-opacity:1"
         id="rect158"
         width="26.370844"
         height="7.9773779"
         x="29.122732"
         y="1.4100823" /><path
         id="path1"
         clip-path="url(#clipPath138)"
         style="fill:#071d30;fill-opacity:1;stroke-width:0.874756"
         d="m 70.799813,26.754956 0.0031,0.0016 c -0.192105,0.0221 -0.432772,0.09647 -0.799951,0.231511 -1.705282,0.62709 -4.848341,1.371466 -6.541719,1.549776 -0.336503,0.03547 -0.739256,0.08528 -0.894519,0.110588 -0.566427,0.09247 -0.879065,0.126511 -2.588473,0.280603 -2.197609,0.198051 -10.371285,0.231237 -12.283488,0.05013 -0.67296,-0.06385 -1.477903,-0.139598 -1.788521,-0.167949 -0.975566,-0.08905 -1.09853,-0.104071 -2.434477,-0.307474 -0.717938,-0.109336 -1.608007,-0.267984 -1.97714,-0.351917 -2.019571,-0.459165 -3.122294,-0.745453 -4.010608,-1.041797 -1.519712,-0.50694 -2.10305,-0.429495 -2.41639,0.320394 -0.201003,0.481073 -0.09731,0.906138 0.517281,2.124935 0.645064,1.279301 1.076993,1.93696 1.690853,2.572969 1.017299,1.054024 1.94642,1.443863 4.19716,1.760617 l 1.497583,0.210323 0.04341,1.480013 0.04341,1.479496 -1.352372,0.0052 c -1.584257,0.0061 -2.164877,0.08564 -2.506307,0.340547 -0.6768,0.505344 -0.854405,1.640475 -0.371037,2.370915 0.472088,0.713334 0.63929,0.764928 2.474785,0.765328 l 1.608687,5.17e-4 0.06408,5.304585 c 0.03553,2.917392 0.03701,5.374474 0.0052,5.459616 -0.0543,0.141577 -0.626249,0.154512 -6.713802,0.154512 -5.197397,0 -6.679615,-0.02595 -6.77168,-0.117822 -0.105664,-0.02854 0.09877,0.447794 0.791167,1.811775 0.227626,0.448482 0.479007,0.895323 0.74259,1.33997 l 6.015653,-0.0217 h 5.871477 l 0.05994,0.436666 c 0.0761,0.555465 0.07797,2.230012 0.0031,2.426209 -0.05111,0.133054 -0.570521,0.148828 -4.896342,0.148828 l -4.965588,0.02532 c 0.574227,0.718403 1.184437,1.413393 1.827795,2.069125 L 35.937341,60.5901 H 53.48304 71.028739 l 0.993221,-1.011824 c 0.631451,-0.643569 1.264511,-1.368745 1.847433,-2.093929 h -0.0021 c 1.58e-4,-2.27e-4 -0.0013,4.6e-5 -0.0021,0 h -5.17e-4 c -2.94e-4,0.0012 -0.001,0.0026 -0.001,0.0026 v -0.0026 l -0.166914,-0.0021 H 68.860881 64.0219 v -1.505334 -1.506368 h 5.882845 c 4.641724,0 5.871639,0.02654 5.885946,0.118339 0.0014,0.0089 0.290954,-0.256369 1.000972,-1.671216 l 0.708484,-1.4118 -6.715869,-0.04858 c -3.693359,-0.02679 -6.726183,-0.05815 -6.739124,-0.07028 -0.01297,-0.01213 -0.02325,-2.458207 -0.02325,-5.43481 v -5.412073 h 1.542025 c 1.713855,0 2.03058,-0.07314 2.443778,-0.564307 0.447829,-0.531869 0.550997,-1.298562 0.260966,-1.930114 C 67.88377,37.205203 67.473412,37.057686 65.5283,37.057686 h -1.511019 l 0.02584,-1.483113 0.02584,-1.48208 0.847493,-0.108521 c 0.79369,-0.101724 1.090142,-0.147278 1.788521,-0.275952 2.216135,-0.408317 3.824126,-1.99457 5.114934,-5.04517 0.332908,-0.786831 0.11484,-1.565737 -0.51108,-1.827279 -0.173699,-0.07262 -0.317147,-0.102406 -0.509013,-0.08062 z m 3.063895,30.729391 h 10e-4 v -5.17e-4 c -4.4e-4,-1.3e-5 -10e-4,-1.4e-5 -10e-4,0 z m 0,-5.17e-4 v -0.0016 c -6.8e-4,4.92e-4 6.8e-5,0.0012 -0.0016,0.0016 6.6e-4,5.9e-5 0.0011,2.1e-5 0.0016,0 z m -40.746866,0.02532 c -0.04294,-0.05372 -0.08772,-0.106197 -0.130225,-0.160197 l 0.122473,0.160197 z m -2.088245,-3.01532 h -0.01137 l 0.284737,0.464572 c 0.0033,0.0047 0.09305,0.13728 0.117306,0.173116 C 31.285032,54.919732 31.155134,54.7073 31.028596,54.49383 Z m 7.74578,-24.822774 v 5.17e-4 c 0.165447,0.0042 0.477822,0.07252 0.96635,0.189652 0.73308,0.175861 2.744304,0.487293 4.236434,0.655774 1.281836,0.144748 1.435409,0.158494 3.590478,0.327629 2.429096,0.190646 7.215967,0.217079 10.198344,0.05633 4.35501,-0.235004 5.813268,-0.396057 9.342582,-1.029911 1.43214,-0.257227 1.490938,-0.225971 0.862997,0.455269 -0.519511,0.563603 -0.95379,0.750883 -2.392619,1.031979 -1.205277,0.235408 -4.896842,0.721477 -5.330941,0.701766 -0.122425,-0.005 -1.48717,0.03741 -3.032373,0.0956 -2.936067,0.110672 -6.658087,0.10822 -8.344193,-0.0036 -0.543575,-0.03621 -1.411954,-0.08965 -1.929598,-0.118856 -1.881344,-0.106422 -3.686095,-0.334727 -5.365048,-0.680062 -1.530713,-0.314856 -2.017675,-0.521367 -2.537312,-1.076937 -0.407706,-0.43584 -0.540784,-0.611237 -0.265101,-0.605131 z m 8.308537,4.658114 h 2.258777 2.259294 v 1.365291 1.364258 h -2.259294 -2.258777 v -1.364775 z m 8.377267,0 h 2.211751 2.212268 v 1.365291 1.364258 h -2.212268 -2.211751 v -1.364775 z m -8.377267,6.21254 h 6.401677 6.401159 l -0.02429,5.435844 -0.02429,5.435844 -6.313826,0.02429 c -3.472354,0.01327 -6.341993,-0.0048 -6.376872,-0.03927 -0.03483,-0.03483 -0.06356,-2.492633 -0.06356,-5.460649 z m 31.984611,5.980514 c 1.04e-4,8.14e-4 -9.4e-5,0.0013 0,0.0021 2.12e-4,-6.76e-4 3.05e-4,-0.0014 5.17e-4,-0.0021 z m 0,0.0021 c -0.0072,0.02296 -0.01501,0.04561 -0.02222,0.06873 0.0052,-5.6e-5 0.01091,0.002 0.01654,0.0026 0.0064,-0.02134 0.0089,-0.04342 0.0057,-0.07131 z m -31.862138,7.947835 h 6.339665 6.339148 v 1.505852 1.505851 h -6.337598 c -3.485614,0 -6.366134,-0.02752 -6.400643,-0.06201 -0.07894,-0.07899 -0.08103,-0.848147 -10e-4,-2.031917 z m 27.499097,1.718242 c -4.16e-4,5.64e-4 -10e-4,-0.001 -10e-4,0.0016 3.44e-4,-1.79e-4 10e-4,-3.22e-4 10e-4,-5.17e-4 0.0011,-2.23e-4 0.001,1.87e-4 0.001,0 -4.13e-4,-4.04e-4 -0.001,-0.001 -0.001,-0.001 z m -42.345736,0.329695 c 0.0027,0.0038 0.03797,0.05615 0.03824,0.05633 l 0.344682,0.451652 c -0.12879,-0.168702 -0.258614,-0.336998 -0.382923,-0.50798 z m 21.129977,7.176306 c -7.250434,0 -13.182658,0.01883 -13.182658,0.04186 0,0.08148 1.941305,1.077087 2.867008,1.470195 2.610586,1.108537 5.508935,1.82838 8.289934,2.059822 1.304385,0.108573 3.920153,0.04093 5.261694,-0.136425 2.087123,-0.275971 4.027161,-0.75885 6.030123,-1.501201 0.959768,-0.355665 3.776083,-1.704742 3.867464,-1.8526 0.02831,-0.04579 -5.726467,-0.08165 -13.133565,-0.08165 z"
         transform="matrix(0.1583225,0,0,0.1583225,25.447685,-1.7593204)" /><text
         xml:space="preserve"
         style="font-style:normal;font-weight:normal;font-size:5.69992px;line-height:1.25;font-family:sans-serif;letter-spacing:0px;word-spacing:0px;fill:#000000;fill-opacity:1;stroke:none;stroke-width:0.142498"
         x="38.723633"
         y="7.1001463"
         id="text158"><tspan
           id="tspan158"
           style="fill:#071d30;fill-opacity:1;stroke-width:0.142498"
           x="38.723633"
           y="7.1001463">S3GW</tspan></text></g><g
       id="g160"><rect
         style="fill:#ffffff;fill-opacity:1;stroke:#000000;stroke-width:0.258958;stroke-dasharray:none;stroke-dashoffset:0;stroke-opacity:1"
         id="rect159"
         width="34.230259"
         height="5.5876818"
         x="25.29908"
         y="10.654533" /><text
         xml:space="preserve"
         style="font-size:3.52777px;line-height:1.25;font-family:sans-serif;letter-spacing:0px;word-spacing:0px;fill:#000000;fill-opacity:1;stroke-width:0.264583"
         x="33.082298"
         y="14.635996"
         id="text159"><tspan
           id="tspan159"
           style="fill:#000000;fill-opacity:1;stroke-width:0.264583"
           x="33.082298"
           y="14.635996">File System</tspan></text></g><g
       id="g164"><g
         id="g163"><rect
           style="fill:#ffffff;fill-opacity:1;stroke:#000000;stroke-width:0.34489;stroke-dasharray:none;stroke-dashoffset:0;stroke-opacity:1"
           id="rect160"
           width="16.587143"
           height="8.9614286"
           x="21.317274"
           y="18.614311" /><text
           xml:space="preserve"
           style="font-size:3.52777px;line-height:1.25;font-family:sans-serif;letter-spacing:0px;word-spacing:0px;stroke-width:0.264583"
           x="25.522257"
           y="22.017988"
           id="text160"><tspan
             id="tspan160"
             style="stroke-width:0.264583"
             x="25.522257"
             y="22.017988">Local</tspan><tspan
             style="stroke-width:0.264583"
             x="25.522257"
             y="26.4277"
             id="tspan161">Disk</tspan></text></g><g
         id="g162"><rect
           style="fill:#5599ff;fill-opacity:1;stroke:#000000;stroke-width:0.358311;stroke-dasharray:none;stroke-dashoffset:0;stroke-opacity:1"
           id="rect160-1"
           width="17.930023"
           height="8.9480076"
           x="45.401081"
           y="18.695932" /><text
           xml:space="preserve"
           style="font-size:3.52777px;line-height:1.25;font-family:sans-serif;letter-spacing:0px;word-spacing:0px;fill:#ffffff;stroke-width:0.264583"
           x="46.524029"
           y="22.059729"
           id="text160-2"><tspan
             id="tspan160-7"
             style="fill:#ffffff;stroke-width:0.264583"
             x="46.524029"
             y="22.059729">Persistent</tspan><tspan
             style="fill:#ffffff;stroke-width:0.264583"
             x="46.524029"
             y="26.46944"
             id="tspan161-0">Volume</tspan></text></g><text
         xml:space="preserve"
         style="font-size:3.52777px;line-height:1.25;font-family:sans-serif;letter-spacing:0px;word-spacing:0px;stroke-width:0.265;stroke-dasharray:none"
         x="39.979172"
         y="23.515055"
         id="text162"><tspan
           id="tspan162"
           style="stroke-width:0.265;stroke-dasharray:none"
           x="39.979172"
           y="23.515055">or</tspan></text></g></g></svg>
